<?xml version="1.0" encoding="UTF-8" standalone="no"?>
<svg width="53px" height="97px" viewBox="0 0 53 97" version="1.1" xmlns="http://www.w3.org/2000/svg" xmlns:xlink="http://www.w3.org/1999/xlink" xmlns:sketch="http://www.bohemiancoding.com/sketch/ns">
    <!-- Generator: Sketch 3.3.1 (12002) - http://www.bohemiancoding.com/sketch -->
    <title>Phone</title>
    <desc>Created with Sketch.</desc>
    <defs></defs>
    <g id="Welcome" stroke="none" stroke-width="1" fill="none" fill-rule="evenodd" sketch:type="MSPage">
        <g id="Desktop" sketch:type="MSArtboardGroup" transform="translate(-482.000000, -666.000000)">
            <g id="Block-Section" sketch:type="MSLayerGroup" transform="translate(23.000000, 547.000000)">
                <g id="Block-Two" transform="translate(333.000000, 102.000000)" sketch:type="MSShapeGroup">
                    <g id="Phone" transform="translate(126.000000, 17.000000)">
                        <path d="M6.00243901,0 C2.68738348,0 0,2.6955746 0,5.99458241 L0,91.0054176 C0,94.316134 2.68284357,97 6.00243901,97 L46.997561,97 C50.3126165,97 53,94.3044254 53,91.0054176 L53,5.99458241 C53,2.68386596 50.3171564,0 46.997561,0 L6.00243901,0 Z M4.25308642,83.8944155 L49.070631,83.8944155 L49.070631,11.7972973 L4.25308642,83.8944155 Z M22.9024107,5.89864865 C22.5403896,5.89864865 22.2469136,6.18956005 22.2469136,6.55405405 C22.2469136,6.91602446 22.538009,7.20945946 22.9024107,7.20945946 L29.7704288,7.20945946 C30.1324499,7.20945946 30.4259259,6.91854806 30.4259259,6.55405405 C30.4259259,6.19208364 30.1348305,5.89864865 29.7704288,5.89864865 L22.9024107,5.89864865 Z M26.5,3.93243243 C26.6806858,3.93243243 26.8271605,3.78571493 26.8271605,3.60472973 C26.8271605,3.42374452 26.6806858,3.27702703 26.5,3.27702703 C26.3193142,3.27702703 26.1728395,3.42374452 26.1728395,3.60472973 C26.1728395,3.78571493 26.3193142,3.93243243 26.5,3.93243243 Z M26.5,94.3783784 C28.668229,94.3783784 30.4259259,92.6177684 30.4259259,90.4459459 C30.4259259,88.2741235 28.668229,86.5135135 26.5,86.5135135 C24.331771,86.5135135 22.5740741,88.2741235 22.5740741,90.4459459 C22.5740741,92.6177684 24.331771,94.3783784 26.5,94.3783784 Z" id="Body" fill="#FFFFFF"></path>
                        <path d="M4.25308642,83.8918919 L4.25308642,11.7972973 L49.0740741,11.7972973 L49.0740741,83.8918919 L49.070631,11.7972973 L4.25465518,83.8918919 Z" id="Screen" fill-opacity="0.604279891" fill="#265B80"></path>
                    </g>
                </g>
            </g>
        </g>
    </g>
</svg>