<?xml version="1.0" encoding="UTF-8" standalone="no"?>
<svg width="95px" height="92px" viewBox="0 0 95 92" version="1.1" xmlns="http://www.w3.org/2000/svg" xmlns:xlink="http://www.w3.org/1999/xlink" xmlns:sketch="http://www.bohemiancoding.com/sketch/ns">
    <!-- Generator: Sketch 3.3.1 (12002) - http://www.bohemiancoding.com/sketch -->
    <title>Person Icon</title>
    <desc>Created with Sketch.</desc>
    <defs></defs>
    <g id="Welcome" stroke="none" stroke-width="1" fill="none" fill-rule="evenodd" sketch:type="MSPage">
        <g id="Desktop" sketch:type="MSArtboardGroup" transform="translate(-128.000000, -670.000000)" fill="#FFFFFF">
            <g id="Block-Section" sketch:type="MSLayerGroup" transform="translate(24.000000, 548.000000)">
                <g id="Block-One" transform="translate(0.000000, 102.000000)" sketch:type="MSShapeGroup">
                    <g id="Person-Icon" transform="translate(104.000000, 20.000000)">
                        <g id="Person-Body" transform="translate(0.227723, 0.000000)">
                            <path d="M35.4962528,52.5517476 C35.4635663,52.5878997 35.433141,52.6206188 35.4053428,52.6498647 C23.8369974,54.261031 11.6309501,57.1902384 11.6309501,57.1902384 C8.92808677,57.7949539 6.19120588,60.4612135 5.49477387,63.1308696 L0.729648569,81.3971832 C0.0343919487,84.0623336 1.67658619,86.5768402 4.40021738,87.0034273 C4.40021738,87.0034273 13.1230216,88.4254646 24.7139622,89.9058879 C33.4498185,91.0216529 42.716775,92 48.3531353,92 C53.0936565,92 60.8348915,91.1583033 68.5259535,90.1295746 C80.6115528,88.5130484 90.6373579,86.7580773 90.6373579,86.7580773 C93.3676942,86.3017917 95.0313807,83.7584542 94.3698508,81.0829329 L89.9337796,63.1414896 C89.2720443,60.4651379 86.5576107,57.8098694 83.8704638,57.2089267 C83.8704638,57.2089267 70.7966804,54.1258558 58.9206648,52.538294 C58.9142826,52.5311902 58.9078186,52.5239599 58.9012755,52.5166035 L51.8448845,78.640264 L42.5841584,78.7920792 L35.4962528,52.5517476 Z M57.1584158,48.8844884 L57.1584158,44.6336634 L37.4224422,44.6336634 L37.4224422,48.1254125 L47.4422442,52.0726073 L57.1584158,48.8844884 Z" id="Triangle-7"></path>
                            <path d="M29.3346488,33.6349888 C29.3127035,33.6397386 29.2905639,33.6436886 29.2682329,33.646827 C28.0227944,33.821862 26.6537026,31.4060331 26.2102806,28.2509222 C25.7668587,25.0958114 26.4170216,22.3961948 27.6624601,22.2211598 C27.9724738,22.1775902 28.2901491,22.2945527 28.5993021,22.5434897 C28.38606,16.8197368 28.323638,10.5183147 30.970297,7.28712871 C34.6948448,2.73999724 41.596827,0.151815182 47.3663366,0.151815182 C53.1804326,0.151815182 59.5069707,2.67810846 63.0033003,7.28712871 C65.4950336,10.5718444 65.3969016,17.0847066 65.195957,22.8874264 C65.6115627,22.4081877 66.0554237,22.1608428 66.4846011,22.2211598 C67.7300396,22.3961948 68.3802025,25.0958114 67.9367806,28.2509222 C67.4933587,31.4060331 66.1242668,33.821862 64.8788283,33.646827 C64.8523644,33.6431078 64.8261693,33.6382486 64.8002477,33.6322695 C64.5765266,34.6950969 64.1590482,35.7566262 63.3828388,37.3116688 C62.7951022,38.4891286 56.2052066,47.560547 52.7557756,49.3342678 C50.874023,50.3018777 49.5058692,50.8580858 47.290429,50.8580858 C45.1510367,50.8580858 43.9956372,50.2495674 42.1287129,49.3342678 C38.5664812,47.5878073 31.5765425,38.5177642 30.970297,37.3116688 C30.1856572,35.7506669 29.668884,34.6932362 29.3346488,33.6349888 Z" id="Ear"></path>
                        </g>
                        <g id="Tie" transform="translate(42.811881, 53.438944)">
                            <polygon id="Polygon-2" transform="translate(4.782178, 21.966097) scale(1, -1) translate(-4.782178, -21.966097) " points="4.70627063 6.88928997 9.33663367 18.4069454 6.93713875 37.0429043 2.47540251 37.0429043 0.227722781 18.4069454 "></polygon>
                            <polygon id="Polygon-1" points="4.70627063 0 8.89343034 2.41273934 7.29407765 6.3166336 4.70627061 11.0825083 2.11846361 6.3166336 0.519110915 2.41273934 "></polygon>
                        </g>
                    </g>
                </g>
            </g>
        </g>
    </g>
</svg>