<?xml version="1.0" encoding="UTF-8" standalone="no"?>
<svg width="40px" height="41px" viewBox="0 0 40 41" version="1.1" xmlns="http://www.w3.org/2000/svg" xmlns:xlink="http://www.w3.org/1999/xlink" xmlns:sketch="http://www.bohemiancoding.com/sketch/ns">
    <!-- Generator: Sketch 3.3.2 (12043) - http://www.bohemiancoding.com/sketch -->
    <title>accident</title>
    <desc>Created with Sketch.</desc>
    <defs></defs>
    <g id="Page-1" stroke="none" stroke-width="1" fill="none" fill-rule="evenodd" sketch:type="MSPage">
        <path d="M28.4675612,0.50101712 C28.2250623,0.489350507 28.0050633,0.578516764 27.8392308,0.744349336 L0.24352423,28.3383892 C0.07769165,28.5042218 -0.01064127,28.7342207 0.00102534,28.9683863 C0.29685731,35.2475241 5.2551679,40.2033347 11.532639,40.4983333 C11.545139,40.5 11.5584722,40.5 11.5718055,40.5 C11.7926378,40.5 12.0051368,40.4125004 12.1609695,40.2558345 L39.7550093,12.6609612 C39.9208419,12.4951287 40.0108415,12.2667964 39.9991749,12.0326308 C39.7033429,5.75515965 34.7450324,0.797682424 28.4675612,0.50101712 L28.4675612,0.50101712 L28.4675612,0.50101712 Z M32.9603436,7.5778119 C33.2011758,7.81697747 33.3345085,8.13864266 33.3328419,8.48030775 C33.3311752,8.82113952 33.1961758,9.14030472 32.953677,9.37863696 C32.7228447,9.61196922 32.4036795,9.74530194 32.0620144,9.74530194 C31.7203493,9.74530194 31.3995174,9.61196922 31.1603519,9.36780368 C30.9278529,9.14030472 30.7928536,8.82113952 30.7911869,8.48030775 C30.7911869,8.13864266 30.922853,7.81697747 31.1670185,7.57531191 C31.6353497,7.1003141 32.4820125,7.09698078 32.9603436,7.5778119 L32.9603436,7.5778119 L32.9603436,7.5778119 Z M12.0986717,28.3901077 C12.339504,28.6292733 12.4728367,28.9509384 12.47117,29.2926035 C12.4695034,29.6334353 12.334504,29.9526005 12.0920051,30.1909328 C11.8611728,30.424265 11.5420076,30.5575977 11.2003425,30.5575977 C10.8586774,30.5575977 10.5378456,30.424265 10.29868,30.1800995 C10.0661811,29.9526005 9.9311817,29.6334353 9.929515,29.2926035 C9.929515,28.9509384 10.0611811,28.6292733 10.3053467,28.3876077 C10.7736778,27.9126099 11.6203406,27.9092766 12.0986717,28.3901077 L12.0986717,28.3901077 L12.0986717,28.3901077 Z M29.4631166,3.58200202 C29.9481144,3.09867091 30.7831105,3.1011709 31.2614417,3.58033536 C31.7564394,4.07866641 31.7564394,4.88366271 31.2614417,5.37699377 C31.0239428,5.61699267 30.7031109,5.74949206 30.3647791,5.74949206 C30.0264473,5.74949206 29.7072821,5.617826 29.4681166,5.38032709 C28.9714522,4.87949606 28.9731188,4.07533309 29.4631166,3.58200202 L29.4631166,3.58200202 L29.4631166,3.58200202 Z M8.6217054,24.3942978 C9.1067032,23.9109667 9.9416994,23.9134667 10.4200305,24.3926312 C10.9150282,24.8909622 10.9150282,25.6959585 10.4200305,26.1892896 C10.1825316,26.4292885 9.8616997,26.5617879 9.5233679,26.5617879 C9.1850362,26.5617879 8.865871,26.4301218 8.6267054,26.1926229 C8.130041,25.6917918 8.1317077,24.8876289 8.6217054,24.3942978 L8.6217054,24.3942978 L8.6217054,24.3942978 Z M14.3041931,30.1069793 C14.7891909,29.6236482 15.624187,29.6261482 16.1025182,30.1053126 C16.5975159,30.6036437 16.5975159,31.40864 16.1025182,31.901971 C15.8650193,32.1419699 15.5441874,32.2744693 15.2058556,32.2744693 C14.8675239,32.2744693 14.5483587,32.1428033 14.3091931,31.9053044 C13.8125287,31.4044733 13.8141954,30.6003104 14.3041931,30.1069793 L14.3041931,30.1069793 L14.3041931,30.1069793 Z M35.165865,9.04863325 C35.6508627,8.56530213 36.4858589,8.56780212 36.96419,9.04696659 C37.4591878,9.54529763 37.4591878,10.3502939 36.96419,10.843625 C36.7266911,11.0836239 36.4058593,11.2161233 36.0675275,11.2161233 C35.7291957,11.2161233 35.4100305,11.0844572 35.1708649,10.8469583 C34.6742006,10.3461273 34.6758672,9.54196431 35.165865,9.04863325 L35.165865,9.04863325 L35.165865,9.04863325 Z M26.5873428,6.48536288 C26.9870293,5.92071534 27.7770445,5.77972198 28.3493199,6.17467877 C28.6310649,6.37123936 28.8161531,6.66269215 28.8751932,6.99752525 C28.9336545,7.32907567 28.8607631,7.66432485 28.6695131,7.94259484 C28.2620044,8.52046822 27.4684171,8.66039907 26.8969148,8.26022885 C26.3361764,7.8683149 26.1935952,7.04050136 26.5873428,6.48536288 L26.5873428,6.48536288 Z M5.7459316,27.2976587 C6.1456182,26.7330111 6.9356333,26.5920178 7.5079087,26.9869746 C7.7896537,27.1835351 7.9747419,27.4749879 8.033782,27.809821 C8.0922433,28.1413715 8.0193519,28.4766206 7.8281019,28.7548906 C7.4205932,29.332764 6.6270059,29.4726949 6.0555036,29.0725246 C5.4947652,28.6806107 5.3521841,27.8527972 5.7459316,27.2976587 L5.7459316,27.2976587 Z M11.4284193,33.0103401 C11.8281058,32.4456926 12.618121,32.3046992 13.1903964,32.699656 C13.4721414,32.8962166 13.6572296,33.1876694 13.7162697,33.5225025 C13.774731,33.8540529 13.7018396,34.1893021 13.5105896,34.4675721 C13.1030809,35.0454455 12.3094936,35.1853763 11.7379913,34.7852061 C11.1772529,34.3932922 11.0346718,33.5654786 11.4284193,33.0103401 L11.4284193,33.0103401 Z M32.2900912,11.9519941 C32.6897777,11.3873466 33.4797929,11.2463532 34.0520683,11.64131 C34.3338132,11.8378706 34.5189014,12.1293234 34.5779415,12.4641565 C34.6364028,12.7957069 34.5635114,13.1309561 34.3722614,13.4092261 C33.9647528,13.9870994 33.1711655,14.1270303 32.5996632,13.7268601 C32.0389247,13.3349461 31.8963436,12.5071326 32.2900912,11.9519941 L32.2900912,11.9519941 Z M24.0004285,9.04113355 C24.4645931,8.57196904 25.3137558,8.56280242 25.7954203,9.04863352 C26.0312525,9.28113245 26.1645852,9.60113098 26.1645852,9.94112942 C26.1662519,10.2819612 26.0329192,10.602793 25.7904203,10.8444586 C25.554588,11.0819575 25.2354228,11.2136236 24.8954244,11.2136236 C24.555426,11.2136236 24.2379274,11.0819575 23.9970952,10.8427919 C23.756263,10.602793 23.6245969,10.2819612 23.6245969,9.94112942 C23.6237636,9.60113098 23.7595963,9.28113245 24.0004285,9.04113355 L24.0004285,9.04113355 L24.0004285,9.04113355 Z M3.1590174,29.8534293 C3.6231819,29.3842648 4.4723447,29.3750982 4.9540091,29.8609293 C5.1898414,30.0934282 5.3231741,30.4134268 5.3231741,30.7534252 C5.3248407,31.094257 5.191508,31.4150888 4.9490091,31.6567544 C4.7131769,31.8942533 4.3940117,32.0259194 4.0540132,32.0259194 C3.7140148,32.0259194 3.3965163,31.8942533 3.155684,31.6550877 C2.9148518,31.4150888 2.7831857,31.094257 2.7831857,30.7534252 C2.7823524,30.4134268 2.9181851,30.0934282 3.1590174,29.8534293 L3.1590174,29.8534293 L3.1590174,29.8534293 Z M8.841505,35.5661108 C9.3056696,35.0969463 10.1548323,35.0877797 10.6364968,35.5736108 C10.872329,35.8061097 11.0056618,36.1261082 11.0056618,36.4661067 C11.0073284,36.8069385 10.8739957,37.1277703 10.6314968,37.3694359 C10.3956646,37.6069348 10.0764994,37.7386008 9.7365009,37.7386008 C9.3965025,37.7386008 9.0790039,37.6069348 8.8381717,37.3677692 C8.5973395,37.1277703 8.4656734,36.8069385 8.4656734,36.4661067 C8.4648401,36.1261082 8.6006728,35.8061097 8.841505,35.5661108 L8.841505,35.5661108 L8.841505,35.5661108 Z M29.7031769,14.5077648 C30.1673414,14.0386003 31.0165042,14.0294336 31.4981686,14.5152647 C31.7340009,14.7477637 31.8673336,15.0677622 31.8673336,15.4077606 C31.8690003,15.7485924 31.7356675,16.0694243 31.4931687,16.3110898 C31.2573364,16.5485887 30.9381712,16.6802548 30.5981728,16.6802548 C30.2581743,16.6802548 29.9406758,16.5485887 29.6998436,16.3094232 C29.4590113,16.0694243 29.3273453,15.7485924 29.3273453,15.4077606 C29.326512,15.0677622 29.4623447,14.7477637 29.7031769,14.5077648 L29.7031769,14.5077648 L29.7031769,14.5077648 Z M26.8823693,20.9112878 L20.4107323,27.3845914 C19.9940676,27.8012562 19.4374035,28.0304218 18.8465728,28.0304218 C18.2557422,28.0304218 17.7007448,27.8012562 17.2824134,27.3862581 L13.1174325,23.2212772 C12.2557698,22.3587812 12.2557698,20.954621 13.1174325,20.0921249 L19.5882361,13.6188213 C20.4265656,12.7829918 21.8848922,12.7846585 22.7182217,13.6188213 L26.8815359,17.7829689 C27.296534,18.197967 27.5273663,18.7529644 27.5273663,19.3454617 C27.5273663,19.937959 27.299034,20.4946231 26.8823693,20.9112878 L26.8823693,20.9112878 L26.8823693,20.9112878 Z M28.5855784,11.8974813 C28.3514128,11.6649823 28.2164135,11.3449838 28.2164135,11.0049854 C28.2164135,10.6641536 28.3480795,10.3433217 28.5905784,10.1016562 C29.0655762,9.62665835 29.9089057,9.62415836 30.3872368,10.1083228 C30.6214024,10.3408217 30.7564018,10.6591536 30.7580684,10.9983187 C30.7580684,11.3383172 30.628069,11.659149 30.3889035,11.8999812 C30.1447379,12.1416468 29.8255727,12.2741462 29.487241,12.2741462 C29.1455759,12.2741462 28.8264107,12.1399801 28.5855784,11.8974813 L28.5855784,11.8974813 L28.5855784,11.8974813 Z M7.7239066,32.709777 C7.489741,32.4772781 7.3547416,32.1572796 7.3547416,31.8172811 C7.3547416,31.4764494 7.4864077,31.1556175 7.7289066,30.913952 C8.2039044,30.4389541 9.0472338,30.4364542 9.525565,30.9206186 C9.7597306,31.1531175 9.8947299,31.4714494 9.8963966,31.8106145 C9.8963966,32.1506129 9.7663972,32.4714448 9.5272316,32.712277 C9.2830661,32.9539426 8.9639009,33.086442 8.6255691,33.086442 C8.283904,33.086442 7.9647388,32.9522759 7.7239066,32.709777 L7.7239066,32.709777 L7.7239066,32.709777 Z" id="accident" fill="#FFFFFF" sketch:type="MSShapeGroup"></path>
    </g>
</svg>