<?xml version="1.0" encoding="UTF-8" standalone="no"?>
<svg width="40px" height="41px" viewBox="0 0 40 41" version="1.1" xmlns="http://www.w3.org/2000/svg" xmlns:xlink="http://www.w3.org/1999/xlink" xmlns:sketch="http://www.bohemiancoding.com/sketch/ns">
    <!-- Generator: Sketch 3.3.2 (12043) - http://www.bohemiancoding.com/sketch -->
    <title>accident</title>
    <desc>Created with Sketch.</desc>
    <defs></defs>
    <g id="VDM-Landing-Page-2" stroke="none" stroke-width="1" fill="none" fill-rule="evenodd" sketch:type="MSPage">
        <g id="VDM2_max_tablet_youville" sketch:type="MSArtboardGroup" transform="translate(-112.000000, -1235.000000)" fill="#3498B3">
            <g id="You-Have-Options-Copy-5" sketch:type="MSLayerGroup" transform="translate(-336.000000, 930.000000)">
                <g id="Rectangle-76-+-You-are-already-elig-+-You-are-already-elig" transform="translate(420.000000, 49.500000)" sketch:type="MSShapeGroup">
                    <g id="Group" transform="translate(19.000000, 255.500000)">
                        <g id="Shape-+-Accident" transform="translate(0.000000, 0.500000)">
                            <path d="M37.4675612,0.00101712038 C37.2250623,-0.0106494927 37.0050633,0.0785167643 36.8392308,0.244349336 L9.24352423,27.8383892 C9.07769165,28.0042218 8.98935873,28.2342207 9.00102534,28.4683863 C9.29685731,34.7475241 14.2551679,39.7033347 20.532639,39.9983333 C20.545139,40 20.5584722,40 20.5718055,40 C20.7926378,40 21.0051368,39.9125004 21.1609695,39.7558345 L48.7550093,12.1609612 C48.9208419,11.9951287 49.0108415,11.7667964 48.9991749,11.5326308 C48.7033429,5.25515965 43.7450324,0.297682424 37.4675612,0.00101712038 L37.4675612,0.00101712038 Z M41.9603436,7.0778119 C42.2011758,7.31697747 42.3345085,7.63864266 42.3328419,7.98030775 C42.3311752,8.32113952 42.1961758,8.64030472 41.953677,8.87863696 C41.7228447,9.11196922 41.4036795,9.24530194 41.0620144,9.24530194 C40.7203493,9.24530194 40.3995174,9.11196922 40.1603519,8.86780368 C39.9278529,8.64030472 39.7928536,8.32113952 39.7911869,7.98030775 C39.7911869,7.63864266 39.922853,7.31697747 40.1670185,7.07531191 C40.6353497,6.6003141 41.4820125,6.59698078 41.9603436,7.0778119 L41.9603436,7.0778119 Z M21.0986717,27.8901077 C21.339504,28.1292733 21.4728367,28.4509384 21.47117,28.7926035 C21.4695034,29.1334353 21.334504,29.4526005 21.0920051,29.6909328 C20.8611728,29.924265 20.5420076,30.0575977 20.2003425,30.0575977 C19.8586774,30.0575977 19.5378456,29.924265 19.29868,29.6800995 C19.0661811,29.4526005 18.9311817,29.1334353 18.929515,28.7926035 C18.929515,28.4509384 19.0611811,28.1292733 19.3053467,27.8876077 C19.7736778,27.4126099 20.6203406,27.4092766 21.0986717,27.8901077 L21.0986717,27.8901077 Z M38.4631166,3.08200202 C38.9481144,2.59867091 39.7831105,2.6011709 40.2614417,3.08033536 C40.7564394,3.57866641 40.7564394,4.38366271 40.2614417,4.87699377 C40.0239428,5.11699267 39.7031109,5.24949206 39.3647791,5.24949206 C39.0264473,5.24949206 38.7072821,5.117826 38.4681166,4.88032709 C37.9714522,4.37949606 37.9731188,3.57533309 38.4631166,3.08200202 L38.4631166,3.08200202 Z M17.6217054,23.8942978 C18.1067032,23.4109667 18.9416994,23.4134667 19.4200305,23.8926312 C19.9150282,24.3909622 19.9150282,25.1959585 19.4200305,25.6892896 C19.1825316,25.9292885 18.8616997,26.0617879 18.5233679,26.0617879 C18.1850362,26.0617879 17.865871,25.9301218 17.6267054,25.6926229 C17.130041,25.1917918 17.1317077,24.3876289 17.6217054,23.8942978 L17.6217054,23.8942978 Z M23.3041931,29.6069793 C23.7891909,29.1236482 24.624187,29.1261482 25.1025182,29.6053126 C25.5975159,30.1036437 25.5975159,30.90864 25.1025182,31.401971 C24.8650193,31.6419699 24.5441874,31.7744693 24.2058556,31.7744693 C23.8675239,31.7744693 23.5483587,31.6428033 23.3091931,31.4053044 C22.8125287,30.9044733 22.8141954,30.1003104 23.3041931,29.6069793 L23.3041931,29.6069793 Z M44.165865,8.54863325 C44.6508627,8.06530213 45.4858589,8.06780212 45.96419,8.54696659 C46.4591878,9.04529763 46.4591878,9.85029393 45.96419,10.343625 C45.7266911,10.5836239 45.4058593,10.7161233 45.0675275,10.7161233 C44.7291957,10.7161233 44.4100305,10.5844572 44.1708649,10.3469583 C43.6742006,9.84612729 43.6758672,9.04196431 44.165865,8.54863325 L44.165865,8.54863325 Z M35.5873428,5.98536288 C35.9870293,5.42071534 36.7770445,5.27972198 37.3493199,5.67467877 C37.6310649,5.87123936 37.8161531,6.16269215 37.8751932,6.49752525 C37.9336545,6.82907567 37.8607631,7.16432485 37.6695131,7.44259484 C37.2620044,8.02046822 36.4684171,8.16039907 35.8969148,7.76022885 C35.3361764,7.3683149 35.1935952,6.54050136 35.5873428,5.98536288 Z M14.7459316,26.7976587 C15.1456182,26.2330111 15.9356333,26.0920178 16.5079087,26.4869746 C16.7896537,26.6835351 16.9747419,26.9749879 17.033782,27.309821 C17.0922433,27.6413715 17.0193519,27.9766206 16.8281019,28.2548906 C16.4205932,28.832764 15.6270059,28.9726949 15.0555036,28.5725246 C14.4947652,28.1806107 14.3521841,27.3527972 14.7459316,26.7976587 Z M20.4284193,32.5103401 C20.8281058,31.9456926 21.618121,31.8046992 22.1903964,32.199656 C22.4721414,32.3962166 22.6572296,32.6876694 22.7162697,33.0225025 C22.774731,33.3540529 22.7018396,33.6893021 22.5105896,33.9675721 C22.1030809,34.5454455 21.3094936,34.6853763 20.7379913,34.2852061 C20.1772529,33.8932922 20.0346718,33.0654786 20.4284193,32.5103401 Z M41.2900912,11.4519941 C41.6897777,10.8873466 42.4797929,10.7463532 43.0520683,11.14131 C43.3338132,11.3378706 43.5189014,11.6293234 43.5779415,11.9641565 C43.6364028,12.2957069 43.5635114,12.6309561 43.3722614,12.9092261 C42.9647528,13.4870994 42.1711655,13.6270303 41.5996632,13.2268601 C41.0389247,12.8349461 40.8963436,12.0071326 41.2900912,11.4519941 Z M33.0004285,8.54113355 C33.4645931,8.07196904 34.3137558,8.06280242 34.7954203,8.54863352 C35.0312525,8.78113245 35.1645852,9.10113098 35.1645852,9.44112942 C35.1662519,9.78196119 35.0329192,10.102793 34.7904203,10.3444586 C34.554588,10.5819575 34.2354228,10.7136236 33.8954244,10.7136236 C33.555426,10.7136236 33.2379274,10.5819575 32.9970952,10.3427919 C32.756263,10.102793 32.6245969,9.78196119 32.6245969,9.44112942 C32.6237636,9.10113098 32.7595963,8.78113245 33.0004285,8.54113355 L33.0004285,8.54113355 Z M12.1590174,29.3534293 C12.6231819,28.8842648 13.4723447,28.8750982 13.9540091,29.3609293 C14.1898414,29.5934282 14.3231741,29.9134268 14.3231741,30.2534252 C14.3248407,30.594257 14.191508,30.9150888 13.9490091,31.1567544 C13.7131769,31.3942533 13.3940117,31.5259194 13.0540132,31.5259194 C12.7140148,31.5259194 12.3965163,31.3942533 12.155684,31.1550877 C11.9148518,30.9150888 11.7831857,30.594257 11.7831857,30.2534252 C11.7823524,29.9134268 11.9181851,29.5934282 12.1590174,29.3534293 L12.1590174,29.3534293 Z M17.841505,35.0661108 C18.3056696,34.5969463 19.1548323,34.5877797 19.6364968,35.0736108 C19.872329,35.3061097 20.0056618,35.6261082 20.0056618,35.9661067 C20.0073284,36.3069385 19.8739957,36.6277703 19.6314968,36.8694359 C19.3956646,37.1069348 19.0764994,37.2386008 18.7365009,37.2386008 C18.3965025,37.2386008 18.0790039,37.1069348 17.8381717,36.8677692 C17.5973395,36.6277703 17.4656734,36.3069385 17.4656734,35.9661067 C17.4648401,35.6261082 17.6006728,35.3061097 17.841505,35.0661108 L17.841505,35.0661108 Z M38.7031769,14.0077648 C39.1673414,13.5386003 40.0165042,13.5294336 40.4981686,14.0152647 C40.7340009,14.2477637 40.8673336,14.5677622 40.8673336,14.9077606 C40.8690003,15.2485924 40.7356675,15.5694243 40.4931687,15.8110898 C40.2573364,16.0485887 39.9381712,16.1802548 39.5981728,16.1802548 C39.2581743,16.1802548 38.9406758,16.0485887 38.6998436,15.8094232 C38.4590113,15.5694243 38.3273453,15.2485924 38.3273453,14.9077606 C38.326512,14.5677622 38.4623447,14.2477637 38.7031769,14.0077648 L38.7031769,14.0077648 Z M35.8823693,20.4112878 L29.4107323,26.8845914 C28.9940676,27.3012562 28.4374035,27.5304218 27.8465728,27.5304218 C27.2557422,27.5304218 26.7007448,27.3012562 26.2824134,26.8862581 L22.1174325,22.7212772 C21.2557698,21.8587812 21.2557698,20.454621 22.1174325,19.5921249 L28.5882361,13.1188213 C29.4265656,12.2829918 30.8848922,12.2846585 31.7182217,13.1188213 L35.8815359,17.2829689 C36.296534,17.697967 36.5273663,18.2529644 36.5273663,18.8454617 C36.5273663,19.437959 36.299034,19.9946231 35.8823693,20.4112878 L35.8823693,20.4112878 Z M37.5855784,11.3974813 C37.3514128,11.1649823 37.2164135,10.8449838 37.2164135,10.5049854 C37.2164135,10.1641536 37.3480795,9.84332172 37.5905784,9.60165617 C38.0655762,9.12665835 38.9089057,9.12415836 39.3872368,9.6083228 C39.6214024,9.84082174 39.7564018,10.1591536 39.7580684,10.4983187 C39.7580684,10.8383172 39.628069,11.159149 39.3889035,11.3999812 C39.1447379,11.6416468 38.8255727,11.7741462 38.487241,11.7741462 C38.1455759,11.7741462 37.8264107,11.6399801 37.5855784,11.3974813 L37.5855784,11.3974813 Z M16.7239066,32.209777 C16.489741,31.9772781 16.3547416,31.6572796 16.3547416,31.3172811 C16.3547416,30.9764494 16.4864077,30.6556175 16.7289066,30.413952 C17.2039044,29.9389541 18.0472338,29.9364542 18.525565,30.4206186 C18.7597306,30.6531175 18.8947299,30.9714494 18.8963966,31.3106145 C18.8963966,31.6506129 18.7663972,31.9714448 18.5272316,32.212277 C18.2830661,32.4539426 17.9639009,32.586442 17.6255691,32.586442 C17.283904,32.586442 16.9647388,32.4522759 16.7239066,32.209777 L16.7239066,32.209777 Z" id="accident"></path>
                        </g>
                    </g>
                </g>
            </g>
        </g>
    </g>
</svg>