<?xml version="1.0" encoding="UTF-8" standalone="no"?>
<svg width="24px" height="24px" viewBox="0 0 24 24" version="1.1" xmlns="http://www.w3.org/2000/svg" xmlns:xlink="http://www.w3.org/1999/xlink" xmlns:sketch="http://www.bohemiancoding.com/sketch/ns">
    <!-- Generator: Sketch 3.3.1 (12002) - http://www.bohemiancoding.com/sketch -->
    <title>arrow</title>
    <desc>Created with Sketch.</desc>
    <defs></defs>
    <g id="Page-1" stroke="none" stroke-width="1" fill="none" fill-rule="evenodd" sketch:type="MSPage">
        <g id="Desktop-v13" sketch:type="MSArtboardGroup" transform="translate(-266.000000, -848.000000)" fill="#FFFFFF">
            <g id="Enrollment" sketch:type="MSLayerGroup" transform="translate(0.000000, 400.000000)">
                <g id="Block-Three-+-Block-Two-+-Block-One" transform="translate(51.000000, 165.000000)" sketch:type="MSShapeGroup">
                    <g id="Block-One">
                        <g id="Button-Copy" transform="translate(30.000000, 263.000000)">
                            <g id="arrow" transform="translate(185.000000, 20.000000)">
                                <path d="M0.304225352,11.8309859 C0.304225352,18.3887324 5.57746479,23.6619718 12.1352113,23.6619718 C18.6929577,23.6619718 23.9661972,18.3887324 23.9661972,11.8309859 C23.9661972,5.27323944 18.6929577,0 12.1352113,0 C5.57746479,0 0.304225352,5.27323944 0.304225352,11.8309859 L0.304225352,11.8309859 Z M11.1211268,7.23380282 L16.5971831,11.8985915 L11.1211268,16.5295775 C10.8169014,16.8 10.343662,16.7661972 10.0732394,16.4619718 C9.8028169,16.1577465 9.83661972,15.684507 10.1408451,15.4140845 L14.2985915,11.8985915 L10.1408451,8.38309859 C9.83661972,8.11267606 9.8028169,7.63943662 10.0732394,7.33521127 C10.343662,7.03098592 10.8169014,6.9971831 11.1211268,7.23380282 L11.1211268,7.23380282 Z" id="Shape"></path>
                            </g>
                        </g>
                    </g>
                </g>
            </g>
        </g>
    </g>
</svg>