<?xml version="1.0" encoding="UTF-8" standalone="no"?>
<svg width="40px" height="44px" viewBox="0 0 40 44" version="1.1" xmlns="http://www.w3.org/2000/svg" xmlns:xlink="http://www.w3.org/1999/xlink" xmlns:sketch="http://www.bohemiancoding.com/sketch/ns">
    <!-- Generator: Sketch 3.3.2 (12043) - http://www.bohemiancoding.com/sketch -->
    <title>birthday_youville</title>
    <desc>Created with Sketch.</desc>
    <defs></defs>
    <g id="VDM-Landing-Page-2" stroke="none" stroke-width="1" fill="none" fill-rule="evenodd" sketch:type="MSPage">
        <g id="VDM1_max_desktopHD_youville" sketch:type="MSArtboardGroup" transform="translate(-614.000000, -1154.000000)" fill="#3498B3">
            <g id="Body" sketch:type="MSLayerGroup" transform="translate(0.000000, 400.000000)">
                <g id="Dependents" transform="translate(0.000000, 576.000000)" sketch:type="MSShapeGroup">
                    <g id="Group-Copy-2" transform="translate(504.000000, 178.000000)">
                        <g id="Group-+-Birthdays" transform="translate(97.000000, 0.000000)">
                            <g id="birthday_youville" transform="translate(13.000000, 0.000000)">
                                <path d="M19.8182609,7.56434783 C20.3956522,7.56434783 20.9726087,7.34434783 21.4126087,6.90434783 C22.2930435,6.02391304 22.0704348,4.77304348 21.4126087,3.71608696 C20.0243478,1.48391304 19.8186957,0.120434783 19.8182609,0 C19.8178261,0.12 19.6108696,1.48347826 18.223913,3.71565217 C17.5665217,4.77347826 17.3434783,6.02391304 18.223913,6.90391304 C18.663913,7.34434783 19.2408696,7.56434783 19.8182609,7.56434783 L19.8182609,7.56434783 Z" id="Shape"></path>
                                <path d="M29.703913,28.58 C27.5156522,28.58 26.4786957,29.3891304 25.2786957,30.3282609 C24.0617391,31.2795652 22.6826087,32.3582609 20.0386957,32.3582609 C17.3947826,32.3582609 16.0156522,31.2795652 14.7982609,30.3282609 C13.5978261,29.3891304 12.5608696,28.58 10.3717391,28.58 C8.1826087,28.58 7.14652174,29.3891304 5.94565217,30.3282609 C5.00869565,31.0604348 3.97391304,31.8665217 2.34130435,32.1991304 L2.34130435,35.786087 L37.6565217,35.786087 L37.6565217,32.1852174 C36.0682609,31.8426087 35.0504348,31.0491304 34.1291304,30.3282609 C32.9291304,29.3895652 31.8926087,28.58 29.703913,28.58 L29.703913,28.58 Z" id="Shape"></path>
                                <path d="M2.34217391,39.0369565 L2.34217391,40.236087 L2.34217391,40.8595652 C2.34217391,42.3030435 3.5173913,43.4782609 4.96130435,43.4782609 L35.0378261,43.4782609 C36.4826087,43.4782609 37.6573913,42.3026087 37.6573913,40.8595652 L37.6573913,40.236087 L37.6573913,39.0369565 L37.6573913,37.0973913 L2.34217391,37.0973913 L2.34217391,39.0369565 L2.34217391,39.0369565 Z" id="Shape"></path>
                                <rect id="Rectangle-path" x="18.7952174" y="8.43347826" width="2.04652174" height="8.4173913"></rect>
                                <path d="M34.8252174,17.6695652 L5.17565217,17.6695652 C2.39826087,17.6695652 0.14,19.9286957 0.14,22.7052174 L0.14,29.9982609 C0.14,30.2965217 0.275217391,30.5782609 0.50826087,30.7643478 C0.683478261,30.9052174 0.901304348,30.9804348 1.12217391,30.9804348 C1.18173913,30.9804348 1.24130435,30.9747826 1.30086957,30.9643478 C1.52130435,30.9621739 1.73043478,30.9526087 1.93130435,30.9365217 C3.33086957,30.6926087 4.18130435,30.0317391 5.13217391,29.2878261 C6.34869565,28.336087 7.72826087,27.2578261 10.3726087,27.2578261 C13.0169565,27.2578261 14.396087,28.3365217 15.6130435,29.2878261 C16.8143478,30.226087 17.8504348,31.0369565 20.0395652,31.0369565 C22.2282609,31.0369565 23.2647826,30.226087 24.4647826,29.2878261 C25.6817391,28.3365217 27.0613043,27.2578261 29.7043478,27.2578261 C32.3495652,27.2578261 33.7278261,28.3365217 34.9443478,29.2878261 C35.9073913,30.0413043 36.7669565,30.7104348 38.2,30.9465217 C38.3604348,30.956087 38.526087,30.9621739 38.6982609,30.9643478 C38.7582609,30.9747826 38.8178261,30.9804348 38.8778261,30.9804348 C39.0991304,30.9804348 39.3165217,30.9052174 39.4926087,30.7643478 C39.723913,30.5782609 39.8604348,30.2965217 39.8604348,29.9982609 L39.8604348,22.7052174 C39.8604348,19.9282609 37.6008696,17.6695652 34.8252174,17.6695652 L34.8252174,17.6695652 Z" id="Shape"></path>
                            </g>
                        </g>
                    </g>
                </g>
            </g>
        </g>
    </g>
</svg>