<?xml version="1.0" encoding="UTF-8" standalone="no"?>
<svg width="22px" height="41px" viewBox="0 0 22 41" version="1.1" xmlns="http://www.w3.org/2000/svg" xmlns:xlink="http://www.w3.org/1999/xlink" xmlns:sketch="http://www.bohemiancoding.com/sketch/ns">
    <!-- Generator: Sketch 3.3.2 (12043) - http://www.bohemiancoding.com/sketch -->
    <title>Cancer</title>
    <desc>Created with Sketch.</desc>
    <defs></defs>
    <g id="VDM-Landing-Page-2" stroke="none" stroke-width="1" fill="none" fill-rule="evenodd" sketch:type="MSPage">
        <g id="VDM1_max_tablet-Copy" sketch:type="MSArtboardGroup" transform="translate(-192.000000, -998.000000)" fill="#FFFFFF">
            <g id="You-Have-Options-Copy" sketch:type="MSLayerGroup" transform="translate(0.000000, 829.000000)">
                <g id="Group-Copy" transform="translate(84.000000, 99.000000)" sketch:type="MSShapeGroup">
                    <g id="Group" transform="translate(0.000000, 70.000000)">
                        <g id="Cancer-+-Cancer" transform="translate(96.000000, 0.500000)">
                            <g id="Cancer" transform="translate(12.000000, 0.000000)">
                                <path d="M21.4869565,38.386087 C20.2591304,36.9282609 18.0452174,34.2017391 15.7234783,30.8695652 C15.413913,31.413913 15.0886957,31.96 14.7652174,32.5026087 C14.7726087,32.5117391 14.7791304,32.5204348 14.786087,32.5291304 C14.1426087,33.6247826 13.47,34.7256522 12.7686957,35.8282609 C12.7595652,35.8143478 12.7513043,35.8034783 12.7408696,35.7917391 C12.4104348,36.3113043 12.0817391,36.8282609 11.7391304,37.35 C12.1126087,37.8330435 12.48,38.296087 12.8330435,38.7408696 L13.4278261,39.4873913 C13.5930435,39.696087 13.8452174,39.8178261 14.1113043,39.8178261 L20.8230435,39.8178261 C21.16,39.8178261 21.4678261,39.6213043 21.6108696,39.3152174 C21.7526087,39.0091304 21.7078261,38.643913 21.4869565,38.386087 L21.4869565,38.386087 L21.4869565,38.386087 Z" id="Shape"></path>
                                <path d="M19.3880264,19.6069565 C19.702809,18.706087 19.9880264,17.8278261 20.2123742,16.9721739 C20.5954177,15.5217391 20.8315047,14.1182609 20.9393308,12.7791304 C20.9832438,12.3078261 21.0106351,11.8521739 21.0106351,11.4121739 C21.0197656,8.11652174 20.208896,5.31130435 18.5693308,3.18608696 C16.8962873,1.01217391 14.4402003,0 10.8402003,0 C7.24020033,0 4.78454816,1.01217391 3.10976555,3.18608696 C0.574113377,6.48 -0.00849531888,11.3756522 1.46802642,16.9756522 C2.33411338,20.2556522 3.9010699,23.8921739 6.06628729,27.7808696 C6.43324381,27.196087 6.77585251,26.6152174 7.11498294,26.036087 C8.14628729,24.3021739 9.21759164,22.366087 9.98628729,20.3713043 C9.19672207,18.6530435 8.63672207,17.0917391 8.19498294,15.4165217 C7.56193946,13.0147826 7.27672207,9.62173913 8.56020033,7.9573913 C9.0784612,7.28086957 9.82454816,6.9573913 10.8419395,6.9573913 C11.8597656,6.9573913 12.6071569,7.28434783 13.1236786,7.9573913 C14.1358525,9.27217391 14.168896,11.66 13.8245482,13.7904348 C13.7584612,14.1695652 13.648896,14.5973913 13.5584612,15.0134783 C13.5493308,15.1108696 13.5145482,15.21 13.4941134,15.3056522 C13.4575916,15.4430435 13.4454177,15.5578261 13.4049829,15.7004348 C13.3649829,15.8569565 13.3115047,16.0065217 13.2662873,16.1595652 C12.382809,19.5873913 10.6941134,23.4047826 8.37585251,27.306087 C8.27498294,27.4847826 8.19498294,27.65 8.09237425,27.8308696 C6.49411338,30.4156522 4.64715686,33.0452174 2.57411338,35.6017391 C1.61063512,36.8369565 0.770635116,37.8608696 0.172374246,38.5704348 C0.0732438116,38.7269565 0.0245481594,38.8382609 0.000200333292,38.9578261 C-0.00675618845,38.996087 0.165417725,40 0.836722072,40 L7.54976555,40 C7.68541772,40 7.81585251,39.9634783 7.93411338,39.906087 C7.96715686,39.8886957 7.98976555,39.8573913 8.0210699,39.8365217 C8.06454816,39.8073913 8.10280903,39.7708696 8.14454816,39.736087 C9.64367859,37.6104348 11.0523742,35.496087 12.3462873,33.3952174 C15.2502003,28.6673913 17.5845482,24.0834783 19.3880264,19.6069565 Z" id="Shape"></path>
                            </g>
                        </g>
                    </g>
                </g>
            </g>
        </g>
    </g>
</svg>