<?xml version="1.0" encoding="UTF-8" standalone="no"?>
<svg width="170px" height="43px" viewBox="0 0 170 43" version="1.1" xmlns="http://www.w3.org/2000/svg" xmlns:xlink="http://www.w3.org/1999/xlink" xmlns:sketch="http://www.bohemiancoding.com/sketch/ns">
    <!-- Generator: Sketch 3.3.2 (12043) - http://www.bohemiancoding.com/sketch -->
    <title>logo 2 + logo dots 2 copy</title>
    <desc>Created with Sketch.</desc>
    <defs></defs>
    <g id="FINALS" stroke="none" stroke-width="1" fill="none" fill-rule="evenodd" sketch:type="MSPage">
        <g id="logo-2-+-logo-dots-2-copy" sketch:type="MSLayerGroup" fill="#FFFFFF">
            <path d="M17.4391809,27.3365433 C15.546514,25.3478891 13.3915109,24.332818 11.029111,24.332818 C9.01283019,24.332818 7.28498192,25.0436443 5.89775874,26.4293408 C4.51328254,27.8247178 3.81143002,29.5672103 3.81143002,31.60565 C3.81143002,33.0231539 4.1190914,34.3078964 4.73441415,35.4059433 C5.3511104,36.5192024 6.2315164,37.3904487 7.35090936,38.0182992 C8.46480836,38.640618 9.73116457,38.9628408 11.1019059,38.9628408 C12.2693709,38.9628408 13.3503062,38.7388061 14.3186155,38.3045658 C15.2635754,37.8689427 16.3156675,37.0737576 17.4364339,35.9632643 C17.5504334,36.0808134 19.8977249,38.5521104 20.0240859,38.6710425 C18.5146222,40.1438635 17.0669656,41.1796786 15.7223205,41.7535948 C14.3556997,42.3371915 12.7761881,42.6400533 11.034605,42.6400533 C7.81377491,42.6400533 5.13821971,41.589026 3.09034866,39.536757 C1.03561017,37.4789563 0,34.814049 0,31.5945866 C0,29.513276 0.469732997,27.6421709 1.40233155,26.025525 C2.33905057,24.4171768 3.696057,23.0937122 5.43489318,22.1049168 C7.1819703,21.124419 9.08562507,20.6293298 11.090918,20.6293298 C12.7995374,20.6293298 14.4696992,20.9958065 16.0519577,21.7232279 C17.6108669,22.439586 18.9637529,23.4712522 20.1023747,24.7836534 L17.4391809,27.3365433 Z M25.7019974,37.8941346 C24.8906391,37.0740629 24.4724561,36.0060016 24.4724561,34.6978232 C24.4724561,33.4276962 24.894807,32.3688197 25.7172799,31.5513723 C26.5466992,30.7286764 27.5956299,30.3140482 28.8390643,30.3140482 C30.1047277,30.3140482 31.1689408,30.72474 31.9844671,31.5356269 C32.802772,32.3425774 33.2126191,33.4067024 33.2126191,34.6978232 C33.2126191,35.9836956 32.7944361,37.0530691 31.9566808,37.8797013 C31.1314294,38.7050214 30.0755522,39.1183375 28.8223926,39.1183375 C27.5706223,39.1183375 26.5216916,38.7050214 25.7019974,37.8941346 C25.7019974,37.8941346 26.5216916,38.7050214 25.7019974,37.8941346 Z M23.556557,28.8296267 C21.8445093,30.4041448 20.976391,32.3834234 20.976391,34.7283357 C20.976391,36.9140421 21.7437216,38.8002258 23.2595691,40.3302203 C24.7767604,41.8534688 26.6272232,42.6400533 28.765267,42.6400533 C30.2246734,42.6400533 31.5738852,42.2852133 32.783338,41.5863269 C33.9927908,40.8941865 34.960353,39.9187138 35.6604918,38.6909405 C36.3565991,37.4523735 36.7086842,36.1139656 36.7086842,34.7013516 C36.7086842,33.2968329 36.3633183,31.9665202 35.6658671,30.7508896 C34.9697599,29.5352591 33.9927908,28.5597864 32.7483982,27.854154 C31.5066933,27.1458232 30.1642007,26.7923324 28.7545163,26.7923324 C26.8032658,26.7923324 25.0535907,27.4804252 23.556557,28.8296267 Z M38.4567168,21.5097588 L38.4567168,42.6400533 L41.952782,42.6400533 L41.952782,21.5097588 L38.4567168,21.5097588 Z M49.3032159,37.8941346 C48.4835217,37.0740629 48.070896,36.0060016 48.070896,34.6978232 C48.070896,33.4276962 48.489079,32.3688197 49.3157197,31.5513723 C50.1451391,30.7286764 51.1926805,30.3140482 52.4333362,30.3140482 C53.7059462,30.3140482 54.7618234,30.72474 55.5801283,31.5356269 C56.3942653,32.3425774 56.8110589,33.4067024 56.8110589,34.6978232 C56.8110589,35.9836956 56.3914866,37.0530691 55.5578993,37.8797013 C54.72848,38.7050214 53.6698241,39.1183375 52.4194431,39.1183375 C51.1676728,39.1183375 50.1187421,38.7050214 49.3032159,37.8941346 C49.3032159,37.8941346 50.1187421,38.7050214 49.3032159,37.8941346 Z M47.1545561,28.8296267 C45.4401137,30.4041448 44.5748308,32.3834234 44.5748308,34.7283357 C44.5748308,36.9140421 45.343374,38.8002258 46.8562754,40.3302203 C48.3732076,41.8534688 50.2220107,42.6400533 52.3650637,42.6400533 C53.8215335,42.6400533 55.1691713,42.2852133 56.3797611,41.5863269 C57.5836329,40.8941865 58.5523735,39.9187138 59.2523927,38.6909405 C59.9510682,37.4523735 60.3071241,36.1139656 60.3071241,34.7013516 C60.3071241,33.2968329 59.9550991,31.9665202 59.2591107,30.7508896 C58.5617787,29.5352591 57.5836329,28.5597864 56.3448273,27.854154 C55.1019909,27.1458232 53.7597276,26.7923324 52.3516276,26.7923324 C50.4047412,26.7923324 48.6540214,27.4804252 47.1545561,28.8296267 Z M68.9521181,27.2266681 C68.2748019,27.5060816 67.5047026,28.0303275 66.6590514,28.7703581 L66.5172259,28.898999 L66.5172259,27.1920873 L62.9291729,27.1920873 L62.9291729,42.6400533 L66.5172259,42.6400533 L66.5172259,36.458377 C66.5172259,34.8067947 66.5715702,33.7666022 66.6842354,33.2617215 C66.8989618,32.3128224 67.2886506,31.556193 67.8413725,31.0167314 C68.4020472,30.4745034 69.0820143,30.2006229 69.8640429,30.2006229 C70.4658072,30.2006229 70.9800904,30.3652278 71.3962886,30.6944377 C71.8018831,31.031947 72.0987888,31.5188456 72.2644728,32.145451 C72.4275059,32.7748228 72.5070342,33.9920694 72.5070342,35.8884843 L72.5070342,42.6400533 L76.0394173,42.6400533 L76.0394173,32.398583 C76.0394173,30.6335754 75.6112898,29.2766221 74.7629877,28.3872021 C73.7476761,27.3207281 72.5017323,26.7923324 71.0490149,26.7923324 C70.3359109,26.7923324 69.6334107,26.9375721 68.9521181,27.2266681 Z M79.5354825,26.7923324 L79.5354825,42.6400533 L83.0315476,42.6400533 L83.0315476,26.7923324 L79.5354825,26.7923324 Z M90.023678,34.686361 C90.023678,33.4152644 90.4346356,32.3555849 91.2565508,31.5397484 C92.0742868,30.7187238 93.1190943,30.3140482 94.3589325,30.3140482 C95.6252392,30.3140482 96.6895497,30.7070505 97.5184303,31.5202929 C98.3500971,32.3218619 98.7638409,33.3802444 98.7638409,34.6720936 C98.7638409,35.9924776 98.3500971,37.0729097 97.5184303,37.8887461 C96.6895497,38.7058797 95.6335976,39.1183375 94.3756494,39.1183375 C93.151135,39.1183375 92.1077206,38.6942063 91.2746608,37.8666965 C90.442994,37.0391867 90.023678,35.9665368 90.023678,34.686361 C90.023678,34.686361 90.023678,35.9665368 90.023678,34.686361 Z M88.6056427,29.0090705 C87.2248286,30.4945413 86.5276128,32.4185027 86.5276128,34.7472245 C86.5276128,36.9747562 87.2493401,38.8676859 88.6669214,40.3693471 C90.1022055,41.8737068 91.8098395,42.6400533 93.7612267,42.6400533 C94.624576,42.6400533 95.4429875,42.4875935 96.1878645,42.1718804 C96.9286563,41.8696592 97.6789803,41.3569626 98.4279426,40.6607747 L98.5763733,40.5110133 L98.5763733,42.250134 L102.259906,42.250134 L102.259906,27.1822516 L98.5763733,27.1822516 L98.5763733,28.9955785 L98.4238574,28.8296267 C97.7457061,28.1577243 96.9994673,27.6423294 96.2042055,27.298283 C95.4103055,26.9596334 94.553765,26.7923324 93.6468398,26.7923324 C91.6750263,26.7923324 89.9810098,27.5411392 88.6056427,29.0090705 Z M105.755971,21.5097588 L105.755971,42.6400533 L109.252036,42.6400533 L109.252036,21.5097588 L105.755971,21.5097588 Z M118.866216,20.6293298 L118.866216,42.6400533 L128.480395,42.6400533 L128.480395,38.891799 L122.672086,38.891799 L122.672086,20.6293298 L118.866216,20.6293298 Z M141.538925,21.3639482 C140.940718,21.8509111 140.580116,22.5257025 140.478085,23.3646701 C140.426371,23.7347619 140.387236,24.9591258 140.381645,27.00437 L140.381645,27.1017626 L138.96859,27.1017626 L138.96859,30.2489343 L140.381645,30.2489343 L140.381645,42.6400533 L144.165167,42.6400533 L144.165167,30.2489343 L146.667015,30.2489343 L146.667015,27.1017626 L144.165167,27.1017626 L144.174951,25.0384311 C144.174951,24.5528596 144.260209,24.2370293 144.432124,24.0756359 C144.673923,23.8613722 145.035922,23.7528491 145.518122,23.7528491 C145.863349,23.7528491 146.312004,23.8405024 146.834737,23.9824173 L146.834737,21.1677717 C145.843781,20.8143757 144.929698,20.6293298 144.140009,20.6293298 C143.023262,20.6293298 142.145518,20.8755939 141.538925,21.3639482 Z M155.643698,29.4336192 C156.663292,29.4336192 157.57556,29.670553 158.348856,30.1374177 C159.123527,30.6077838 159.64502,31.229881 159.909206,31.9710286 L159.944981,32.074906 L151.204818,32.074906 L151.266737,31.9616914 C151.709799,31.1411767 152.202397,30.5564287 152.721138,30.219119 C153.559103,29.7020664 154.545674,29.4336192 155.643698,29.4336192 C155.643698,29.4336192 154.545674,29.4336192 155.643698,29.4336192 Z M149.924626,29.0657369 C148.45542,30.5741442 147.708753,32.5048516 147.708753,34.7984941 C147.708753,37.0287242 148.45542,38.9162571 149.929988,40.401728 C151.397853,41.8845004 153.329536,42.6400533 155.680801,42.6400533 C157.190221,42.6400533 158.509289,42.3648162 159.605831,41.827834 C160.676903,41.3016454 161.597837,40.4840293 162.371315,39.3992713 C162.174259,39.3115732 159.42218,38.0122921 159.322982,37.9650701 C158.297487,38.9526856 157.066894,39.4559377 155.649969,39.4559377 C154.442164,39.4559377 153.430075,39.1307802 152.653916,38.4723698 C151.880438,37.8207055 151.387128,36.9261849 151.212861,35.8252365 L151.192754,35.7199988 L163.42362,35.7199988 C163.433003,35.581031 163.441046,35.079128 163.441046,35.079128 C163.441046,32.6019941 162.69706,30.5741442 161.219812,29.0657369 C159.754628,27.5559805 157.821604,26.7923324 155.460956,26.7923324 C153.257148,26.7923324 151.387128,27.5559805 149.924626,29.0657369 Z M131.97646,26.7923324 L131.97646,42.6400533 L135.472525,42.6400533 L135.472525,26.7923324 L131.97646,26.7923324 Z M166.554498,39.8773543 L166.835723,39.8773543 C167.161351,39.8773543 167.426294,39.765869 167.426294,39.4925007 C167.426294,39.2512036 167.256079,39.0923752 166.881607,39.0923752 C166.726193,39.0923752 166.616664,39.10612 166.554498,39.1229191 L166.554498,39.8773543 Z M166.541177,41.3556808 L165.947645,41.3556808 L165.947645,38.7212664 C166.180025,38.6907224 166.507134,38.6418521 166.927491,38.6418521 C167.410013,38.6418521 167.629072,38.7212664 167.800767,38.8495509 C167.956181,38.9625635 168.06423,39.1549903 168.06423,39.4115593 C168.06423,39.7337978 167.83185,39.9414966 167.535824,40.0392372 L167.535824,40.0697811 C167.784486,40.1507225 167.907336,40.3599485 167.987263,40.712731 C168.06423,41.1143837 168.126395,41.2579402 168.172279,41.3556808 L167.550625,41.3556808 C167.473658,41.2579402 167.426294,41.0334423 167.347847,40.712731 C167.303444,40.4393627 167.14655,40.309551 166.819441,40.309551 L166.541177,40.309551 L166.541177,41.3556808 L166.541177,41.3556808 L166.541177,41.3556808 L166.541177,41.3556808 Z M164.9678,39.9903669 C164.9678,41.163254 165.823314,42.0933168 166.958573,42.0933168 C168.06423,42.110116 168.903463,41.163254 168.903463,40.0056389 C168.903463,38.8342789 168.06423,37.8874169 166.927491,37.8874169 C165.823314,37.8874169 164.9678,38.8342789 164.9678,39.9903669 C164.9678,39.9903669 164.9678,38.8342789 164.9678,39.9903669 L164.9678,39.9903669 L164.9678,39.9903669 L164.9678,39.9903669 L164.9678,39.9903669 Z M169.55916,39.9903669 C169.55916,41.4671662 168.40762,42.6400533 166.943772,42.6400533 C165.481404,42.6400533 164.315063,41.4671662 164.315063,39.9903669 C164.315063,38.5135676 165.481404,37.3574797 166.958573,37.3574797 C168.40762,37.3574797 169.55916,38.5135676 169.55916,39.9903669 L169.55916,39.9903669 L169.55916,39.9903669 L169.55916,39.9903669 L169.55916,39.9903669 Z" id="logo-2" sketch:type="MSShapeGroup"></path>
            <path d="M79.0409305,17.1696739 C79.0409305,18.868232 80.4125009,20.2498656 82.0986874,20.2498656 C83.7887742,20.2498656 85.1590445,18.868232 85.1590445,17.1696739 C85.1590445,15.4632582 83.7887742,14.086863 82.0986874,14.086863 C80.4125009,14.086863 79.0409305,15.4632582 79.0409305,17.1696739 Z M93.9011209,16.7281498 C95.3438537,16.7281498 96.5212563,14.9476257 96.5212563,12.7682009 C96.5212563,10.5834926 95.3438537,8.80428937 93.9011209,8.80428937 C92.4532855,8.80428937 91.2771585,10.5834926 91.2771585,12.7682009 C91.2771585,14.9476257 92.4532855,16.7281498 93.9011209,16.7281498 Z M121.867729,4.40808907 C121.867729,6.83075474 122.847596,8.80428937 124.053394,8.80428937 C125.256695,8.80428937 126.23781,6.83075474 126.23781,4.40808907 C126.23781,1.97749755 125.301632,4.35207426e-14 124.099578,4.35207426e-14 C122.891284,4.35207426e-14 121.867729,1.97749755 121.867729,4.40808907 Z M102.63937,6.59843412 C102.63937,9.27003342 103.615241,11.4455762 104.821566,11.4455762 C106.029313,11.4455762 107.009452,9.27003342 107.009452,6.59843412 C107.009452,3.93093445 106.029313,1.76085787 104.821566,1.76085787 C103.615241,1.76085787 102.63937,3.93093445 102.63937,6.59843412 Z M131.481908,15.8483926 C131.481908,17.7869147 132.663755,19.3694366 134.107458,19.3694366 C135.55256,19.3694366 136.726006,17.7869147 136.726006,15.8483926 C136.726006,13.90181 135.55256,12.3260051 134.107458,12.3260051 C132.663755,12.3260051 131.481908,13.90181 131.481908,15.8483926 Z M112.25355,9.6854143 C112.25355,13.0233884 113.261576,15.8477209 114.439328,15.8477209 C115.627412,15.8477209 116.623631,13.0233884 116.623631,9.6854143 C116.623631,6.34187231 115.627412,3.52171575 114.439328,3.52171575 C113.261576,3.52171575 112.25355,6.34187231 112.25355,9.6854143 Z" id="logo-dots-2" sketch:type="MSShapeGroup"></path>
        </g>
    </g>
</svg>