<?xml version="1.0" encoding="UTF-8" standalone="no"?>
<svg width="151px" height="39px" viewBox="0 0 151 39" version="1.1" xmlns="http://www.w3.org/2000/svg" xmlns:xlink="http://www.w3.org/1999/xlink" xmlns:sketch="http://www.bohemiancoding.com/sketch/ns">
    <!-- Generator: Sketch 3.3.2 (12043) - http://www.bohemiancoding.com/sketch -->
    <title>colonial-life-full-color 2</title>
    <desc>Created with Sketch.</desc>
    <defs></defs>
    <g id="VDM-Landing-Page-2" stroke="none" stroke-width="1" fill="none" fill-rule="evenodd" sketch:type="MSPage">
        <g id="VDM1_max_desktopHD_youville" sketch:type="MSArtboardGroup" transform="translate(-224.000000, -1358.000000)">
            <g id="Footer" sketch:type="MSLayerGroup" transform="translate(0.000000, 1318.000000)">
                <g id="colonial-life-full-color-2-+-©-2015-Colonial-Life" transform="translate(224.000000, 40.000000)" sketch:type="MSShapeGroup">
                    <g id="colonial-life-full-color-2" transform="translate(0.750000, 0.492105)">
                        <path d="M15.423134,24.2432121 C13.7531338,22.4651213 11.8516604,21.5575284 9.76718998,21.5575284 C7.98811867,21.5575284 6.46354666,22.1930907 5.23952621,23.4320664 C4.01792956,24.6796976 3.39864792,26.2376909 3.39864792,28.0602958 C3.39864792,29.3277111 3.67011385,30.476422 4.21304569,31.4582051 C4.75718943,32.4535898 5.53401826,33.2325864 6.52171793,33.7939586 C7.50456999,34.3503848 8.62194312,34.63849 9.83142075,34.63849 C10.861537,34.63849 11.8153034,34.4381765 12.6696939,34.0499147 C13.5034821,33.6604164 14.4317986,32.9494273 15.4207102,31.9565157 C15.521298,32.0616184 17.5924376,34.2712487 17.7039325,34.3775879 C16.3720528,35.6944632 15.0947087,36.6206037 13.9082572,37.1337523 C12.7024153,37.6555564 11.3087286,37.9263505 9.77203758,37.9263505 C6.93012871,37.9263505 4.56934471,36.9866085 2.76239967,35.1516386 C0.949395119,33.3117226 0.0356214356,30.928982 0.0356214356,28.0504038 C0.0356214356,26.1894673 0.450091727,24.5164792 1.2729728,23.0710076 C2.09948958,21.632955 3.2968482,20.449622 4.83111542,19.5655226 C6.37265405,18.6888422 8.05234944,18.2461743 9.82172554,18.2461743 C11.3293309,18.2461743 12.8030031,18.5738475 14.1991135,19.2242479 C15.5746217,19.8647562 16.7683446,20.7871872 17.7730109,21.9606282 L15.423134,24.2432121 Z M22.7138545,33.6829408 C21.9979501,32.9497003 21.6289651,31.9947278 21.6289651,30.8250625 C21.6289651,29.6894195 22.0016277,28.7426593 22.727339,28.0117652 C23.4591796,27.2761782 24.3847067,26.9054518 25.4818547,26.9054518 C26.5986165,26.9054518 27.5376281,27.2726587 28.25721,27.9976869 C28.9792438,28.7191956 29.3408735,29.6706486 29.3408735,30.8250625 C29.3408735,31.9747837 28.9718886,32.9309293 28.2326928,33.6700358 C27.5045297,34.4079691 26.5728733,34.7775223 25.4671443,34.7775223 C24.3626411,34.7775223 23.437114,34.4079691 22.7138545,33.6829408 C22.7138545,33.6829408 23.437114,34.4079691 22.7138545,33.6829408 Z M20.8208187,25.5782044 C19.3101885,26.9860089 18.5442017,28.7557168 18.5442017,30.8523442 C18.5442017,32.8066229 19.2212581,34.493093 20.5587706,35.8610881 C21.8974689,37.2230515 23.5302302,37.9263505 25.4167394,37.9263505 C26.7044509,37.9263505 27.8949319,37.6090818 28.9620961,36.9841952 C30.0292603,36.3653403 30.8829917,35.4931529 31.5007613,34.3953791 C32.1149736,33.2879545 32.4256369,32.0912604 32.4256369,30.8282173 C32.4256369,29.5724123 32.1209022,28.3829562 31.5055042,27.2960395 C30.8912919,26.2091228 30.0292603,25.3369354 28.9312669,24.706017 C27.835645,24.072686 26.6510927,23.7566236 25.4072535,23.7566236 C23.6855618,23.7566236 22.1417309,24.3718595 20.8208187,25.5782044 Z M33.9680186,19.0333813 L33.9680186,37.9263505 L37.052782,37.9263505 L37.052782,19.0333813 L33.9680186,19.0333813 Z M43.538459,33.6829408 C42.8151994,32.9497003 42.4511179,31.9947278 42.4511179,30.8250625 C42.4511179,29.6894195 42.8201029,28.7426593 43.5494918,28.0117652 C44.2813324,27.2761782 45.2056336,26.9054518 46.3003299,26.9054518 C47.423221,26.9054518 48.3548774,27.2726587 49.0769111,27.9976869 C49.7952672,28.7191956 50.1630264,29.6706486 50.1630264,30.8250625 C50.1630264,31.9747837 49.7928155,32.9309293 49.0572973,33.6700358 C48.3254567,34.4079691 47.3913486,34.7775223 46.2880712,34.7775223 C45.1835681,34.7775223 44.258041,34.4079691 43.538459,33.6829408 C43.538459,33.6829408 44.258041,34.4079691 43.538459,33.6829408 Z M41.6425827,25.5782044 C40.1298394,26.9860089 39.3663545,28.7557168 39.3663545,30.8523442 C39.3663545,32.8066229 40.0444808,34.493093 41.3793938,35.8610881 C42.7178634,37.2230515 44.3491602,37.9263505 46.2400894,37.9263505 C47.5252099,37.9263505 48.714302,37.6090818 49.7824695,36.9841952 C50.8447093,36.3653403 51.6994804,35.4931529 52.3171444,34.3953791 C52.9336228,33.2879545 53.2477897,32.0912604 53.2477897,30.8282173 C53.2477897,29.5724123 52.9371794,28.3829562 52.323072,27.2960395 C51.7077791,26.2091228 50.8447093,25.3369354 49.7516455,24.706017 C48.6550252,24.072686 47.4706752,23.7566236 46.228234,23.7566236 C44.5103931,23.7566236 42.9656403,24.3718595 41.6425827,25.5782044 Z M60.8757256,24.1449709 C60.2780937,24.3947993 59.5985943,24.8635369 58.8524315,25.5252113 L58.7272913,25.6402314 L58.7272913,24.1140515 L55.5613623,24.1140515 L55.5613623,37.9263505 L58.7272913,37.9263505 L58.7272913,32.3992047 C58.7272913,30.9224958 58.7752422,29.9924413 58.8746526,29.5410186 C59.0641172,28.6925912 59.4079602,28.0160754 59.895656,27.5337333 C60.3903689,27.0489177 60.99034,26.8040363 61.6803652,26.8040363 C62.2113337,26.8040363 62.6651129,26.9512125 63.0323467,27.2455648 C63.3902241,27.5473379 63.6521998,27.9826825 63.7983916,28.5429414 C63.9422443,29.1056739 64.0124163,30.1940356 64.0124163,31.8896536 L64.0124163,37.9263505 L67.1292249,37.9263505 L67.1292249,28.7692712 C67.1292249,27.1911468 66.7514654,25.9778709 66.0029635,25.1826248 C65.1071003,24.2290715 64.0077382,23.7566236 62.7259287,23.7566236 C62.0967193,23.7566236 61.4768662,23.886485 60.8757256,24.1449709 Z M70.2139883,23.7566236 L70.2139883,37.9263505 L73.2987517,37.9263505 L73.2987517,23.7566236 L70.2139883,23.7566236 Z M79.4682785,30.8148139 C79.4682785,29.678304 79.8308881,28.7308259 80.5561074,28.0013721 C81.2776392,27.2672795 82.1995282,26.9054518 83.2935031,26.9054518 C84.4108325,26.9054518 85.34993,27.2568421 86.0812953,27.9839765 C86.8151189,28.7006736 87.1801869,29.646992 87.1801869,30.8020571 C87.1801869,31.9826358 86.8151189,32.9486692 86.0812953,33.678123 C85.34993,34.4087365 84.4182076,34.7775223 83.3082533,34.7775223 C82.2277994,34.7775223 81.3071396,34.3982991 80.5720868,33.658408 C79.8382632,32.9185169 79.4682785,31.9594417 79.4682785,30.8148139 C79.4682785,30.8148139 79.4682785,31.9594417 79.4682785,30.8148139 Z M78.2170709,25.7386483 C76.9987055,27.066834 76.3835151,28.7870817 76.3835151,30.869233 C76.3835151,32.8609084 77.0203333,34.5534103 78.2711403,35.8960721 C79.5375675,37.2411466 81.0443034,37.9263505 82.7661156,37.9263505 C83.5278944,37.9263505 84.2500222,37.7900335 84.9072666,37.5077488 C85.5609064,37.2375276 86.222957,36.7791165 86.8838061,36.1566426 L87.0147744,36.0227383 L87.0147744,37.5777169 L90.2649503,37.5777169 L90.2649503,24.1052573 L87.0147744,24.1052573 L87.0147744,25.7265848 L86.8802015,25.5782044 C86.2818327,24.9774446 85.6233867,24.5166209 84.9216851,24.209003 C84.2211851,23.9062104 83.4654141,23.7566236 82.6651859,23.7566236 C80.9253505,23.7566236 79.4306301,24.426145 78.2170709,25.7386483 Z M93.3497137,19.0333813 L93.3497137,37.9263505 L96.434477,37.9263505 L96.434477,19.0333813 L93.3497137,19.0333813 Z M104.917576,18.2461743 L104.917576,37.9263505 L113.400676,37.9263505 L113.400676,34.5749703 L108.275697,34.5749703 L108.275697,18.2461743 L104.917576,18.2461743 Z M124.922908,18.9030095 C124.395078,19.3384116 124.0769,19.9417546 123.986873,20.6918902 C123.941243,21.0227959 123.906712,22.1175212 123.901779,23.9462101 L123.901779,24.0332906 L122.654966,24.0332906 L122.654966,26.8472323 L123.901779,26.8472323 L123.901779,37.9263505 L127.24018,37.9263505 L127.24018,26.8472323 L129.447694,26.8472323 L129.447694,24.0332906 L127.24018,24.0332906 L127.248813,22.1884296 C127.248813,21.7542714 127.324041,21.471882 127.475731,21.3275773 C127.689083,21.1360004 128.008494,21.0389679 128.433964,21.0389679 C128.738576,21.0389679 129.134449,21.1173403 129.595683,21.2442289 L129.595683,18.7276046 C128.721311,18.4116271 127.914767,18.2461743 127.217982,18.2461743 C126.232617,18.2461743 125.458138,18.4663633 124.922908,18.9030095 Z M137.368296,26.6 C138.267938,26.6 139.072881,26.8118467 139.7552,27.2292786 C140.438734,27.6498413 140.898874,28.2060694 141.13198,28.8687425 L141.163546,28.9616211 L133.451638,28.9616211 L133.506272,28.8603939 C133.897209,28.1267573 134.331854,27.6039238 134.789566,27.3023292 C135.528948,26.8400234 136.399451,26.6 137.368296,26.6 C137.368296,26.6 136.399451,26.6 137.368296,26.6 Z M130.366874,30.9150741 C130.366874,32.9091622 131.025698,34.5968387 132.326787,35.9250244 C133.621962,37.2507974 135.326388,37.9263505 137.401034,37.9263505 C138.732876,37.9263505 139.896759,37.6802562 140.864296,37.2001309 C141.809359,36.7296564 142.621948,35.9986114 143.304429,35.0287101 C143.130556,34.9502977 140.702251,33.7885876 140.614723,33.7463655 C139.709875,34.62941 138.624057,35.0793766 137.373829,35.0793766 C136.308119,35.0793766 135.415099,34.7886475 134.730253,34.1999512 C134.047773,33.6172866 133.612499,32.81748 133.458734,31.8331026 L133.440992,31.7390077 L144.232933,31.7390077 C144.241213,31.6147541 144.248309,31.1659938 144.248309,31.1659938 C144.248309,28.9511447 143.591851,27.1380083 142.288397,25.7893147 C140.995587,24.4394148 139.289978,23.7566236 137.207053,23.7566236 C135.262517,23.7566236 133.612499,24.4394148 132.322056,25.7893147 C131.025698,27.1380083 130.366874,28.8642878 130.366874,30.9150741 Z M116.485439,23.7566236 L116.485439,37.9263505 L119.570202,37.9263505 L119.570202,23.7566236 L116.485439,23.7566236 Z M146.995473,35.4561726 L147.243612,35.4561726 C147.530931,35.4561726 147.764705,35.3564916 147.764705,35.1120682 C147.764705,34.8963203 147.614515,34.7543089 147.284098,34.7543089 C147.146968,34.7543089 147.050325,34.7665984 146.995473,34.7816188 L146.995473,35.4561726 Z M146.983719,36.7779704 L146.460014,36.7779704 L146.460014,34.422494 C146.665056,34.3951841 146.953681,34.3514883 147.324584,34.3514883 C147.750339,34.3514883 147.943626,34.422494 148.095122,34.5371954 C148.232251,34.638242 148.327589,34.8102942 148.327589,35.0396971 C148.327589,35.3278162 148.122548,35.5135234 147.861348,35.6009149 L147.861348,35.6282248 C148.080756,35.700596 148.189153,35.8876686 148.259677,36.2030976 C148.327589,36.5622224 148.382441,36.6905788 148.422927,36.7779704 L147.874408,36.7779704 C147.806496,36.6905788 147.764705,36.4898513 147.695487,36.2030976 C147.656307,35.9586743 147.517871,35.8426073 147.229246,35.8426073 L146.983719,35.8426073 L146.983719,36.7779704 L146.983719,36.7779704 L146.983719,36.7779704 L146.983719,36.7779704 Z M145.595445,35.5572192 C145.595445,36.6059182 146.350311,37.4375038 147.35201,37.4375038 C148.327589,37.4525242 149.068089,36.6059182 149.068089,35.5708741 C149.068089,34.5235405 148.327589,33.6769345 147.324584,33.6769345 C146.350311,33.6769345 145.595445,34.5235405 145.595445,35.5572192 C145.595445,35.5572192 145.595445,34.5235405 145.595445,35.5572192 L145.595445,35.5572192 L145.595445,35.5572192 L145.595445,35.5572192 L145.595445,35.5572192 Z M149.646645,35.5572192 C149.646645,36.8776514 148.63058,37.9263505 147.33895,37.9263505 C146.048625,37.9263505 145.0195,36.8776514 145.0195,35.5572192 C145.0195,34.2367869 146.048625,33.2031082 147.35201,33.2031082 C148.63058,33.2031082 149.646645,34.2367869 149.646645,35.5572192 L149.646645,35.5572192 L149.646645,35.5572192 L149.646645,35.5572192 L149.646645,35.5572192 Z" id="logo" fill="#265B80"></path>
                        <path d="M69.4427975,15.4921205 C69.4427975,17.0108313 70.6530067,18.2461743 72.1408183,18.2461743 C73.6320713,18.2461743 74.8411334,17.0108313 74.8411334,15.4921205 C74.8411334,13.9663841 73.6320713,12.7357249 72.1408183,12.7357249 C70.6530067,12.7357249 69.4427975,13.9663841 69.4427975,15.4921205 Z M82.5547302,15.0973461 C83.8277297,15.0973461 84.8666144,13.5053481 84.8666144,11.5566859 C84.8666144,9.60329961 83.8277297,8.01248262 82.5547302,8.01248262 C81.2772284,8.01248262 80.2394693,9.60329961 80.2394693,11.5566859 C80.2394693,13.5053481 81.2772284,15.0973461 82.5547302,15.0973461 Z M107.231149,4.08176235 C107.231149,6.24791048 108.095737,8.01248262 109.159677,8.01248262 C110.221413,8.01248262 111.087103,6.24791048 111.087103,4.08176235 C111.087103,1.90852759 110.261063,0.140412126 109.200428,0.140412126 C108.134286,0.140412126 107.231149,1.90852759 107.231149,4.08176235 Z M90.2649503,6.04018851 C90.2649503,8.4289126 91.126013,10.3741038 92.190417,10.3741038 C93.2560762,10.3741038 94.1209045,8.4289126 94.1209045,6.04018851 C94.1209045,3.65512999 93.2560762,1.71482623 92.190417,1.71482623 C91.126013,1.71482623 90.2649503,3.65512999 90.2649503,6.04018851 Z M115.714248,14.3107396 C115.714248,16.0440065 116.757055,17.4589672 118.03091,17.4589672 C119.306,17.4589672 120.341393,16.0440065 120.341393,14.3107396 C120.341393,12.5702658 119.306,11.1613108 118.03091,11.1613108 C116.757055,11.1613108 115.714248,12.5702658 115.714248,14.3107396 Z M98.7480496,8.80031197 C98.7480496,11.7848535 99.6374845,14.310139 100.676678,14.310139 C101.724987,14.310139 102.604004,11.7848535 102.604004,8.80031197 C102.604004,5.81079208 101.724987,3.28924033 100.676678,3.28924033 C99.6374845,3.28924033 98.7480496,5.81079208 98.7480496,8.80031197 Z" id="logo-dots" fill="#5B7183"></path>
                    </g>
                </g>
            </g>
        </g>
    </g>
</svg>