<?xml version="1.0" encoding="UTF-8" standalone="no"?>
<svg width="43px" height="48px" viewBox="0 0 43 48" version="1.1" xmlns="http://www.w3.org/2000/svg" xmlns:xlink="http://www.w3.org/1999/xlink" xmlns:sketch="http://www.bohemiancoding.com/sketch/ns">
    <!-- Generator: Sketch 3.3.2 (12043) - http://www.bohemiancoding.com/sketch -->
    <title>criticalillness</title>
    <desc>Created with Sketch.</desc>
    <defs></defs>
    <g id="VDM-Landing-Page-2" stroke="none" stroke-width="1" fill="none" fill-rule="evenodd" sketch:type="MSPage">
        <g id="VDM1_max_tablet-Copy" sketch:type="MSArtboardGroup" transform="translate(-267.000000, -998.000000)" fill="#FFFFFF">
            <g id="You-Have-Options-Copy" sketch:type="MSLayerGroup" transform="translate(0.000000, 829.000000)">
                <g id="Group-Copy" transform="translate(84.000000, 99.000000)" sketch:type="MSShapeGroup">
                    <g id="Group" transform="translate(0.000000, 70.000000)">
                        <g id="Shape-+-Critical-Illness" transform="translate(180.000000, 0.500000)">
                            <path d="M41.1256514,26.8648267 C38.7193316,26.8648267 36.7683744,28.8152617 36.7683744,31.2221037 C36.7683744,32.9688788 37.7965957,34.4749175 39.2801795,35.1694499 C37.6712665,39.8656378 33.5797918,44.7680966 28.7890848,44.7680966 C22.9111474,44.7680966 18.0849305,37.3882982 17.6065909,32.0638979 C18.5914692,31.6785107 19.3685099,30.8126951 19.7063765,29.7238981 C22.7993956,28.4627735 25.6548115,25.3723654 27.8271835,20.8286613 C28.1143962,20.2276035 28.0485984,19.5497817 27.7143873,19.0265324 C29.095619,15.6666667 29.9034699,11.9746786 29.9034699,8.79601791 C29.9034699,3.46482895 29.5405375,1.18906036 25.8788374,0.552492695 C25.6067687,0.215670589 25.1905714,0 24.7231981,0 L21.5492372,0 C20.7283313,0 20.0625201,0.665288935 20.0625201,1.48671711 C20.0625201,1.48932813 20.0630423,1.49193916 20.0630423,1.49455018 C20.06722,2.31180072 20.7309423,2.97343422 21.5492372,2.97343422 L24.7231981,2.97343422 C25.0140662,2.97343422 25.2845683,2.88883704 25.5138162,2.74470851 C26.5060054,2.91285846 26.8877371,3.20163772 27.1112407,3.58702488 C27.5843583,4.40427541 27.6736553,6.04817617 27.6736553,8.79654012 C27.6736553,11.7234981 26.9169805,15.1381954 25.6260902,18.2468807 C25.1378287,18.390487 24.710143,18.7309645 24.4735842,19.2260147 C22.2526471,23.8720709 19.2901792,26.6460229 16.5496483,26.6460229 C13.7548082,26.6460229 10.6487339,23.6537893 8.443463,18.8374943 C8.18183838,18.2651578 7.66537782,17.890737 7.09043032,17.7847294 C5.91442507,14.8029399 5.23033677,11.5793696 5.23033677,8.79706232 C5.23033677,6.10457429 5.33060009,4.38443163 5.84340522,3.56039243 C6.08623046,3.17030543 6.49877226,2.88048176 7.57816962,2.72016488 C7.81577281,2.88100397 8.10194105,2.97447863 8.41004189,2.97447863 L11.5840028,2.97447863 C12.4043865,2.97447863 13.0691533,2.31075631 13.0707199,1.49089475 L13.0707199,1.48776152 C13.0707199,0.666333344 12.4054309,0.00104440963 11.5840028,0.00104440963 L8.41004189,0.00104440963 C7.96407898,0.00104440963 7.5651145,0.197915625 7.29304579,0.509149695 C5.81102852,0.726386898 4.6705332,1.2250925 3.94989056,2.38177616 C3.14673955,3.67214426 3,5.55469262 3,8.79706232 C3,11.8989589 3.77077431,15.489117 5.09090808,18.783185 C4.84964946,19.2683133 4.82040599,19.8542271 5.06375343,20.3853094 C6.33949979,23.1717943 7.94632401,25.5431263 9.71033188,27.2434252 C10.8080064,28.30089 11.9720009,29.0977745 13.1662833,29.6225904 C13.4937058,30.7871071 14.320356,31.7108874 15.3710321,32.0931413 C15.6023688,35.1616168 17.0175439,38.6885882 19.1810384,41.5064053 C21.9012033,45.0485206 25.3132896,47 28.7890848,47 C32.2643579,47 35.6769663,45.0490428 38.396609,41.5064053 C39.7741853,39.7121096 40.8473162,37.6311234 41.5058165,35.5637145 C43.7340644,35.371021 45.4829283,33.5025721 45.4829283,31.2236703 C45.4829283,28.8152617 43.5319712,26.8648267 41.1256514,26.8648267 L41.1256514,26.8648267 Z M41.9784118,33.7412197 C41.6917214,33.8430497 41.3836205,33.8994478 41.0624646,33.8994478 C40.5804695,33.8994478 40.1287624,33.7741186 39.7360644,33.5542704 C38.9052365,33.0889859 38.3433441,32.2001933 38.3433441,31.1803273 C38.3433441,29.6784663 39.5606035,28.4612068 41.0624646,28.4612068 C42.5643256,28.4612068 43.7815851,29.6784663 43.7815851,31.1803273 C43.7821073,32.3605102 43.0296101,33.3647101 41.9784118,33.7412197 L41.9784118,33.7412197 Z" id="criticalillness"></path>
                        </g>
                    </g>
                </g>
            </g>
        </g>
    </g>
</svg>