<?xml version="1.0" encoding="UTF-8" standalone="no"?>
<svg width="32px" height="41px" viewBox="0 0 32 41" version="1.1" xmlns="http://www.w3.org/2000/svg" xmlns:xlink="http://www.w3.org/1999/xlink" xmlns:sketch="http://www.bohemiancoding.com/sketch/ns">
    <!-- Generator: Sketch 3.3.2 (12043) - http://www.bohemiancoding.com/sketch -->
    <title>dental-tooth</title>
    <desc>Created with Sketch.</desc>
    <defs></defs>
    <g id="VDM-Landing-Page-2" stroke="none" stroke-width="1" fill="none" fill-rule="evenodd" sketch:type="MSPage">
        <g id="VDM1_max_tablet-Copy" sketch:type="MSArtboardGroup" transform="translate(-355.000000, -998.000000)" fill="#FFFFFF">
            <g id="You-Have-Options-Copy" sketch:type="MSLayerGroup" transform="translate(0.000000, 829.000000)">
                <g id="Group-Copy" transform="translate(84.000000, 99.000000)" sketch:type="MSShapeGroup">
                    <g id="Group" transform="translate(0.000000, 70.000000)">
                        <g id="Dental-+-dental-tooth" transform="translate(265.000000, 0.500000)">
                            <path d="M23.1992796,2.75864572 C19.0039926,2.5565215 16.6999328,-1.73825641 11.6211739,0.800115077 C6,3.60959351 6,8.63906161 6,9.09396171 C6,15.943995 9.74921559,16.4727018 9.4640382,22.1244616 C8.76506456,35.995779 14.4845091,40.5129418 17.68023,39.893062 C22.0050993,39.0546566 13.4146121,24.4119868 22.0956624,24.4119868 C30.7767126,24.4119868 21.8745536,38.6132636 26.0693588,39.8935444 C29.3946621,40.9085071 35.0972464,34.9919115 34.2855507,22.124944 C33.9290789,16.4770433 37.7495889,15.9444774 37.7495889,9.0944441 C37.7495889,7.70658877 37.9003668,3.69208335 32.4270804,1.29023013 C26.9537941,-1.11162308 26.5313269,9.04089807 18.4562786,5.93233367 C18.4562786,5.93233367 17.7178041,5.83778392 17.404687,5.34477448 C21.28493,5.33657374 23.1992796,2.75864572 23.1992796,2.75864572 L23.1992796,2.75864572 Z" id="dental-tooth"></path>
                        </g>
                    </g>
                </g>
            </g>
        </g>
    </g>
</svg>