<?xml version="1.0" encoding="UTF-8" standalone="no"?>
<svg width="32px" height="41px" viewBox="0 0 32 41" version="1.1" xmlns="http://www.w3.org/2000/svg" xmlns:xlink="http://www.w3.org/1999/xlink" xmlns:sketch="http://www.bohemiancoding.com/sketch/ns">
    <!-- Generator: Sketch 3.3.2 (12043) - http://www.bohemiancoding.com/sketch -->
    <title>dental-tooth</title>
    <desc>Created with Sketch.</desc>
    <defs></defs>
    <g id="VDM-Landing-Page-2" stroke="none" stroke-width="1" fill="none" fill-rule="evenodd" sketch:type="MSPage">
        <g id="VDM2_max_tablet_youville" sketch:type="MSArtboardGroup" transform="translate(-359.000000, -1235.000000)" fill="#3498B3">
            <g id="You-Have-Options-Copy-5" sketch:type="MSLayerGroup" transform="translate(-336.000000, 930.000000)">
                <g id="Rectangle-76-+-You-are-already-elig-+-You-are-already-elig" transform="translate(420.000000, 49.500000)" sketch:type="MSShapeGroup">
                    <g id="Group" transform="translate(19.000000, 255.500000)">
                        <g id="Dental-+-dental-tooth" transform="translate(249.000000, 0.500000)">
                            <path d="M24.1992796,2.75864572 C20.0039926,2.5565215 17.6999328,-1.73825641 12.6211739,0.800115077 C7,3.60959351 7,8.63906161 7,9.09396171 C7,15.943995 10.7492156,16.4727018 10.4640382,22.1244616 C9.76506456,35.995779 15.4845091,40.5129418 18.68023,39.893062 C23.0050993,39.0546566 14.4146121,24.4119868 23.0956624,24.4119868 C31.7767126,24.4119868 22.8745536,38.6132636 27.0693588,39.8935444 C30.3946621,40.9085071 36.0972464,34.9919115 35.2855507,22.124944 C34.9290789,16.4770433 38.7495889,15.9444774 38.7495889,9.0944441 C38.7495889,7.70658877 38.9003668,3.69208335 33.4270804,1.29023013 C27.9537941,-1.11162308 27.5313269,9.04089807 19.4562786,5.93233367 C19.4562786,5.93233367 18.7178041,5.83778392 18.404687,5.34477448 C22.28493,5.33657374 24.1992796,2.75864572 24.1992796,2.75864572 L24.1992796,2.75864572 Z" id="dental-tooth"></path>
                        </g>
                    </g>
                </g>
            </g>
        </g>
    </g>
</svg>