<?xml version="1.0" encoding="UTF-8" standalone="no"?>
<svg width="34px" height="41px" viewBox="0 0 34 41" version="1.1" xmlns="http://www.w3.org/2000/svg" xmlns:xlink="http://www.w3.org/1999/xlink" xmlns:sketch="http://www.bohemiancoding.com/sketch/ns">
    <!-- Generator: Sketch 3.3.2 (12043) - http://www.bohemiancoding.com/sketch -->
    <title>disability</title>
    <desc>Created with Sketch.</desc>
    <defs>
        <path id="path-1" d="M9.04251701,22.4906463 C9.07823129,23.0340136 9.55187075,23.4736395 10.0977891,23.4736395 L21.1819728,23.4736395 C21.5467687,23.4736395 21.9472789,23.7627551 22.0909864,24.085034 L26.5263605,35.4651361 C26.6343537,35.6845238 26.8180272,35.9039116 27.0714286,36.0119048 C27.3265306,36.0816327 27.579932,36.1232993 27.8367347,36.0119048 L33.3596939,33.7219388 C33.6122449,33.6505102 33.7959184,33.4311224 33.9047619,33.2134354 C34.0136054,32.957483 34.0136054,32.6666667 33.9047619,32.4498299 L33.502551,31.4319728 C33.3945578,31.1794218 33.212585,30.9965986 32.960034,30.8869048 C32.7066327,30.8137755 32.4489796,30.8137755 32.1955782,30.9234694 L29.7244898,32.087585 C29.579932,32.162415 29.4336735,32.162415 29.287415,32.122449 C29.1403061,32.047619 29.0323129,31.9430272 28.962585,31.795068 L24.4897959,21.289966 C24.2721088,20.8163265 23.6913265,20.4532313 23.1836735,20.4532313 L12.8231293,20.4532313 C12.457483,20.4532313 12.167517,20.1641156 12.167517,19.8367347 L12.0952381,18.7823129 C12.0952381,18.6377551 12.1309524,18.4897959 12.2397959,18.3818027 C12.3494898,18.2738095 12.494898,18.2006803 12.6411565,18.2006803 L19.9098639,18.2006803 C20.1666667,18.2006803 20.4183673,18.0909864 20.6011905,17.9098639 C20.8205782,17.7270408 20.8928571,17.4727891 20.8928571,17.2202381 L20.8928571,15.6190476 C20.8928571,15.3282313 20.8205782,15.0739796 20.6011905,14.8928571 C20.4183673,14.7117347 20.1666667,14.6003401 19.9098639,14.6003401 L12.494898,14.6003401 C12.167517,14.6003401 11.8401361,14.3112245 11.8035714,13.9821429 L11.2602041,7.9829932 C11.2227891,7.65901361 11.1845238,7.43962585 11.1505102,7.29166667 C12.0578231,7.25510204 12.8562925,6.89455782 13.5119048,6.23894558 C14.1658163,5.58418367 14.5646259,4.67602041 14.5646259,3.69472789 C14.5646259,2.75 14.164966,1.83928571 13.5119048,1.18877551 C12.8231293,0.495748299 11.9158163,0.136054422 10.9693878,0.136054422 C9.00595238,0.136054422 7.36989796,1.73554422 7.36989796,3.69727891 L7.36989796,3.98979592 L7.40561224,4.02465986 C7.44472789,4.31462585 9.04251701,22.4906463 9.04251701,22.4906463 L9.04251701,22.4906463 Z"></path>
        <path id="path-2" d="M8.71343537,1.44642857 C9.33418367,0.861394558 10.1343537,0.534863946 10.9693878,0.534863946 C11.8035714,0.534863946 12.6411565,0.862244898 13.2236395,1.44642857 C13.8392857,2.06292517 14.1658163,2.86139456 14.1658163,3.69642857 C14.1658163,5.47704082 12.712585,6.89710884 10.9685374,6.89710884 L10.9319728,6.89710884 C10.8222789,6.89710884 10.7482993,6.96683673 10.7117347,7.04166667 C10.6760204,7.11309524 10.6760204,7.18622449 10.7482993,7.25765306 C10.7482993,7.33248299 10.8222789,7.62159864 10.8579932,8.02295918 L11.4039116,14.0238095 C11.4753401,14.5654762 11.9489796,15.005102 12.4940476,15.005102 L19.9090136,15.005102 C20.0552721,15.005102 20.2355442,15.0748299 20.3469388,15.1845238 C20.4540816,15.292517 20.4923469,15.4370748 20.4923469,15.619898 L20.4923469,17.2210884 C20.4923469,17.5484694 20.2355442,17.8010204 19.9090136,17.8010204 L12.6403061,17.8010204 C12.3852041,17.8010204 12.130102,17.9107143 11.9489796,18.0918367 C11.7678571,18.2746599 11.6938776,18.5272109 11.6938776,18.8188776 L11.7678571,19.8367347 C11.8035714,20.380102 12.2772109,20.8163265 12.8222789,20.8163265 L23.1828231,20.8163265 C23.5467687,20.8163265 23.9804422,21.1088435 24.127551,21.4345238 L28.5969388,31.9421769 C28.7066327,32.1930272 28.8886054,32.377551 29.1403061,32.4855442 C29.3996599,32.5586735 29.6522109,32.5586735 29.9039116,32.4489796 L32.3758503,31.2865646 C32.4855442,31.2134354 32.670068,31.2134354 32.8137755,31.2865646 C32.960034,31.3248299 33.0688776,31.4311224 33.1403061,31.577381 L33.539966,32.5969388 C33.6122449,32.7414966 33.6122449,32.8843537 33.539966,33.0306122 C33.4685374,33.1751701 33.3596939,33.3248299 33.212585,33.3596939 L27.6887755,35.6479592 C27.545068,35.6845238 27.3622449,35.6845238 27.2168367,35.6113946 C27.0705782,35.5765306 26.9617347,35.4651361 26.9243197,35.3205782 L22.454932,23.9438776 C22.2721088,23.4353741 21.7261905,23.0722789 21.1811224,23.0722789 L10.0977891,23.0722789 C9.76785714,23.0722789 9.44047619,22.7797619 9.44047619,22.452381 C9.44047619,22.452381 7.84438776,4.2797619 7.77210884,3.98894558 L7.77210884,3.69642857 C7.77210884,2.86139456 8.1335034,2.06207483 8.71343537,1.44642857 L8.71343537,1.44642857 Z"></path>
        <path id="path-3" d="M3.73639456,36.1921769 C6.09863946,38.5552721 9.26020408,39.8639456 12.6420068,39.8639456 C17.5841837,39.8639456 22.0918367,36.9540816 24.1292517,32.4846939 L24.1658163,32.3767007 L22.2738095,28.3792517 L22.1258503,28.9957483 C21.2942177,33.6496599 17.2933673,36.9940476 12.5680272,36.9940476 C9.95238095,36.9940476 7.51530612,35.9778912 5.69812925,34.1556122 C3.84438776,32.3035714 2.82738095,29.8690476 2.82738095,27.2517007 C2.82738095,23.8367347 4.68027211,20.6020408 7.62670068,18.8545918 L7.73639456,18.8180272 L7.58673469,15.6921769 L7.33588435,15.8001701 C5.19217687,16.8197279 3.37244898,18.3809524 2.06377551,20.3792517 C0.718537415,22.452381 0.0280612245,24.8154762 0.0280612245,27.2517007 C0.0272108844,30.6335034 1.33418367,33.7942177 3.73639456,36.1921769 L3.73639456,36.1921769 Z"></path>
        <path id="path-4" d="M7.22363946,16.3103741 L7.33503401,18.6020408 C4.31462585,20.4192177 2.42602041,23.7270408 2.42602041,27.2517007 C2.42602041,29.9787415 3.47959184,32.5229592 5.40646259,34.4115646 C7.33588435,36.3401361 9.87840136,37.3928571 12.5680272,37.3928571 C17.2942177,37.3928571 21.3290816,34.1556122 22.4209184,29.6505102 L23.7270408,32.377551 C21.7270408,36.702381 17.4030612,39.4642857 12.6420068,39.4642857 C9.37159864,39.4642857 6.31717687,38.1938776 4.0255102,35.9030612 C1.69982993,33.5748299 0.427721088,30.5221088 0.427721088,27.2517007 C0.426870748,22.6352041 3.08078231,18.3818027 7.22363946,16.3103741 L7.22363946,16.3103741 Z"></path>
    </defs>
    <g id="VDM-Landing-Page-2" stroke="none" stroke-width="1" fill="none" fill-rule="evenodd" sketch:type="MSPage">
        <g id="VDM1_max_tablet-Copy" sketch:type="MSArtboardGroup" transform="translate(-443.000000, -998.000000)">
            <g id="You-Have-Options-Copy" sketch:type="MSLayerGroup" transform="translate(0.000000, 829.000000)">
                <g id="Group-Copy" transform="translate(84.000000, 99.000000)">
                    <g id="Group" transform="translate(0.000000, 70.000000)">
                        <g id="Disability" transform="translate(346.000000, 0.500000)">
                            <g id="disability" transform="translate(13.000000, 0.000000)">
                                <g id="Shape">
                                    <use fill="#FFFFFF" fill-rule="evenodd" sketch:type="MSShapeGroup" xlink:href="#path-1"></use>
                                    <use fill="none" xlink:href="#path-1"></use>
                                </g>
                                <g id="Shape">
                                    <use fill="#FFFFFF" fill-rule="evenodd" sketch:type="MSShapeGroup" xlink:href="#path-2"></use>
                                    <use fill="none" xlink:href="#path-2"></use>
                                </g>
                                <g id="Shape">
                                    <use fill="#FFFFFF" fill-rule="evenodd" sketch:type="MSShapeGroup" xlink:href="#path-3"></use>
                                    <use fill="none" xlink:href="#path-3"></use>
                                </g>
                                <g id="Shape">
                                    <use fill="#FFFFFF" fill-rule="evenodd" sketch:type="MSShapeGroup" xlink:href="#path-4"></use>
                                    <use fill="none" xlink:href="#path-4"></use>
                                </g>
                            </g>
                        </g>
                    </g>
                </g>
            </g>
        </g>
    </g>
</svg>