<?xml version="1.0" encoding="UTF-8" standalone="no"?>
<svg width="101px" height="80px" viewBox="0 0 101 80" version="1.1" xmlns="http://www.w3.org/2000/svg" xmlns:xlink="http://www.w3.org/1999/xlink" xmlns:sketch="http://www.bohemiancoding.com/sketch/ns">
    <!-- Generator: Sketch 3.3.2 (12043) - http://www.bohemiancoding.com/sketch -->
    <title>employestat_youville</title>
    <desc>Created with Sketch.</desc>
    <defs></defs>
    <g id="VDM-Landing-Page-2" stroke="none" stroke-width="1" fill="none" fill-rule="evenodd" sketch:type="MSPage">
        <g id="VDM2_max_desktopHD_youville" sketch:type="MSArtboardGroup" transform="translate(-870.000000, -2327.000000)" fill="#A4CC44">
            <g id="Learn-More-Copy" sketch:type="MSLayerGroup" transform="translate(0.000000, 2209.000000)">
                <g id="98%-copy-2-+-vid" transform="translate(371.000000, 118.000000)" sketch:type="MSShapeGroup">
                    <g id="98%-copy-2" transform="translate(399.000000, 0.000000)">
                        <g id="employestat_youville" transform="translate(100.000000, 0.000000)">
                            <path d="M38.7698983,22.0356795 L39.0491072,22.0815547 L39.4958414,22.1567899 L38.7698983,22.0356795 L38.7698983,22.0356795 Z M46.76138,24.2468627 L46.8809163,23.932159 L45.5956829,22.2320252 L45.2082806,21.8237362 L44.63852,21.3200268 L44.5469046,20.7860398 L44.0068099,20.4704187 L43.8279417,19.7465085 L43.4405394,19.8098162 C43.4405394,19.8098162 43.2293877,19.5896154 43.3812075,19.4318048 C43.5286647,19.2767467 43.679612,19.1189361 43.679612,19.1189361 L43.2032118,18.9290129 L43.2032118,18.5528365 L42.8114469,18.4271386 L42.7826535,17.9849019 C42.7826535,17.9849019 42.6648622,17.5133052 42.5723743,17.3242995 C42.4833764,17.1362113 42.0340246,16.3480758 42.0340246,16.3480758 C42.0340246,16.3480758 41.7347476,16.0352072 41.7068267,15.9397868 C41.6780333,15.8452839 41.8237455,15.1232088 41.8237455,15.1232088 L41.2583475,14.4626063 L40.6004615,14.1479026 L38.6538521,13.2359042 L37.5483594,12.8257802 L37.1862604,12.6863197 L36.9916867,12.0376448 L36.8930911,11.3339197 L36.8904735,11.2495094 L37.3153945,10.7283674 L38.1155025,9.52460293 L38.3092037,8.95850333 L38.4427004,8.41717631 L38.5753246,8.07586504 L38.7114389,7.53178552 L38.7890939,7.21708185 L38.807417,6.56657193 L38.7890939,7.22900939 L38.7114389,7.53178552 L38.9601094,6.70603245 L38.9601094,6.22250815 C38.9601094,6.22250815 39.1128017,5.60044084 39.1520655,5.52061804 C39.1895842,5.43896023 39.3989908,4.69486497 39.3989908,4.69486497 L39.4766458,3.628726 L39.3222084,2.8222405 L39.2646215,1.87812949 C39.2646215,1.87812949 38.9033951,1.31569989 38.729762,1.25422717 C38.5578741,1.19458944 37.9270365,0.790887942 37.9270365,0.790887942 L37.4497638,0.61013977 L36.8363768,0.812908024 L36.7020075,0.589954695 L36.1479524,0.106430396 L35.2108576,0.0651427424 L34.5407563,0.328466222 L33.9675055,0.812908024 L33.1054481,1.11384914 C33.1054481,1.11384914 32.37776,1.53590071 32.3611819,1.59645594 C32.3402413,1.65792867 31.7102762,2.40110643 31.7102762,2.40110643 L31.4808014,3.3874226 L31.326364,4.93525086 L31.2888453,5.56098819 L31.0960167,5.88211438 L31.1143398,6.40417383 L31.2888453,7.02715864 L31.4808014,7.61252582 L31.6509443,8.07586504 L31.7669905,8.1162352 L31.8786741,8.29973588 L31.9938478,8.79977524 L32.1194918,9.26036195 L32.0715027,9.30164961 L31.7669905,9.92279942 L31.7635004,9.95949955 L31.6526894,10.0237248 L31.2347486,10.6540496 L30.8752672,10.6861623 L30.3665835,11.3779598 L29.5577503,11.6926635 L28.809994,12.0073672 L27.4034792,12.5743843 L26.5361866,12.7624725 L25.9969645,13.3285721 L25.5502303,14.6194994 L25.4891533,17.1362113 L25.6104347,19.0244333 L25.7587644,20.4071109 L26.5955185,22.297168 L27.6128859,25.4735648 L27.5832199,26.2295876 L27.5544265,27.3287567 L27.7053738,28.5884889 L27.4331452,29.7216056 L27.1356132,31.5465199 L26.5667251,33.6843028 L26.027503,36.3918554 L25.6366105,40.5114457 L25.2500807,43.1859682 L25.7264809,43.2171633 L26.0877074,43.3107486 L26.5056482,43.2511109 L27.2534045,43.2511109 L27.318844,43.2556984 L27.5544265,44.1621918 L27.7341672,46.646791 L28.1826465,48.6285984 L27.9427014,52.404125 L28.1215696,54.3868498 L27.6739628,59.5771666 L27.8231651,62.628783 L27.8833695,66.405227 L28.1555982,67.467696 L28.2411059,69.9486252 L28.0029058,70.3367292 L27.9427014,71.4377333 L28.0316992,71.9423601 L28.8440226,73.5434036 L28.8405324,73.5470736 L28.6607917,73.9562801 L28.7506621,75.0572842 L28.8405324,76.5656598 L28.6014598,77.2280973 L28.4217191,77.4767407 L28.5709214,78.0125627 L30.1266384,79.1154018 L31.1448782,79.6824189 L31.9528389,79.5851636 L33.116791,79.3979929 L33.4492241,78.3924091 L33.3881471,77.5418835 L33.2092789,77.2280973 L32.9370503,75.5912712 L32.5810589,74.8994737 L32.3018501,73.8828799 L31.5017421,73.6736891 L32.3402413,73.8920549 L33.2092789,72.1616435 L32.8663755,72.840596 L33.0583316,72.7598557 L33.2092789,72.4754296 L34.1044924,72.9176663 L34.7649959,73.640659 L37.2473374,74.0792256 L39.5211447,74.2076761 L40.1781581,73.7663569 L40.1196987,73.389263 L39.9417031,73.2635651 L39.7619624,72.8222459 L38.7437225,72.2249512 L37.4270781,71.6579341 L37.218544,71.4074557 L36.2308425,70.9349414 L35.6366511,70.0128505 L35.6924929,69.9917479 L35.1820642,68.0420531 L35.0921938,67.883325 L35.0921938,67.5355913 L35.4822137,67.3484206 L35.633161,66.9071014 C35.633161,66.9071014 35.5110071,66.3419193 35.5110071,66.2455815 C35.5110071,66.1538311 36.198559,63.447196 36.198559,63.447196 L37.9671728,56.8108939 L38.9522566,51.9334457 L40.302057,44.6649837 L40.302057,43.6575649 L40.4477692,42.1785494 L40.4800527,42.0088113 L41.0157847,43.3740564 L41.4633915,43.4685592 L42.0034862,42.8730995 L41.7958246,36.6432513 L41.525341,33.9054211 L41.5890355,33.5264922 L40.9259144,31.2308987 L40.8665825,30.4445983 L41.0157847,29.9711665 L40.9564529,29.0288905 L41.0157847,28.6527141 L41.556752,28.6187665 L41.7347476,28.3049803 L41.8856949,28.2728677 L41.6457498,26.9516628 L43.0505195,26.9516628 L43.6194076,27.1406685 L44.9657179,27.1736986 L45.8626764,26.8571599 L46.4341821,26.6681542 L46.8512504,25.5056774 L46.9411207,24.6542342 L46.76138,24.2468627 L46.76138,24.2468627 Z" id="Fill-1"></path>
                            <path d="M7.82308386,13.1212163 L7.38245734,13.1358964 L6.9566638,13.168009 L7.68260689,12.7532974 L7.64159809,12.7789875 L7.52118926,13.1313089 L7.82308386,13.1212163 L7.82308386,13.1212163 Z M7.74019372,14.0524823 L7.74542889,14.0662448 L7.76113439,14.2589205 L8.39284448,14.646107 L7.63461786,14.1827678 L6.89296927,13.9818345 L7.68260689,14.0836774 L7.74019372,14.0524823 L7.74019372,14.0524823 Z M21.9536709,26.3020704 L21.990317,25.814876 L22.0601193,25.1038109 L22.0243456,24.6936869 L22.0601193,24.057857 L21.7748027,23.121086 L21.7407741,21.364067 L21.3830377,18.3308007 L20.4948045,15.2645043 L19.9267889,13.6185032 L19.2828634,13.1349789 L19.2566876,13.0909387 L19.2680304,13.1230513 L18.9303622,12.8679854 L16.8144824,12.3505134 L14.0380991,12.2055479 L13.469211,11.7275286 L12.887235,11.3614448 L12.6010459,11.148584 L12.3584831,11.1935416 L12.2930436,11.0770187 L11.9771885,10.6467096 L11.6334126,10.5448667 L11.5819334,9.25118692 L11.8201335,9.41817254 L12.0714215,9.31816467 L12.4518436,8.91905068 L12.5452041,8.50433914 L12.5783601,7.87401429 L12.3872766,7.24185444 L12.3567381,6.71245497 L12.323582,6.6115296 L12.1612919,6.56014941 L12.166527,6.59501454 L12.1194105,6.3436186 L12.0085995,5.96377219 L11.9143665,5.51511302 L12.0879995,5.68026363 L11.9771885,5.3499624 L11.9457775,5.14994666 L11.9606105,4.86735561 L11.8497995,4.51870431 L11.7407335,4.26914338 C11.7407335,4.26914338 11.630795,3.93975966 11.5819334,3.88562696 C11.5356895,3.83883428 11.3934674,3.6562511 11.2826564,3.45715286 C11.1718454,3.25897212 10.7783354,2.97546357 10.7783354,2.97546357 L9.95641422,2.57726709 L9.4965921,2.39468391 L9.1981876,2.22861579 L8.26807301,2.34422122 L7.16170782,2.46074415 L6.76558022,2.56075203 L6.18273168,3.00757619 L5.91399313,3.39017511 L5.92969863,3.58927335 L5.94365907,3.72139384 L5.64612711,3.80488666 C5.64612711,3.80488666 5.45591606,4.08747771 5.45591606,4.13610539 C5.45591606,4.18840308 5.20375554,5.06737135 5.20375554,5.06737135 L5.26832259,6.06286256 L5.28315556,6.71245497 L5.39309406,6.64547722 L5.42363253,6.8271429 L5.47162156,7.29139963 L5.63827436,7.6079383 L5.36168306,7.6079383 L5.28315556,7.85749923 L5.42363253,8.23642814 L5.58330511,9.00254349 L5.55102158,9.66498096 L5.8817096,10.1641028 L6.2464262,10.1815354 L6.32408117,10.1641028 L6.65564172,10.7632325 L6.74987472,10.9770108 L6.32408117,11.3926399 L6.14957562,11.6908285 L5.8817096,11.3926399 L5.53531608,11.3091471 L5.37826109,11.6412833 L5.48732706,12.1385702 L5.53531608,12.4229962 L5.20375554,12.9046855 L4.58775094,13.7175935 L3.98745184,15.4287374 L3.5616583,16.1902652 L3.65501877,16.0223621 L3.55816819,16.0498872 L3.16640323,16.6123168 L2.84618554,16.6123168 L2.70570857,17.2857643 L2.70570857,17.7729586 L1.92130612,19.4171247 L1.99285339,19.8657839 L1.56618732,20.2795779 L1.31751691,20.9521079 L0.854204673,22.18615 L0.465057294,22.5604914 L0.321090214,23.3458744 L0,24.1312573 L0.215514356,24.8423224 L0.215514356,25.5543051 L0.17886819,26.8250473 L0.355991324,27.4250945 L0.534859514,27.9847716 L1.13864872,28.2480951 L1.78082915,28.4361833 L2.70570857,28.4361833 L3.38104505,28.2480951 L3.59394183,27.8746712 L4.41237286,27.0131355 L4.8032653,26.7507295 L4.76749166,27.6104302 L4.69681691,29.2197312 L4.37747175,31.1290558 L4.36176625,31.1666735 L4.1872607,31.4208219 L4.23786731,31.4887171 L4.05725406,31.9511389 L3.8792584,32.6255039 L3.34527142,36.2900125 L3.41769122,36.7019715 L3.27459667,38.572761 L3.13150212,41.2307684 L3.05995484,42.613446 L3.20217686,42.8006167 L3.8068386,43.1006403 L4.34257064,43.3612113 L4.31988492,43.3502013 L4.83991146,46.2605221 L5.15925662,48.6010733 L5.58592269,49.0121148 L6.01520635,50.4700278 L5.90614038,54.1758241 L5.94278655,55.6722721 L6.04923493,55.7842075 L6.42354934,56.4622426 L7.06572977,69.3091254 L6.93834071,69.7375994 C6.93834071,69.7375994 6.76121758,70.2247938 6.72544394,70.3385642 C6.6896703,70.4504996 6.44012737,71.5716888 6.44012737,71.5716888 L7.18701113,71.759777 L6.46979331,71.5790288 L6.27085698,71.7891371 L5.51263036,72.3185365 L4.84950927,72.8167409 L4.0302057,73.1497946 L3.52413961,73.2837501 L2.76765804,73.24705 L2.57919205,73.4479833 L2.48408652,74.0783081 L2.51637005,74.4095268 L2.38985352,74.7086329 L2.57919205,74.8416709 L3.90543424,75.0407692 L6.4916065,75.005904 L7.46971012,74.7425806 L8.22619168,74.1773985 L8.25760268,74.4095268 L10.3717374,74.4774221 L11.8218786,74.1434508 L11.8550346,73.2149374 L11.7608016,73.0507043 L11.9178566,72.8167409 L11.8873181,71.6900467 L11.8218786,71.5872863 L11.3149399,71.3845181 L11.883828,71.6093064 L11.8131533,71.0487118 L11.6351576,70.3752643 L11.3507136,69.9247701 L11.4562894,69.5531813 L11.5644829,66.4455972 L11.4990433,65.8400449 L11.5042785,65.8290349 L11.4990433,65.8336224 L11.4562894,65.4354259 L11.7424785,64.5371901 L11.8489269,63.3040655 L12.0975973,64.8381312 L12.0975973,66.0363907 L12.0269226,67.0071093 L12.2406919,68.3925394 L13.0948966,71.499206 L13.1646988,72.3570717 L13.4491428,73.0332717 L13.6637847,73.369078 L14.0101782,73.2020923 L13.9368858,73.8131496 L13.9368858,74.6756028 L13.7789583,75.0407692 L13.7789583,76.0023128 L13.6847253,76.2041635 L13.7170089,76.600525 L14.2841519,76.8977961 L15.4838776,77.1317595 L17.2821573,76.9638563 L18.1983114,76.3353665 L18.1328718,75.8692748 L18.1651554,75.3050102 L17.7882234,74.6077076 L17.8815838,73.4810134 L17.698353,73.0773119 L17.0422121,73.1809898 L17.7550673,73.0690543 L18.1826059,71.8350123 L18.609272,69.7770521 L18.5743709,67.9053451 L18.46705,67.456686 L18.7157204,66.8208561 L18.6232324,64.6894957 L18.642428,64.7252783 L18.6214874,64.651878 L18.5385972,62.7425534 L18.0028652,60.5359577 L17.7550673,57.3953435 L17.5055244,56.6448257 L17.6137178,53.9134181 L17.5055244,52.4912878 L17.1853067,51.5930519 L18.0395114,48.8249441 L18.3248279,44.8209592 L18.2899268,41.3032512 L17.9339355,37.8635309 L18.8230413,36.8900597 L18.8570699,36.2900125 L19.0717117,36.2542299 L19.1790326,36.5542535 L20.3525824,34.1595696 L20.2810352,33.4852046 L20.3176813,33.2613337 L20.2810352,31.9144387 L20.6728001,31.4272444 L20.8787167,31.0749231 L20.9197255,31.0538205 L20.8935496,31.0501505 L20.9563716,30.9418851 L21.1361124,30.0418143 L21.3481366,29.4821372 L21.314108,29.0710957 L21.6334532,28.5848188 L21.9205148,27.4250945 L22.0967654,27.0489181 L21.9536709,26.3020704 L21.9536709,26.3020704 Z" id="Fill-2"></path>
                            <path d="M62.3813719,39.5306346 L62.3813719,39.5306346 L62.0201454,39.5581597 L62.3813719,39.5306346 L62.3813719,39.5306346 Z M58.8711927,7.05927126 C58.9139466,7.05193124 58.9549554,7.0436737 58.9924741,7.03908619 C58.9558279,7.04642622 58.9156917,7.05193124 58.8711927,7.05927126 L58.8711927,7.05927126 Z M59.5474018,7.36938742 C59.5456567,7.36755241 59.5412941,7.36204739 59.5351864,7.36112989 C59.5351864,7.36021238 59.5334413,7.36021238 59.5316963,7.35929488 C59.5273336,7.35654237 59.5273336,7.35378986 59.5186083,7.34920234 C59.5168633,7.34828484 59.5142457,7.34461482 59.5116281,7.34461482 C59.5107556,7.34461482 59.5090105,7.34277982 59.5072655,7.34277982 C59.5334413,7.36021238 59.5535095,7.37213993 59.5535095,7.37213993 C59.5535095,7.37213993 59.5508919,7.36938742 59.5474018,7.36938742 L59.5474018,7.36938742 Z M60.3675778,7.57857819 L60.3544899,7.57857819 C60.3527449,7.57766069 60.3492548,7.57766069 60.3492548,7.57766069 C60.3352943,7.57490818 60.3283141,7.57490818 60.3230789,7.57399068 C60.3300592,7.57490818 60.3448921,7.57766069 60.3675778,7.57857819 L60.3675778,7.57857819 Z M60.7288043,7.58224821 L60.576112,7.58224821 L60.7584703,7.58224821 L60.7288043,7.58224821 L60.7288043,7.58224821 Z M60.5115449,7.58224821 L60.4600658,7.58224821 C60.4557032,7.58224821 60.452213,7.5794957 60.4469779,7.5794957 C60.4443603,7.5794957 60.4382526,7.57857819 60.4347625,7.57857819 C60.4618108,7.5794957 60.4914768,7.58224821 60.528123,7.58224821 L60.5115449,7.58224821 L60.5115449,7.58224821 Z M58.737696,7.0968889 C58.7787048,7.08496136 58.8179686,7.07395132 58.8607224,7.06477628 C58.8563598,7.06569379 58.8546147,7.06569379 58.8519971,7.06569379 C58.815351,7.07486882 58.7769597,7.08679637 58.737696,7.0968889 L58.737696,7.0968889 Z M58.6373553,7.12716652 C58.658296,7.11982649 58.6774916,7.11523897 58.6984323,7.10881645 L58.6940696,7.10881645 C58.6740015,7.11523897 58.6565509,7.11982649 58.6373553,7.12716652 L58.6373553,7.12716652 Z M58.4750651,7.17854671 C58.5090937,7.16845417 58.5527201,7.15469162 58.6041993,7.13634155 C58.5902388,7.14184657 58.5762784,7.14643409 58.5623179,7.1510216 C58.5570828,7.1510216 58.5535926,7.15285661 58.54923,7.15469162 C58.5317794,7.16019664 58.5125838,7.16753667 58.4986234,7.17212418 C58.4898981,7.1757942 58.4837904,7.1767117 58.4750651,7.17854671 L58.4750651,7.17854671 Z M58.4637223,7.18496923 C58.4576146,7.18496923 58.4541245,7.18772174 58.4480168,7.18772174 C58.4541245,7.18772174 58.4619772,7.18496923 58.4654673,7.18221672 C58.4654673,7.18496923 58.4654673,7.18496923 58.4637223,7.18496923 L58.4637223,7.18496923 Z M72.2496608,42.3051649 L71.1380605,37.0735604 L70.3047965,33.4191443 L70.3588932,32.8328596 L69.8362491,31.7676382 L69.8310139,31.3437516 L69.8310139,29.7381206 L69.4977083,28.3334229 L68.7473344,26.753482 L67.887022,26.0515919 L68.3834903,26.4571284 L70.2210338,26.1699499 L71.5830496,24.7936947 L72.4171862,22.3705682 L71.2767924,19.9419367 L70.4723218,19.6795307 L70.1939854,18.1592276 L70.276003,17.341732 L69.6931545,16.9921632 L69.6931545,15.8205114 L68.8869389,15.4415824 L68.6932377,14.3295683 L67.3294768,13.4845477 L66.3854018,13.1322264 L65.2720564,12.9579007 L64.7162562,12.6349395 L63.7713086,10.8531479 L63.1029524,10.2393381 L62.9205941,10.1558453 L62.9092512,10.1797004 L63.0575809,9.85215165 L63.0514732,9.86224419 L63.421425,9.31082464 L63.5741174,9.02364607 L63.7381526,8.66123222 L63.6831833,8.35662109 L63.8882273,8.1969755 L64.1787791,7.96668214 L64.428322,7.38773748 L64.428322,6.95284087 L64.5923572,6.54546935 L64.6473265,6.18489051 L64.6202781,5.35821993 C64.6202781,5.35821993 64.6612869,4.89396321 64.6612869,4.85267555 C64.6612869,4.8104704 64.5923572,4.28749345 64.5234275,4.18656808 C64.4544979,4.08747771 63.8489636,3.44797783 63.8376207,3.38834011 C63.8210427,3.3323724 63.6709679,2.85343562 63.6421745,2.73691268 C63.6159987,2.62314226 63.4502184,2.18732814 63.3943766,2.11851538 C63.3394074,2.04419761 62.5829258,1.40653273 62.5392994,1.39001767 C62.4982906,1.37717262 61.7706025,1.42121279 61.7706025,1.42121279 L61.0943935,1.1019216 L60.2148855,1.2900098 L59.3057116,1.4790155 C59.3057116,1.4790155 58.8362916,1.53773572 58.7272257,1.6661862 C58.6164146,1.79830669 58.3546563,1.97171484 58.2578057,2.10108282 C58.1627002,2.23320331 57.8180517,2.55065949 57.7892583,2.6084622 C57.763955,2.66718242 57.3495043,3.11400659 57.3495043,3.11400659 L57.2395658,3.78011406 C57.2395658,3.78011406 57.0327768,4.15629046 57.0048559,4.21592818 C56.9760625,4.2728134 56.6619525,4.93983838 56.6200711,5.03984625 C56.5773173,5.14168913 56.42637,5.57566824 56.42637,5.57566824 L56.3443524,6.38582376 L56.3303919,6.80695782 L56.3984491,6.91614073 L56.2658249,7.43086015 C56.2658249,7.43086015 56.4036843,8.19147047 56.4036843,8.28046831 C56.4036843,8.36671363 56.9612295,9.06860374 56.9612295,9.06860374 L57.2657417,9.2722895 L57.4533351,10.1090526 L57.3983659,9.86958422 L56.9045152,9.9172944 L56.6008755,9.94757201 L56.1838073,10.7632325 L55.7929148,11.2614369 L55.1271761,12.6652171 L54.9875717,13.4845477 L54.902064,13.718511 L54.430899,13.7753962 L52.7355776,14.653447 L51.4276585,15.2663393 L51.0402561,15.6168256 C51.0402561,15.6168256 51.1248913,15.6755458 50.9006517,15.8810666 C50.6781571,16.0829173 49.9269107,17.4885326 49.9269107,17.4885326 L49.6773678,18.4253035 L49.6511919,19.213439 L49.3719831,20.1180973 L49.1774094,21.3163568 L49.0351874,22.6329742 L48.7315477,24.9129702 L48.2324618,27.1351635 C48.2324618,27.1351635 48.536974,27.5728126 48.7036268,28.1260671 C48.8720247,28.6839092 49.7314645,29.5325999 49.7314645,29.5325999 L51.6510256,30.0280517 L51.8141883,30.0381443 L51.9843312,31.5501899 L52.2094433,33.2659213 L52.1789049,33.8292684 L52.0410455,35.346819 L51.5681354,39.0324302 L51.1214012,45.549457 L51.1510672,46.9247946 L50.7610473,48.4157376 C50.7610473,48.4157376 51.5402145,49.059825 51.6231047,49.1157927 C51.7068673,49.1754304 53.4030613,49.8470429 53.4859514,49.8764031 C53.5688416,49.9066807 58.0422914,50.3149697 58.0422914,50.3149697 C58.0422914,50.3149697 55.4482664,50.0800888 54.1735033,49.9525558 L54.2651187,51.6609472 L55.2362421,58.8816991 L55.5433719,61.7443097 L55.4875301,62.359037 L54.2075319,67.5043961 L53.5688416,70.5138073 L53.3175536,72.299269 L53.5417932,73.5562487 C53.5417932,73.5562487 53.597635,75.1040769 53.597635,75.1939922 C53.597635,75.2802376 53.2922503,76.7115429 53.2922503,76.7115429 L53.4562855,77.6767565 L54.6237276,78.350204 L55.9604402,79.1108143 L57.5161571,78.0575204 L57.7098583,76.9757839 L57.4044736,75.4261206 L57.0999614,74.0828956 L56.8765943,73.7608519 L57.0441196,73.1764022 L57.433267,72.9433564 L57.8791287,72.1836635 L58.5998366,72.1231083 L58.0728298,73.5846913 L57.5161571,74.9306688 L57.6836825,75.4261206 L59.9915184,76.0114878 L61.2976924,75.8665222 L61.9904795,75.395843 L61.882286,74.6664278 L61.9355102,73.0296017 L61.4913936,71.8010646 L61.7435541,71.3358904 L61.9643036,70.9248489 L61.4643452,67.9126852 L61.2427232,66.1886962 L61.2130572,64.9904368 L60.8788791,63.8206199 L61.882286,60.8690115 L62.4372137,58.3247745 L62.9938864,55.0795649 L63.6604976,50.3443298 L64.0854186,49.1625854 L64.271267,49.6433572 L65.1054036,49.6139971 L67.7194967,49.0570725 L69.6931545,48.4157376 L72.3622169,47.3927213 L73.2521952,46.9247946 L72.2496608,42.3051649 L72.2496608,42.3051649 Z" id="Fill-3"></path>
                            <path d="M95.7276377,33.6567777 C95.7075695,33.6705403 95.7119322,33.6760453 95.7119322,33.6760453 C95.7119322,33.6760453 95.7276377,33.6916428 95.7075695,33.6916428 C95.6883739,33.6916428 95.6691783,33.6870553 95.6691783,33.6870553 L95.6098464,33.6824678 L95.5766904,33.6824678 L95.5993761,33.6567777 C95.5993761,33.6567777 95.6046113,33.6512727 95.6246794,33.6393451 C95.643875,33.6310876 95.6787761,33.6191601 95.6787761,33.6191601 L95.7415981,33.6393451 C95.7415981,33.6393451 95.7459608,33.6393451 95.7276377,33.6567777 L95.7276377,33.6567777 Z M95.0749869,32.9016724 C94.746044,32.9291975 94.511334,33.057648 94.511334,33.057648 L94.4520021,33.0787506 L94.4118658,33.0200303 L94.4275713,32.9484651 L94.4554922,32.8860748 C94.4554922,32.8860748 94.4912659,32.7732219 94.511334,32.7200067 C94.5209318,32.6860591 94.7565143,32.2777701 94.8306791,32.1484021 C94.9999495,31.9217788 94.9999495,31.7832357 94.9999495,31.7832357 L95.0261254,31.7621332 L95.0549188,31.7777307 L95.0845847,31.8144309 L95.1194858,31.854801 C95.1194858,31.854801 95.1238485,31.8740686 95.1238485,31.9116862 L95.1578771,31.9254488 L95.1823078,31.9575614 L95.1482793,32.0199516 C95.1482793,32.0199516 95.1578771,32.0364667 95.1770727,32.0557343 C95.1770727,32.0557343 95.1823078,32.0814244 95.1866705,32.1016094 L95.1866705,32.1392271 L95.2119738,32.1392271 L95.250365,32.133722 L95.2704331,32.1851022 L95.3690288,32.4383332 L95.3742639,32.4787033 L95.3742639,32.536506 C95.3742639,32.536506 95.3838617,32.5667837 95.3934596,32.5970613 C95.4039299,32.6282564 95.4126552,32.6429364 95.4327233,32.6686265 C95.4519189,32.6952341 95.4484288,32.6915641 95.4484288,32.6915641 C95.4484288,32.6915641 95.4571541,32.7154192 95.4623892,32.7429443 C95.4676244,32.7686344 95.4929277,32.7979945 95.4929277,32.7979945 L95.5103783,32.8236846 L95.5260838,32.8613023 C95.5260838,32.8613023 95.4039299,32.8759823 95.0749869,32.9016724 L95.0749869,32.9016724 Z M95.0261254,34.5109734 C95.0261254,34.5109734 94.9912243,34.552261 94.9763913,34.5687761 C94.9615583,34.5825387 94.9999495,34.5577661 94.9519605,34.5999712 C94.9022264,34.6403414 94.7983956,34.7697094 94.7983956,34.7697094 C94.7983956,34.7697094 94.746044,34.8559547 94.7155055,34.9146749 C94.6867121,34.9715601 94.6448307,35.0376204 94.6282527,35.0578054 C94.6134197,35.078908 94.6186549,35.078908 94.5942241,35.1036806 C94.5689208,35.1302882 94.574156,35.1257007 94.54449,35.1568958 C94.5148241,35.1880909 94.5209318,35.1935959 94.5017362,35.2128635 C94.4807955,35.2339661 94.4711977,35.2605737 94.4554922,35.2853463 C94.4424043,35.3110364 94.3926702,35.3826016 94.3778372,35.3991167 C94.3630043,35.4156318 94.3045449,35.487197 94.2757515,35.5128871 C94.245213,35.5385772 94.2251449,35.5532573 94.2251449,35.5532573 L94.1614504,35.6000499 L94.1274218,35.6174825 L94.0925207,35.5780299 L94.0698349,35.5532573 L94.0305712,35.5385772 L93.9947976,35.5229797 C93.9947976,35.5229797 93.9895624,35.5440822 93.9668767,35.4963721 C93.9407008,35.4514144 93.8386151,35.2908513 93.8386151,35.2908513 L93.7836458,35.199101 C93.7836458,35.199101 93.7801557,35.1816684 93.7696854,35.1614833 C93.7592151,35.1422157 93.7496173,35.1146906 93.7496173,35.1146906 L93.7592151,35.0743205 L93.9502986,34.8743047 L93.9808371,34.8311821 C93.9808371,34.8311821 94.0096305,34.7697094 94.0497668,34.7651218 C94.0890306,34.7596168 94.1274218,34.7192467 94.1274218,34.7192467 L94.1710482,34.7018141 L94.2705163,34.6403414 L94.3385735,34.6045587 L94.4424043,34.4852833 L94.46509,34.4806958 L94.5209318,34.4806958 C94.54449,34.4806958 94.4773054,34.4852833 94.5689208,34.4806958 C94.6622813,34.4770258 94.8821583,34.4715207 94.9179319,34.4715207 L95.030488,34.4715207 L95.0549188,34.4770258 L95.0261254,34.5109734 L95.0261254,34.5109734 Z M95.0505561,31.5189948 L95.0749869,31.4951397 L95.1037803,31.4988097 L95.1238485,31.5189948 C95.1238485,31.5189948 95.1430441,31.5446849 95.1683474,31.5547774 C95.1927782,31.5667049 95.2015034,31.5667049 95.2015034,31.5667049 L95.281776,31.5667049 C95.281776,31.5667049 95.2948639,31.5749625 95.2948639,31.5969826 L95.2948639,31.6657953 L95.2905013,31.6905679 L95.2747958,31.710753 C95.2747958,31.710753 95.2599628,31.710753 95.2416397,31.719928 C95.2198265,31.730938 95.2329144,31.730938 95.2076111,31.7373606 C95.1823078,31.7428656 95.1578771,31.7557106 95.1578771,31.7557106 L95.1343188,31.7685557 L95.1090155,31.7731432 L95.1037803,31.7465356 C95.1037803,31.7465356 95.0950551,31.7428656 95.0898199,31.7153405 C95.0845847,31.6905679 95.078477,31.6694653 95.078477,31.6694653 L95.0549188,31.6336827 L95.0348506,31.5667049 L95.0505561,31.5189948 L95.0505561,31.5189948 Z M91.8675749,29.1105483 L91.8518694,29.1454134 C91.8518694,29.1454134 91.8413991,29.151836 91.8361639,29.172021 C91.8318013,29.1922061 91.8274386,29.2087212 91.8274386,29.2087212 L91.8117331,29.2389988 L91.7646166,29.1977111 L91.7489111,29.157341 L91.7401858,29.1197233 L91.7279704,29.0738482 L91.7785771,29.0683431 L91.808243,29.0683431 L91.8318013,29.0738482 L91.8675749,29.0848582 L91.8675749,29.1105483 L91.8675749,29.1105483 Z M91.3615088,25.7258782 C91.3615088,25.7258782 91.274256,25.6772505 91.2454626,25.670828 C91.2157967,25.6662405 91.2000912,25.6607355 91.1712977,25.6607355 C91.1416318,25.6607355 91.0273307,25.6524779 91.0273307,25.6524779 L90.991557,25.6341279 L90.9741065,25.5855002 L90.9566559,25.5506351 L90.9165196,25.5020074 L90.8990691,25.4643897 L90.8929614,25.3735569 L90.8772559,25.2111588 L90.8362471,24.8166323 L90.7961108,24.6890994 L90.801346,24.6202866 L90.8126888,24.5661539 L90.8126888,24.5239487 L90.8362471,24.4147658 C90.8362471,24.4147658 90.8702757,24.3679732 90.9060493,24.3358605 C90.9400779,24.3055829 90.9453131,24.2927379 90.9453131,24.2927379 L90.9741065,24.3055829 L90.991557,24.3789832 C90.991557,24.3789832 91.0316933,24.5432163 91.0447812,24.5725764 C91.0552515,24.6037715 91.0718296,24.7074494 91.0971329,24.7496546 C91.1198186,24.7918597 91.1817681,25.0533482 91.1817681,25.0533482 C91.1817681,25.0533482 91.2323747,25.1983137 91.274256,25.2974041 C91.3152648,25.395577 91.3484209,25.4827398 91.3484209,25.4827398 C91.3484209,25.4827398 91.4025176,25.5827477 91.4190956,25.6396329 C91.4391638,25.7066106 91.4234583,25.7332182 91.4234583,25.7332182 L91.3615088,25.7258782 L91.3615088,25.7258782 Z M80.1582524,28.5710563 C80.1582524,28.5958289 80.1399293,28.6077564 80.1399293,28.6077564 C80.1399293,28.6077564 80.1172436,28.632529 80.0823425,28.6618891 L80.0465689,28.6930842 L80.0125403,28.7481345 L79.9497183,28.760062 L79.8694457,28.7050118 L79.8170941,28.6811567 C79.8170941,28.6811567 79.7944083,28.6563841 79.7699776,28.6389515 C79.7472918,28.6206015 79.7184984,28.614179 79.7184984,28.614179 L79.6609116,28.5793138 L79.6609116,28.5242636 C79.6609116,28.5242636 79.6556764,28.5169236 79.6722544,28.486646 C79.689705,28.4563684 79.7132633,28.4205857 79.7132633,28.4205857 L79.752527,28.3224129 L79.7874281,28.2618576 L79.8232017,28.1948799 L79.8389072,28.1636848 L79.8511226,28.1306547 L79.8554853,28.0921195 L79.863338,28.0618419 L79.863338,27.9765141 L79.8694457,27.9462365 C79.8694457,27.9462365 79.8694457,27.9168764 79.8746809,27.8847637 C79.8799161,27.8563211 79.8921314,27.8370536 79.8921314,27.8370536 C79.8921314,27.8370536 79.8982391,27.812281 79.9034743,27.7893434 C79.909582,27.7645708 79.909582,27.7150256 79.909582,27.7150256 L79.9654238,27.7278707 L80.0073051,27.7893434 C80.0073051,27.7893434 80.018648,27.825126 80.0299908,27.8498986 C80.0413337,27.8737537 80.0413337,27.8921038 80.0413337,27.8921038 C80.0413337,27.8921038 80.0535491,27.9223814 80.0587842,27.9462365 C80.0648919,27.9710091 80.0709996,28.0682644 80.0771073,28.1352422 C80.0823425,28.2022199 80.0823425,28.1774473 80.0884502,28.2022199 C80.0928128,28.226075 80.0989205,28.2453426 80.0989205,28.2453426 C80.0989205,28.2453426 80.1233513,28.3003928 80.1277139,28.3224129 C80.1355667,28.3471855 80.1355667,28.353608 80.1451645,28.4031532 C80.1582524,28.4517809 80.1512722,28.4435233 80.1512722,28.4756359 C80.1512722,28.503161 80.1582524,28.5297686 80.1582524,28.5297686 L80.1582524,28.5710563 L80.1582524,28.5710563 Z M100.265655,38.6902014 C100.304918,38.5149583 100.500365,38.0002389 99.8433511,36.141377 C99.7840192,35.9679688 99.4899774,35.2128635 99.4899774,35.2128635 C99.4899774,35.2128635 98.9306871,33.4595145 98.6453705,33.0870081 C98.5476474,33.0062678 98.2431352,32.7466143 98.2431352,32.7466143 L98.0965505,32.6429364 L97.9883571,32.5713712 L97.9490933,32.5410936 L97.8513702,32.510816 L97.7344515,32.4887959 L97.6262581,32.4475082 C97.6262581,32.4475082 97.576524,32.4475082 97.5372602,32.4273231 C97.4979965,32.4071381 97.4779284,32.4071381 97.4779284,32.4071381 L97.3313437,32.386953 L97.2126799,32.386953 C97.2126799,32.386953 97.1341524,32.3557579 97.0966337,32.3557579 L96.9692447,32.3557579 L96.8802468,32.4273231 L96.8017194,32.4695283 L96.7624556,32.510816 L96.7223193,32.5521036 L96.6848006,32.6025663 L96.6446644,32.654864 L96.5958028,32.7062442 L96.5172753,32.7466143 C96.5172753,32.7466143 96.3008884,32.7273468 95.9972488,32.8108396 L95.9178487,32.8502922 L95.7119322,32.8502922 L95.6726684,32.7383568 L95.6133365,32.6135763 L95.4484288,32.0768368 L95.4772222,32.0162816 L95.4876925,31.9520564 L95.4370859,31.9015937 L95.4187629,31.7988333 L95.3882244,31.6446927 L95.359431,31.5933125 L95.3402354,31.5290873 L95.3402354,31.4767896 L95.3786266,31.3859568 C95.3786266,31.3859568 95.359431,31.1997036 95.1823078,30.9721627 L95.1430441,30.9217 L95.2119738,30.6950767 C95.2119738,30.6950767 95.2599628,30.5702962 95.2599628,30.518916 C95.2599628,30.4675358 95.2704331,30.4776284 95.2704331,30.4271657 C95.2704331,30.374868 95.2704331,30.363858 95.281776,30.3234878 C95.2905013,30.2812827 95.3192947,30.2078824 95.3192947,30.2078824 L95.3498332,30.1271421 C95.359431,30.0647519 95.3498332,30.0427318 95.3882244,29.9711665 C95.4283607,29.9005187 95.4772222,29.7243581 95.4772222,29.7243581 L95.5060156,29.6417828 L95.5260838,29.5693 L95.5365541,29.4876422 C95.5452794,29.445437 95.5854157,29.3527692 95.5854157,29.3527692 L95.6246794,29.2894615 L95.643875,29.2178962 L95.6630706,29.157341 L95.6927366,29.0940332 C95.6927366,29.0940332 95.7520685,29.0013654 95.7520685,28.9509027 C95.7520685,28.8976875 95.8000575,28.8371323 95.8000575,28.8371323 L95.8000575,28.7646495 L95.8209982,28.6701467 L95.8209982,28.4444408 L95.8114003,28.3425979 C95.8000575,28.2792902 95.7913322,28.2178175 95.7913322,28.2178175 L95.7721366,28.1554272 C95.7520685,28.0939545 95.7415981,28.0728519 95.7415981,28.0728519 L95.6822662,27.9792666 L95.6543454,27.8673312 L95.6046113,27.7948484 L95.5766904,27.7526432 L95.5452794,27.7122731 C95.516486,27.6709854 95.4964178,27.6287803 95.4964178,27.6287803 C95.4964178,27.6287803 95.4772222,27.6196053 95.4370859,27.5774001 C95.3986947,27.5370299 95.3690288,27.5168449 95.3690288,27.5168449 L95.3192947,27.4645472 L95.2416397,27.424177 L95.1823078,27.3608693 L95.1238485,27.3094891 L95.0845847,27.2470989 C95.0845847,27.2470989 95.2704331,26.5874139 94.6134197,25.9882842 C94.5942241,25.9158014 94.5942241,25.9286465 94.5942241,25.9286465 C94.5942241,25.9286465 94.6727516,25.6699105 93.9258679,22.8825351 C93.8089491,22.2834054 93.5236326,20.84109 93.4756435,20.024512 C93.3962435,19.4474024 93.3779204,19.0547109 93.0419973,17.9913244 C92.9940082,17.7766286 92.9355489,17.4463274 92.9355489,17.4463274 L92.8674917,17.2288791 L92.7889642,17.062811 L92.5926455,16.6104818 L92.3963267,16.2177903 C92.3963267,16.2177903 92.2392717,15.8884066 92.2113508,15.8361089 C92.1790673,15.7838112 92.1502739,15.7535336 92.1502739,15.7535336 L92.1022849,15.732431 L92.0525508,15.7223385 L91.9443573,15.6498557 L91.885898,15.588383 L91.808243,15.5672804 L91.7279704,15.5250753 L91.680854,15.46452 L91.6215221,15.4140573 L91.5412495,15.3920373 L91.4548693,15.3819447 L91.3859396,15.3103795 L91.337078,15.2690918 L91.2376099,15.2057841 L91.1695527,15.1956915 L91.1311615,15.1461463 L91.0901527,15.1140337 L91.0430362,15.0718286 L90.943568,15.0498085 L90.895579,15.041551 L90.8554427,15.0011808 L90.8266493,14.9580581 L90.7594646,14.926863 L90.6992602,14.906678 L90.6198602,14.906678 L90.5422052,14.8864929 L90.4924711,14.8534628 L90.424414,14.8231851 L90.3755524,14.8231851 L90.3249458,14.8351127 C90.2874271,14.8663078 90.2394381,14.8864929 90.2394381,14.8864929 L90.2071546,14.8461227 L90.1486952,14.8351127 L89.9628468,14.8351127 L89.873849,14.77364 C89.873849,14.77364 89.7473324,14.6066543 89.3442246,14.5662842 C89.2560993,14.5983968 89.1479059,14.5873868 89.0501828,14.7626299 C88.9812531,14.8461227 88.8739322,14.926863 88.8739322,14.926863 L88.8146003,14.9782432 L88.6872112,14.926863 C88.6872112,14.926863 88.6287519,14.9378731 88.5886156,14.8965854 C88.5502244,14.8534628 88.5886156,14.8764003 88.538009,14.8461227 C88.491765,14.8140101 88.4620991,14.8140101 88.4620991,14.8140101 L88.3835716,14.7818975 L88.2849759,14.77364 L88.177655,14.7231773 L88.1383913,14.6791371 C88.1383913,14.6791371 88.068589,14.514904 88.0301978,14.4635238 C87.9909341,14.4112261 87.9124066,14.2057053 87.9124066,14.2057053 L87.8722703,14.1240475 L87.8722703,14.0598223 L87.8914659,13.988257 L87.9228769,13.8643941 C87.9228769,13.8643941 87.9708659,13.2248942 87.8530747,12.6780622 C87.8417318,12.4193262 87.8530747,11.7908364 87.863545,11.7403737 C87.8722703,11.688076 87.8722703,11.0063709 87.8722703,10.9036106 C87.8722703,10.7999327 87.8722703,10.7265324 87.863545,10.6347821 C87.8530747,10.5430317 87.8530747,10.5320217 87.8417318,10.4595389 C87.8330065,10.3870561 87.8234087,10.0778575 87.8234087,10.0356523 C87.8234087,9.99619969 87.8042131,9.88242927 87.8042131,9.88242927 L87.7937428,9.7576488 L87.7649494,9.52093292 L87.7448812,9.37688489 C87.7448812,9.37688489 87.7152153,8.16027536 86.4509226,5.51694802 C86.3819929,5.37381749 85.773841,3.87736943 84.1352339,3.31035232 C83.9467679,3.25713712 83.8115261,3.24704458 83.8115261,3.24704458 L83.3586842,3.16538678 C83.3586842,3.16538678 83.2714314,3.1442842 83.2321677,3.1442842 L83.0655149,3.1442842 L82.9773896,3.16538678 L82.9084599,3.18557185 L82.8098643,3.19566439 L82.7514049,3.21584946 L82.6728774,3.26814716 L82.6344862,3.29750727 L82.5934774,3.34062993 L82.535018,3.38191758 L82.4861565,3.4131127 L82.4372949,3.42228773 L82.3500421,3.39109262 L82.2898377,3.38191758 L82.2217805,3.36907253 C82.2217805,3.36907253 80.9749384,3.21584946 79.8755534,5.28940718 C79.8380347,5.42428018 79.327606,6.38307125 79.327606,8.80895027 C79.3084104,9.06585123 79.21854,10.7907576 79.21854,10.9036106 C79.21854,11.0375661 79.1496103,12.3890486 79.140885,12.8028426 C79.1304147,13.2138842 79.1016213,14.2057053 79.1112191,14.3497534 C79.1208169,14.4947189 79.1208169,14.7231773 79.1208169,14.7626299 C79.1208169,14.8030001 79.1112191,14.8663078 79.1208169,14.9901708 C79.1304147,15.1140337 79.140885,15.1323838 79.140885,15.2268866 L79.140885,15.5461778 L79.1208169,15.7838112 L79.1208169,15.8663865 C79.1208169,15.9186842 79.1016213,16.0324546 79.1016213,16.0324546 L79.091151,16.1554001 L78.8660388,16.2471504 L78.6897882,16.3315608 L78.6112607,16.3719309 C78.6112607,16.3719309 78.4638035,16.3911985 78.2605045,16.5297415 C78.2203683,16.536164 78.1366056,16.5581841 78.1366056,16.5581841 L78.102577,16.5719467 C78.071166,16.5838742 78.0912342,16.5792867 78.0650583,16.5930492 C78.03801,16.6058943 78.0319023,16.6132343 78.0319023,16.6132343 L78.006599,16.6407594 L77.9655902,16.667367 L77.9333066,16.6884696 L77.8757198,16.7077372 L77.7963198,16.7077372 L77.757056,16.7370973 L77.7055769,16.7637049 L77.6654406,16.8260951 L77.646245,16.8609602 C77.646245,16.8609602 77.5799329,16.8756403 77.5485219,16.8756403 L77.5031504,16.8756403 L77.4499263,16.8958254 L77.4106625,16.9086704 L77.3862317,16.9361955 C77.3862317,16.9361955 77.3713988,16.9361955 77.3522031,16.9637206 C77.3312625,16.9912457 77.3120669,17.0196883 77.3120669,17.0196883 C77.3050866,17.0462959 77.2352844,17.0389559 77.2352844,17.0389559 C77.1890405,17.0600585 77.1550119,17.073821 77.1550119,17.073821 L77.110513,17.0885011 C77.110513,17.0885011 77.0712492,17.1013461 77.0442008,17.1132737 C77.018025,17.1288712 77.0250052,17.1352937 76.9857415,17.1637364 C76.9456052,17.1894265 76.9333898,17.2041065 76.9333898,17.2041065 C76.9333898,17.2041065 76.9203019,17.2325491 76.9002338,17.2664967 C76.8819107,17.3013619 76.8679502,17.3215469 76.8679502,17.3215469 C76.8679502,17.3215469 76.8417744,17.349072 76.8356667,17.3756796 C76.827814,17.4059573 76.8164711,17.4169673 76.796403,17.4591725 C76.7763348,17.5004601 76.7170029,17.6179005 76.7170029,17.6179005 C76.7170029,17.6179005 76.4028929,18.1610626 76.3051698,18.5665991 C76.2920819,18.6363293 76.2720138,18.5739391 76.1943588,19.5923679 C76.1803984,19.7428384 75.9980401,20.8649451 76.0826753,22.8595975 C76.0957632,23.3752345 76.1088511,25.0671108 76.075695,25.8846063 C76.075695,26.4919936 76.1018709,27.3847244 76.1803984,28.3077328 C76.2606709,29.2298237 76.4220886,30.5840588 76.5075963,30.8189397 C76.54686,31.0593256 76.7641194,31.8970062 76.9456052,32.3181402 C76.9988294,32.4273231 77.2387745,32.9016724 77.7902121,32.8190971 C77.9001506,32.8190971 78.1828496,32.7640469 78.1828496,32.7640469 L78.6330739,32.7044092 C78.6330739,32.7044092 79.0518872,32.647524 79.6277555,32.6209164 C80.0465689,32.5869687 80.5639778,32.531001 80.5639778,32.531001 L80.6477405,32.531001 L80.6425053,32.5933913 C80.6425053,32.5933913 80.6590833,32.6998217 80.6250548,32.7998295 C80.5988789,32.8695598 80.5439097,32.9539701 80.508136,33.0099378 C80.4793426,33.0530605 80.4688723,33.072328 80.4592745,33.0870081 C80.4200107,33.1493983 80.1643601,33.3154664 80.2420151,33.9219362 C80.2690634,34.0448817 80.3475909,34.134797 80.3920898,34.8770573 C80.3920898,35.0055077 80.4330986,35.1862559 80.3536986,35.605555 C80.3475909,35.7165729 80.2900041,36.1221094 80.3999426,37.0341078 C80.3999426,37.1533832 80.3920898,37.2689887 80.3920898,37.2689887 L80.3859822,37.3267914 L80.3859822,37.3809241 L80.3790019,37.4836845 L80.3746393,37.5524972 L80.3667865,37.5864448 L80.3667865,37.62865 L80.3746393,37.6882877 L80.3999426,37.7314104 L80.4522943,37.7506779 C80.4522943,37.7506779 80.445314,38.0479491 80.2289272,38.3094375 C80.1512722,38.3910953 79.7795754,38.6580888 79.8755534,39.1535407 C79.9287776,39.250796 79.9549534,39.2985062 79.9549534,39.2985062 L79.9881095,39.3553914 L80.0212655,39.4021841 L80.0736172,39.513202 L80.1111359,39.5810973 L80.1390568,39.637065 L80.1111359,39.6921152 L80.0334809,39.7609279 C80.0334809,39.7609279 79.1696785,40.4270354 78.889597,41.4436292 C78.8625487,41.5133594 78.7246893,41.7904455 78.7508651,42.4840781 C78.7508651,42.6143635 78.7124739,42.8400694 78.6985135,42.8694295 C78.6862981,42.8960371 78.6671025,43.2125758 78.6609948,43.2410184 C78.653142,43.267626 78.6671025,43.406169 78.6671025,43.406169 L78.6784453,43.5015893 L78.6784453,43.557557 L78.6016629,43.7548203 C78.6016629,43.7548203 78.2020452,44.7952692 77.8757198,45.9770135 C77.8303484,46.1779468 77.4307306,47.8221129 77.2789108,48.8267792 C77.2466273,48.9781672 76.8487546,50.933367 76.8086184,50.9920872 C76.7763348,51.1379703 76.2388577,53.0491299 76.2388577,53.0491299 L76.1481148,53.3326384 L76.121939,53.4693464 L76.0957632,53.6152295 C76.0957632,53.6152295 75.9980401,54.1849991 75.8409851,54.5556705 C75.8235345,54.6116382 75.7572224,54.7896338 75.6944004,54.961207 C75.5966773,55.225448 75.4998267,55.5484092 75.5914421,55.9383481 C75.6254707,56.1301063 75.9326005,57.4265386 75.9326005,57.4265386 C75.9326005,57.4265386 76.0181082,57.7274798 76.1350269,58.8752765 C76.2135544,59.545054 76.5992117,63.0939572 76.8164711,64.8904289 C76.9203019,65.7675622 77.2570976,68.7439433 77.6383922,71.1413797 C77.7265176,71.6891292 77.7945747,72.1763235 77.8888077,72.6378277 C77.9237088,72.8103184 77.9778055,72.9461089 78.0109616,73.101167 C78.0615682,73.2901727 78.1296254,73.5158785 78.1296254,73.5158785 L78.1793595,73.6902042 L78.2177507,73.8370047 L78.2378188,73.8957249 L78.1793595,73.92692 C78.1793595,73.92692 77.943777,73.8544373 77.8443088,74.3627342 C77.8076626,74.5067822 77.7273901,74.6489952 77.7273901,74.6489952 C77.7273901,74.6489952 77.4717394,75.3618954 77.2466273,76.3940867 C77.2265591,76.4546419 77.2265591,76.5069396 77.2265591,76.5069396 L77.1890405,76.5491448 C77.1890405,76.5491448 76.9124492,76.7968707 76.7074051,76.7968707 C76.6759941,76.8005407 76.5390073,76.8115508 76.3775896,76.877611 C76.1009983,76.9922989 75.7502422,77.2721375 75.7266839,77.9630175 C75.6577542,78.0355003 75.6481564,78.0244903 75.6481564,78.0244903 C75.6481564,78.0244903 75.4021036,78.0960555 75.4911014,78.3346064 C75.5111696,78.4575519 75.539963,78.7667505 75.5303652,79.013559 C75.5600311,79.0768667 75.617618,79.1282469 75.617618,79.1282469 L75.8043389,79.2392648 L76.0695873,79.3649628 L76.2458379,79.436528 C76.2458379,79.436528 76.7728447,79.6640689 77.4839548,79.7512317 C78.3233265,79.8539921 79.3747225,79.819127 79.4445247,79.8071994 C79.5719138,79.7870143 80.3371206,79.7374691 80.5334393,79.2392648 C80.6425053,79.026404 81.0447406,77.9721926 81.0447406,77.9721926 L81.1223956,77.8492471 L81.1826,77.8171345 L81.2401868,77.8492471 C81.2401868,77.8492471 81.3771737,77.9299874 81.544699,77.9832026 C81.7113518,78.0355003 81.622354,78.0437578 81.8684068,78.074953 C82.1144596,78.1070656 82.2217805,78.1272507 82.2217805,78.1272507 L82.3893059,78.2382686 L82.4948817,78.3235964 L82.5751543,78.3850691 L82.6536818,78.4373668 L82.7034159,78.4575519 L82.7906686,78.497922 L82.8796665,78.5291172 L82.9468511,78.5392097 L83.0759852,78.5181071 C83.0759852,78.5181071 83.8403195,78.342864 84.4973329,78.1171581 C84.6159967,78.0355003 85.0077617,77.8382371 84.861177,77.3849904 C84.8114429,76.9308262 84.7721792,76.3940867 84.7721792,76.3940867 C84.7721792,76.3940867 84.9196364,76.2500387 84.8515792,75.9922202 C84.8114429,75.7041241 84.7233176,74.5269673 84.5968011,74.1140907 C84.5374692,73.7516769 84.2617504,72.1414584 84.1936933,71.8634549 C84.1736251,71.6891292 84.0375108,70.8220885 84.0375108,70.8220885 L83.6448733,67.5080662 L83.5846689,67.0566545 L83.5558755,66.8107636 C83.5558755,66.8107636 83.5358073,66.7658059 83.525337,66.7144257 C83.5174843,66.6630455 83.4581524,66.51808 83.4581524,66.51808 C83.4581524,66.51808 83.1728358,65.9308778 83.0271237,64.9812618 C82.8700687,64.2261564 82.7801983,63.9802655 82.7801983,63.9802655 L82.6039477,63.3710433 L82.4765587,62.7948511 C82.4765587,62.7948511 82.1921146,61.3479482 82.0734508,60.8222188 C82.0533827,60.6699132 81.5351012,59.1615376 81.4452308,58.7587536 C81.3675759,58.3981748 81.3274396,58.2871568 81.3274396,58.2871568 L81.3195868,58.2110041 C81.3195868,58.2110041 82.0839212,57.5531541 82.329974,56.7888738 C82.3587674,56.7173085 82.4268246,56.842089 82.3395718,55.6961272 L82.3395718,55.5722642 L82.377963,55.4263812 C82.377963,55.4263812 82.692073,53.9831483 82.7514049,53.7657 C82.801139,53.5390767 83.0943083,52.1022663 83.3115677,51.6618647 C83.429359,51.2884408 84.3891395,48.5139105 84.3891395,48.5139105 L84.5165285,48.1927843 L84.5863308,48.0790139 C84.5863308,48.0790139 84.9196364,47.5239243 84.9876935,47.3477636 C85.0758188,47.2440858 85.1543463,47.1193053 85.1543463,47.1193053 C85.1543463,47.1193053 86.1071466,46.0375688 86.2929951,45.6962575 C86.3418566,45.686165 86.3819929,45.7476377 86.3819929,45.7476377 L86.4212566,45.839388 L86.4989116,46.0687639 L86.5198523,46.3045623 L86.6751622,47.6789824 L86.6952304,47.8835856 L86.7152985,48.0698388 C86.7152985,48.0698388 86.8234919,49.0680825 86.8531579,49.4837116 C86.8924216,49.9259482 87.107936,52.0508861 87.1969338,52.4435776 C87.2344525,52.7335087 87.2745888,53.0537174 87.2745888,53.0537174 L87.2850591,53.1959304 C87.2850591,53.1959304 87.4115756,53.9602107 87.4115756,54.4556626 C87.4508394,54.7969739 87.4892306,55.1492952 87.4892306,55.1492952 L87.5398372,55.766775 L87.5599054,55.8502678 L87.5599054,56.171394 L87.4604372,58.1100787 L87.4892306,58.3155995 L87.5005735,58.3871647 L87.5005735,58.6871883 L87.4796328,58.8413289 L87.4508394,59.0064795 L87.1567975,61.14151 C87.1567975,61.14151 86.9412832,62.5774028 86.7554348,63.4637111 C86.6856325,63.7233646 86.557371,64.3114843 86.3340039,64.9408916 L86.3034654,65.0849396 C86.3034654,65.0849396 86.1952719,65.6620493 86.1848016,65.723522 C86.1664785,65.8391274 86.1664785,65.8483025 86.1664785,65.8483025 L86.1167445,66.0428132 C86.1167445,66.0428132 86.086206,66.126306 86.0670104,66.1786037 C86.0478148,66.2309014 85.9788851,66.4455972 85.9788851,66.4455972 L85.9596895,66.5813877 L85.9413664,66.7052507 L85.9195532,66.8281961 L85.8907598,67.0135318 C85.8907598,67.0135318 85.8122323,67.2796078 85.7145092,67.8502949 C85.7049114,67.9310352 85.6839707,68.0154455 85.6839707,68.0154455 L85.6560498,68.1191234 L85.5967179,68.3347367 C85.5967179,68.3347367 85.5478564,68.3347367 85.3812036,69.069657 C85.3122739,69.3247229 85.2040804,69.6174065 85.2040804,69.9743153 C85.1944826,70.0614782 85.1726694,70.3358117 85.1395134,70.6257428 C85.1054848,70.9202613 85.0583683,71.2358825 85.0740738,71.7194068 C85.0915243,72.1891686 85.1892474,72.7470106 85.2930782,73.3608204 C85.3812036,73.7911295 85.4405354,74.0113303 85.4405354,74.0113303 L85.4780541,74.1755635 L85.5077201,74.3508066 C85.5077201,74.3508066 85.6839707,75.1774772 85.6839707,75.4444707 C85.7049114,75.6518264 85.7642432,76.0426829 85.7642432,76.0426829 L85.8314279,76.2500387 L85.8907598,76.5262072 L85.9195532,76.6730077 L85.9692873,76.7739331 L86.008551,76.8500859 L86.0373444,76.8977961 L86.2354082,76.9308262 L86.3340039,76.9097236 L86.4107863,76.8904561 L86.4701182,76.8500859 L86.5486457,76.7867782 C86.5486457,76.7867782 86.5678413,76.7739331 86.5975072,76.8188908 C86.6280457,76.8583434 86.6376435,76.868436 86.6376435,76.868436 C86.6463688,76.9097236 86.6655644,76.9922989 86.6655644,76.9922989 L86.6751622,77.0730392 L86.6856325,77.145522 L86.7057007,77.3198477 L86.7353666,77.424443 L86.7248963,77.5189459 C86.7248963,77.5189459 86.4989116,77.6116137 86.6280457,78.1474357 C86.6376435,78.3346064 86.6280457,78.8493258 86.6280457,78.8493258 C86.6280457,78.8493258 86.6376435,78.9218086 86.6751622,78.9621788 C86.7152985,79.0053014 86.7746304,79.0851242 86.7746304,79.0851242 C86.7746304,79.0851242 86.9299403,79.4805682 87.5695032,79.5402059 C87.7370285,79.5521335 88.6680156,79.573236 89.8851918,79.4282705 C90.0021105,79.4154255 90.7472493,79.3860653 90.7769152,78.9851164 C90.8083262,78.6538976 90.8667856,78.1786309 90.8667856,78.1786309 L90.8842361,78.0244903 L90.895579,77.9198949 C90.895579,77.9198949 90.943568,77.7960319 90.7376514,77.5400485 C90.7376514,77.4446281 90.786513,77.4051755 90.581469,76.746408 C90.6198602,76.6418126 90.6408009,76.5693299 90.6408009,76.5693299 L90.6695943,76.465652 L90.7175833,76.3096764 C90.7175833,76.3096764 90.7961108,76.1463608 90.7961108,75.7555043 C90.8449724,75.5472311 91.1896208,74.0186704 91.1896208,74.0186704 C91.1896208,74.0186704 91.571788,72.6066326 91.6503155,71.9157526 C91.6904518,71.6799542 92.0813442,69.344908 91.9443573,68.4393321 C91.933887,68.2439039 91.9050936,67.9117677 91.9251617,67.8502949 C91.9443573,67.6640417 92.0036892,66.2382414 92.0036892,66.2382414 L92.1022849,64.3114843 C92.1022849,64.3114843 92.1895376,60.8222188 92.1022849,59.8322326 C92.1118827,59.2037428 92.1118827,56.993477 92.1118827,56.993477 L92.2392717,54.5070428 C92.2392717,54.5070428 92.4155223,52.42431 92.5533817,51.598557 C92.5821751,51.4434989 92.6903686,50.5140679 92.6903686,50.5140679 L92.8674917,48.6882361 L92.9259511,48.2349895 L93.003606,48.2148044 L93.0742808,48.1725992 L93.1519357,48.1505791 L93.3779204,48.1643417 L93.7312942,48.1725992 C93.7312942,48.1725992 94.0637273,48.1826918 94.3769647,48.1946193 C94.6544285,48.2047118 94.9179319,48.2148044 94.9179319,48.2148044 L95.0749869,48.2148044 L95.1927782,48.2349895 L95.250365,48.243247 L95.3986947,48.2744421 L95.595886,48.2744421 C95.643875,48.2744421 95.7721366,48.2882046 95.7913322,48.2882046 L95.9763081,48.2882046 C95.9763081,48.2882046 96.0365125,48.2964622 96.0845015,48.3065547 C96.1342356,48.3184823 96.2319587,48.3276573 96.2319587,48.3276573 L96.6149984,48.3276573 L96.7039962,48.3386673 L96.7720534,48.3597699 L96.8313853,48.3772025 C96.8994425,48.390965 96.9587743,48.3983051 96.9587743,48.3983051 L97.0373018,48.4616128 L97.0861634,48.5212505 L97.1454953,48.5662082 L97.2327481,48.657041 L97.2920799,48.7185137 L97.341814,48.7497089 L97.4395371,48.7497089 L97.5582009,48.7185137 L97.6454537,48.6790611 C97.6454537,48.6790611 97.8225768,48.6249284 97.8810362,48.2964622 C97.9490933,48.2551745 97.9709065,48.2551745 97.9709065,48.2551745 L98.0380912,48.2349895 L98.1454121,48.2148044 C98.1454121,48.2148044 98.566843,48.1203015 98.7439661,47.5532844 C98.7823574,47.4606166 98.8425618,47.3367536 98.8425618,47.3367536 L98.8617574,47.2229832 L98.880953,46.9752573 L98.9306871,46.8532293 C98.9306871,46.8532293 99.0292827,46.3871376 99.0589487,46.3045623 C99.0877421,46.2229045 99.2151311,45.7880078 99.2151311,45.7880078 C99.2151311,45.7880078 99.6854236,44.3144974 99.7438829,43.550217 C99.8128126,43.0648577 99.8328808,42.8373169 99.8520764,42.7969467 C99.8721445,42.7556591 99.9218786,42.6327136 99.9218786,42.6327136 L99.9899358,42.4776555 C99.9899358,42.4776555 100.010004,42.4345329 100.030072,42.3748951 C100.049268,42.3106699 100.068463,42.2914023 100.068463,42.2510322 C100.068463,42.208827 100.078934,42.1464368 100.078934,42.1464368 C100.078934,42.1464368 100.13652,41.7546628 99.8520764,40.3398726 C99.8834874,40.2793174 99.9314764,40.1343518 99.9314764,40.1343518 C99.9314764,40.1343518 100.21592,38.9278348 100.265655,38.6902014 L100.265655,38.6902014 Z" id="Fill-5"></path>
                        </g>
                    </g>
                </g>
            </g>
        </g>
    </g>
</svg>