<?xml version="1.0" encoding="UTF-8" standalone="no"?>
<svg width="180px" height="144px" viewBox="0 0 180 144" version="1.1" xmlns="http://www.w3.org/2000/svg" xmlns:xlink="http://www.w3.org/1999/xlink" xmlns:sketch="http://www.bohemiancoding.com/sketch/ns">
    <!-- Generator: Sketch 3.3.2 (12043) - http://www.bohemiancoding.com/sketch -->
    <title>Employeestat</title>
    <desc>Created with Sketch.</desc>
    <defs>
        <path id="path-1" d="M0,0.116858808 L179.937391,0.116858808 L179.937391,143.193187 L0,143.193187 L0,0.116858808 Z"></path>
    </defs>
    <g id="VDM-Landing-Page-2" stroke="none" stroke-width="1" fill="none" fill-rule="evenodd" sketch:type="MSPage">
        <g id="VDM1_max_tablet-Copy" sketch:type="MSArtboardGroup" transform="translate(-54.000000, -2837.000000)">
            <g id="Employee-stat-+-98%-of-employees-agr" sketch:type="MSLayerGroup" transform="translate(0.000000, 2801.000000)">
                <g id="Employeestat" transform="translate(54.000000, 36.000000)">
                    <path d="M69.5488696,39.5295491 L70.0497391,39.611844 L70.8511304,39.7468077 L69.5488696,39.5295491 L69.5488696,39.5295491 Z M83.8846957,43.4961649 L84.0991304,42.9316217 L81.7935652,39.8817714 L81.0986087,39.1493465 L80.0765217,38.2457481 L79.9121739,37.2878351 L78.9433043,36.7216459 L78.6224348,35.4230318 L77.9274783,35.5365988 C77.9274783,35.5365988 77.5486957,35.1415831 77.8210435,34.8584886 C78.0855652,34.5803317 78.3563478,34.2972371 78.3563478,34.2972371 L77.5017391,33.9565361 L77.5017391,33.2817176 L76.7989565,33.0562295 L76.7473043,32.2629063 C76.7473043,32.2629063 76.536,31.4169144 76.370087,31.0778593 C76.2104348,30.74045 75.4043478,29.326623 75.4043478,29.326623 C75.4043478,29.326623 74.8674783,28.7653716 74.8173913,28.5941981 C74.7657391,28.4246706 75.0271304,27.1293483 75.0271304,27.1293483 L74.0128696,25.9443012 L72.8326957,25.379758 L69.3406957,23.7437346 L67.3575652,23.0080179 L66.708,22.7578413 L66.3589565,21.5941909 L66.182087,20.3317866 L66.1773913,20.180364 L66.9396522,19.2454935 L68.3749565,17.0860744 L68.7224348,16.0705549 L68.961913,15.0994747 L69.1998261,14.4872004 L69.444,13.5111824 L69.5833043,12.9466392 L69.6161739,11.779697 L69.5833043,12.9680359 L69.444,13.5111824 L69.890087,12.0298736 L69.890087,11.162485 C69.890087,11.162485 70.164,10.0465657 70.2344348,9.90337248 C70.3017391,9.75688749 70.6773913,8.42206365 70.6773913,8.42206365 L70.8166957,6.50952936 L70.5396522,5.0627844 L70.4363478,3.36915464 C70.4363478,3.36915464 69.7883478,2.36021874 69.4768696,2.24994352 C69.1685217,2.14296011 68.0368696,1.41876468 68.0368696,1.41876468 L67.1806957,1.09452264 L66.0803478,1.45826625 L65.8393043,1.05831286 L64.8453913,0.190924249 L63.1643478,0.116858808 L61.9622609,0.589231735 L60.933913,1.45826625 L59.3874783,1.99812102 C59.3874783,1.99812102 58.082087,2.75523442 58.0523478,2.86386374 C58.0147826,2.97413895 56.8846957,4.3073169 56.8846957,4.3073169 L56.4730435,6.076658 L56.196,8.85328911 L56.1286957,9.97579202 L55.7827826,10.5518566 L55.8156522,11.4883729 L56.1286957,12.6059381 L56.4730435,13.6560215 L56.7782609,14.4872004 L56.9864348,14.5596199 L57.1867826,14.8887996 L57.3933913,15.7858144 L57.6187826,16.6120556 L57.5326957,16.686121 L56.9864348,17.8003944 L56.9801739,17.8662304 L56.7813913,17.9814433 L56.0316522,19.1121757 L55.3867826,19.1697822 L54.4742609,20.4107898 L53.0233043,20.975333 L51.681913,21.5398763 L49.1587826,22.5570417 L47.6029565,22.8944509 L46.6356522,23.9099704 L45.8342609,26.2257499 L45.7246957,30.74045 L45.9422609,34.1277095 L46.2083478,36.6080789 L47.7093913,39.9986302 L49.5344348,45.6967315 L49.4812174,47.052952 L49.4295652,49.0247387 L49.7003478,51.2845576 L49.212,53.3172425 L48.6782609,56.590935 L47.6577391,60.425879 L46.6904348,65.282926 L45.9892174,72.6730112 L45.2958261,77.4708059 L46.1504348,77.5267665 L46.7984348,77.6946481 L47.5481739,77.5876647 L48.8895652,77.5876647 L49.0069565,77.5958942 L49.4295652,79.2220421 L49.752,83.6791358 L50.5565217,87.234277 L50.126087,94.0071502 L50.4469565,97.5639372 L49.644,106.874786 L49.9116522,112.349045 L50.0196522,119.123564 L50.508,121.029515 L50.6613913,125.480025 L50.234087,126.17624 L50.126087,128.151319 L50.2857391,129.056563 L51.7429565,131.928656 L51.7366957,131.93524 L51.4142609,132.669311 L51.5754783,134.644389 L51.7366957,137.350247 L51.3078261,138.538585 L50.9853913,138.984624 L51.2530435,139.945829 L54.0438261,141.924199 L55.8704348,142.941364 L57.3198261,142.766899 L59.4078261,142.431136 L60.0041739,140.627231 L59.8946087,139.101483 L59.5737391,138.538585 L59.0853913,135.602302 L58.4467826,134.361294 L57.945913,132.537639 L56.5106087,132.162374 L58.0147826,132.554098 L59.5737391,129.449933 L58.9586087,130.667898 L59.3029565,130.523059 L59.5737391,130.01283 L61.1796522,130.806153 L62.3645217,132.103121 L66.8175652,132.889861 L70.8965217,133.120287 L72.0751304,132.32861 L71.9702609,131.652145 L71.6509565,131.426657 L71.3285217,130.63498 L69.501913,129.5635 L67.14,128.546334 L66.765913,128.097004 L64.994087,127.249366 L63.9281739,125.595238 L64.0283478,125.557382 L63.1126957,122.059848 L62.9514783,121.775107 L62.9514783,121.151312 L63.6511304,120.815548 L63.921913,120.023871 C63.921913,120.023871 63.7027826,119.009997 63.7027826,118.837178 C63.7027826,118.672588 64.9361739,113.817187 64.9361739,113.817187 L68.1088696,101.912402 L69.876,93.1628041 L72.2973913,80.1239946 L72.2973913,78.3167978 L72.5587826,75.6636091 L72.6166957,75.3591179 L73.5777391,77.8082152 L74.3806957,77.9777427 L75.3495652,76.9095545 L74.9770435,65.7339023 L74.4918261,60.8225406 L74.606087,60.1427844 L73.4165217,56.0247459 L73.310087,54.6142107 L73.5777391,53.7649269 L73.4713043,52.074589 L73.5777391,51.3997705 L74.5481739,51.3388723 L74.8674783,50.7759749 L75.1382609,50.7183684 L74.7078261,48.3482743 L77.2278261,48.3482743 L78.2483478,48.6873294 L80.6634783,48.7465818 L82.2725217,48.1787468 L83.2977391,47.8396916 L84.045913,45.754338 L84.2071304,44.226944 L83.8846957,43.4961649 L83.8846957,43.4961649 Z" id="Fill-1" fill="#265B80" sketch:type="MSShapeGroup"></path>
                    <path d="M14.0337391,23.5379973 L13.2433043,23.5643317 L12.4794783,23.6219381 L13.7817391,22.8779919 L13.7081739,22.9240771 L13.4921739,23.5561022 L14.0337391,23.5379973 L14.0337391,23.5379973 Z M13.8850435,25.2085845 L13.8944348,25.233273 L13.9226087,25.5789117 L15.0558261,26.273481 L13.6956522,25.4423021 L12.3652174,25.0818503 L13.7817391,25.264545 L13.8850435,25.2085845 L13.8850435,25.2085845 Z M39.3824348,47.182978 L39.4481739,46.3090058 L39.5733913,45.0334343 L39.5092174,44.2977176 L39.5733913,43.1571098 L39.0615652,41.4766472 L39.0005217,38.3247512 L38.3587826,32.8834101 L36.7653913,27.3828167 L35.7464348,24.4300744 L34.5913043,23.5626858 L34.5443478,23.4836827 L34.5646957,23.5412891 L33.9589565,23.0837293 L30.1633043,22.1554424 L25.1827826,21.8953904 L24.1622609,21.0378772 L23.1182609,20.3811636 L22.6048696,19.9993151 L22.1697391,20.0799641 L22.0523478,19.870935 L21.4857391,19.0990085 L20.8690435,18.9163138 L20.7766957,16.5955966 L21.204,16.8951502 L21.6547826,16.7157472 L22.3372174,15.9997813 L22.5046957,15.2558351 L22.5641739,14.1251026 L22.2213913,12.9910784 L22.1666087,12.0413949 L22.1071304,11.860346 L21.816,11.7681757 L21.8253913,11.8307199 L21.7408696,11.3797436 L21.542087,10.6983416 L21.3730435,9.89349709 L21.6845217,10.1897589 L21.4857391,9.59723532 L21.4293913,9.2384294 L21.456,8.7314926 L21.2572174,8.1060511 L21.0615652,7.65836665 C21.0615652,7.65836665 20.8643478,7.06748902 20.7766957,6.970381 C20.6937391,6.88644016 20.4386087,6.55890632 20.2398261,6.2017463 C20.0410435,5.84623218 19.3351304,5.33764948 19.3351304,5.33764948 L17.8606957,4.62332945 L17.0358261,4.29579561 L16.5005217,3.99788794 L14.832,4.20527118 L12.8473043,4.41430031 L12.1366957,4.59370327 L11.0911304,5.39525594 L10.6090435,6.0815957 L10.6372174,6.43875571 L10.6622609,6.67576513 L10.1285217,6.82554191 C10.1285217,6.82554191 9.78730435,7.33247871 9.78730435,7.41971134 C9.78730435,7.51352757 9.33495652,9.09029852 9.33495652,9.09029852 L9.45078261,10.8760986 L9.4773913,12.0413949 L9.6746087,11.9212443 L9.7293913,12.2471322 L9.81547826,13.079957 L10.1144348,13.647792 L9.61826087,13.647792 L9.4773913,14.0954765 L9.7293913,14.7752326 L10.0158261,16.149558 L9.95791304,17.3378969 L10.5511304,18.2332658 L11.2053913,18.2645379 L11.3446957,18.2332658 L11.9394783,19.3080377 L12.1085217,19.691532 L11.3446957,20.4371242 L11.0316522,20.9720412 L10.5511304,20.4371242 L9.92973913,20.2873474 L9.648,20.8831627 L9.84365217,21.7752398 L9.92973913,22.2854684 L9.33495652,23.1495652 L8.22991304,24.6078315 L7.15304348,27.6774325 L6.38921739,29.0435285 L6.55669565,28.742329 L6.38295652,28.791706 L5.68017391,29.8006419 L5.10573913,29.8006419 L4.85373913,31.0087315 L4.85373913,31.8827037 L3.4466087,34.8321542 L3.57495652,35.6369987 L2.80956522,36.379299 L2.36347826,37.5857427 L1.53234783,39.7994765 L0.83426087,40.4710031 L0.576,41.8798924 L0,43.2887817 L0.386608696,44.5643532 L0.386608696,45.8415706 L0.320869565,48.1211403 L0.638608696,49.197558 L0.959478261,50.2015563 L2.0426087,50.6739292 L3.1946087,51.0113384 L4.85373913,51.0113384 L6.06521739,50.6739292 L6.44713043,50.0040484 L7.91530435,48.4585495 L8.61652174,47.9878225 L8.55234783,49.5300296 L8.42556522,52.4169359 L7.85269565,55.8420511 L7.82452174,55.9095329 L7.51147826,56.3654469 L7.60226087,56.4872434 L7.27826087,57.3167763 L6.95895652,58.5265119 L6.00104348,65.1002313 L6.13095652,65.8392398 L5.87426087,69.1952273 L5.61756522,73.9633958 L5.48921739,76.4437651 L5.74434783,76.7795285 L6.82904348,77.3177373 L7.79008696,77.7851726 L7.7493913,77.7654218 L8.68226087,82.9862125 L9.25513043,87.1849 L10.0205217,87.9222627 L10.7906087,90.5375957 L10.5949565,97.1853805 L10.6606957,99.8698413 L10.8516522,100.070641 L11.5231304,101.28696 L12.6751304,124.332834 L12.4466087,125.101468 C12.4466087,125.101468 12.1288696,125.975441 12.0646957,126.179532 C12.0005217,126.380332 11.5528696,128.39162 11.5528696,128.39162 L12.8926957,128.729029 L11.606087,128.404787 L11.2492174,128.781698 L9.88904348,129.731381 L8.69947826,130.625104 L7.22973913,131.222566 L6.32191304,131.462867 L4.96486957,131.397031 L4.62678261,131.757483 L4.45617391,132.888215 L4.51408696,133.482385 L4.28713043,134.018948 L4.62678261,134.257603 L7.00591304,134.614763 L11.6452174,134.552219 L13.3998261,134.079846 L14.7568696,133.065972 L14.8132174,133.482385 L18.6057391,133.604181 L21.2071304,133.005074 L21.2666087,131.339424 L21.0975652,131.044809 L21.3793043,130.625104 L21.3245217,128.603941 L21.2071304,128.4196 L20.2977391,128.055857 L21.3182609,128.459102 L21.1914783,127.453458 L20.8721739,126.245368 L20.361913,125.437232 L20.5513043,124.770643 L20.7453913,119.195984 L20.628,118.109691 L20.6373913,118.08994 L20.628,118.098169 L20.5513043,117.383849 L21.0646957,115.772515 L21.2556522,113.560427 L21.7017391,116.312369 L21.7017391,118.461913 L21.5749565,120.203274 L21.9584348,122.688581 L23.4907826,128.261594 L23.616,129.800509 L24.1262609,131.013537 L24.5113043,131.615935 L25.1326957,131.316382 L25.0012174,132.41255 L25.0012174,133.959695 L24.717913,134.614763 L24.717913,136.339665 L24.5488696,136.701762 L24.6067826,137.412791 L25.6241739,137.946062 L27.7763478,138.365766 L31.0022609,138.064567 L32.6457391,136.937126 L32.5283478,136.101009 L32.5862609,135.088782 L31.910087,133.837899 L32.0775652,131.816735 L31.7488696,131.09254 L30.5718261,131.278526 L31.8506087,131.077727 L32.6175652,128.863993 L33.3829565,125.172242 L33.3203478,121.814609 L33.1278261,121.009764 L33.573913,119.869156 L33.408,116.045734 L33.4424348,116.109924 L33.4048696,115.978252 L33.2561739,112.553137 L32.2951304,108.59475 L31.8506087,102.960839 L31.4029565,101.614494 L31.5970435,96.7146535 L31.4029565,94.1635105 L30.8285217,92.5521757 L32.3608696,87.5864993 L32.8726957,80.4037974 L32.810087,74.0934218 L32.1714783,67.9229476 L33.7664348,66.176649 L33.8274783,65.1002313 L34.2125217,65.0360412 L34.4050435,65.5742501 L36.5102609,61.2784545 L36.381913,60.068719 L36.4476522,59.6671197 L36.381913,57.2509404 L37.0846957,56.3769682 L37.454087,55.7449431 L37.5276522,55.7070874 L37.4806957,55.7005038 L37.5933913,55.5062878 L37.9158261,53.8916611 L38.2961739,52.8876629 L38.2351304,52.1503003 L38.808,51.277974 L39.3229565,49.197558 L39.6391304,48.5227396 L39.3824348,47.182978 L39.3824348,47.182978 Z" id="Fill-2" fill="#265B80" sketch:type="MSShapeGroup"></path>
                    <g id="Group-6">
                        <mask id="mask-2" sketch:name="Clip 4" fill="white">
                            <use xlink:href="#path-1"></use>
                        </mask>
                        <g id="Clip-4"></g>
                        <path d="M111.905217,70.9135455 L111.905217,70.9135455 L111.257217,70.9629225 L111.905217,70.9135455 L111.905217,70.9135455 Z M105.608348,12.6635446 C105.685043,12.6503774 105.758609,12.6355643 105.825913,12.6273348 C105.760174,12.640502 105.688174,12.6503774 105.608348,12.6635446 L105.608348,12.6635446 Z M106.821391,13.2198584 C106.818261,13.2165666 106.810435,13.2066912 106.799478,13.2050453 C106.799478,13.2033994 106.796348,13.2033994 106.793217,13.2017535 C106.785391,13.1968158 106.785391,13.1918781 106.769739,13.1836486 C106.766609,13.1820027 106.761913,13.1754191 106.757217,13.1754191 C106.755652,13.1754191 106.752522,13.1721273 106.749391,13.1721273 C106.796348,13.2033994 106.832348,13.2247961 106.832348,13.2247961 C106.832348,13.2247961 106.827652,13.2198584 106.821391,13.2198584 L106.821391,13.2198584 Z M108.292696,13.5951233 L108.269217,13.5951233 C108.266087,13.5934774 108.259826,13.5934774 108.259826,13.5934774 C108.234783,13.5885397 108.222261,13.5885397 108.21287,13.5868938 C108.225391,13.5885397 108.252,13.5934774 108.292696,13.5951233 L108.292696,13.5951233 Z M108.940696,13.6017069 L108.666783,13.6017069 L108.993913,13.6017069 L108.940696,13.6017069 L108.940696,13.6017069 Z M108.550957,13.6017069 L108.458609,13.6017069 C108.450783,13.6017069 108.444522,13.5967692 108.43513,13.5967692 C108.430435,13.5967692 108.419478,13.5951233 108.413217,13.5951233 C108.461739,13.5967692 108.514957,13.6017069 108.580696,13.6017069 L108.550957,13.6017069 L108.550957,13.6017069 Z M105.36887,12.7310264 C105.442435,12.7096298 105.51287,12.689879 105.589565,12.67342 C105.581739,12.6750659 105.578609,12.6750659 105.573913,12.6750659 C105.508174,12.6915249 105.439304,12.7129216 105.36887,12.7310264 L105.36887,12.7310264 Z M105.18887,12.7853411 C105.226435,12.7721739 105.26087,12.7639444 105.298435,12.7524231 L105.290609,12.7524231 C105.254609,12.7639444 105.223304,12.7721739 105.18887,12.7853411 L105.18887,12.7853411 Z M104.897739,12.8775114 C104.958783,12.8594065 105.037043,12.8347181 105.129391,12.8018001 C105.104348,12.8116755 105.079304,12.819905 105.054261,12.8281345 C105.04487,12.8281345 105.038609,12.8314263 105.030783,12.8347181 C104.999478,12.8445935 104.965043,12.8577606 104.94,12.8659901 C104.924348,12.8725737 104.913391,12.8742196 104.897739,12.8775114 L104.897739,12.8775114 Z M104.877391,12.8890327 C104.866435,12.8890327 104.860174,12.8939704 104.849217,12.8939704 C104.860174,12.8939704 104.874261,12.8890327 104.880522,12.884095 C104.880522,12.8890327 104.880522,12.8890327 104.877391,12.8890327 L104.877391,12.8890327 Z M129.607826,75.8907432 L127.613739,66.5058288 L126.118957,59.9502143 L126.216,58.898485 L125.278435,56.9875966 L125.269043,56.2271914 L125.269043,53.3468687 L124.67113,50.8269978 L123.325043,47.9927602 L121.781739,46.7336477 L122.672348,47.4611349 L125.968696,46.9459686 L128.412,44.4771206 L129.908348,40.1303021 L127.862609,35.7736082 L126.419478,35.3028812 L125.920174,32.5756271 L126.067304,31.1091313 L125.021739,30.4820439 L125.021739,28.3802313 L123.575478,27.7004751 L123.228,25.7056459 L120.781565,24.1897732 L119.088,23.5577481 L117.090783,23.2450273 L116.093739,22.665671 L114.398609,19.4693357 L113.199652,18.3682295 L112.872522,18.2184527 L112.852174,18.2612461 L113.118261,17.6736602 L113.107304,17.6917651 L113.770957,16.70258 L114.04487,16.1874137 L114.33913,15.5372837 L114.240522,14.9908454 L114.608348,14.704459 L115.129565,14.2913384 L115.577217,13.2527763 L115.577217,12.4726203 L115.871478,11.7418413 L115.970087,11.0950031 L115.921565,9.61204841 C115.921565,9.61204841 115.99513,8.77922367 115.99513,8.70515823 C115.99513,8.62944688 115.871478,7.69128463 115.747826,7.51023577 C115.624174,7.33247871 114.537913,6.18528732 114.517565,6.0783039 C114.487826,5.97790408 114.218609,5.11874496 114.166957,4.90971582 C114.12,4.70562438 113.822609,3.9238225 113.722435,3.8003801 C113.623826,3.6670623 112.266783,2.52316271 112.188522,2.49353653 C112.114957,2.47049395 110.809565,2.54949709 110.809565,2.54949709 L109.596522,1.97672434 L108.018783,2.31413357 L106.387826,2.6531887 C106.387826,2.6531887 105.545739,2.75852622 105.350087,2.98895204 C105.151304,3.22596145 104.681739,3.53703631 104.508,3.76910802 C104.337391,4.00611744 103.71913,4.57559839 103.667478,4.67929 C103.622087,4.78462752 102.878609,5.58618019 102.878609,5.58618019 L102.681391,6.78110264 C102.681391,6.78110264 102.310435,7.45592111 102.260348,7.56290453 C102.208696,7.66495025 101.645217,8.8615186 101.570087,9.04092156 C101.493391,9.22361632 101.222609,10.0021264 101.222609,10.0021264 L101.075478,11.455455 L101.050435,12.2109225 L101.172522,12.4067844 L100.934609,13.3301336 C100.934609,13.3301336 101.181913,14.6945836 101.181913,14.8542358 C101.181913,15.0089502 102.182087,16.2680628 102.182087,16.2680628 L102.728348,16.6334523 L103.06487,18.1345119 L102.966261,17.7049323 L102.080348,17.790519 L101.535652,17.8448337 L100.787478,19.3080377 L100.086261,20.2017606 L98.892,22.7199857 L98.6415652,24.1897732 L98.4881739,24.6094774 L97.6429565,24.7115231 L94.6017391,26.2866481 L92.2554783,27.3861085 L91.5605217,28.0148418 C91.5605217,28.0148418 91.7123478,28.1201793 91.310087,28.4888606 C90.9109565,28.8509583 89.5633043,31.3724751 89.5633043,31.3724751 L89.1156522,33.0529377 L89.0686957,34.4667647 L88.5678261,36.0896208 L88.2187826,38.2391645 L87.9636522,40.6010291 L87.4189565,44.6910874 L86.5236522,48.6774541 C86.5236522,48.6774541 87.069913,49.4625477 87.3688696,50.4550247 C87.6709565,51.4557311 89.2126957,52.9781874 89.2126957,52.9781874 L92.6561739,53.8669727 L92.9488696,53.8850775 L93.254087,56.5975186 L93.657913,59.6753492 L93.6031304,60.685931 L93.3558261,63.4082474 L92.5074783,70.0198225 L91.706087,81.710641 L91.7593043,84.1778431 L91.0596522,86.8524285 C91.0596522,86.8524285 92.4573913,88.0078494 92.606087,88.1082492 C92.7563478,88.2152326 95.7991304,89.4200305 95.9478261,89.4726992 C96.0965217,89.5270139 104.121391,90.2594388 104.121391,90.2594388 C104.121391,90.2594388 99.468,89.8380887 97.1812174,89.6093088 L97.3455652,92.6739722 L99.0876522,105.627195 L99.6386087,110.762399 L99.5384348,111.865151 L97.2422609,121.095351 L96.0965217,126.493899 L95.6457391,129.696818 L96.048,131.951699 C96.048,131.951699 96.1481739,134.72833 96.1481739,134.889628 C96.1481739,135.044342 95.6003478,137.611944 95.6003478,137.611944 L95.8946087,139.34343 L97.9888696,140.551519 L100.386783,141.91597 L103.177565,140.026478 L103.525043,138.085963 L102.977217,135.30604 L102.430957,132.896445 L102.030261,132.318734 L102.330783,131.270297 L103.02887,130.852238 L103.828696,129.489434 L105.121565,129.380805 L104.176174,132.002722 L103.177565,134.417255 L103.478087,135.30604 L107.618087,136.356124 L109.961217,136.096072 L111.204,135.251726 L111.009913,133.943236 L111.105391,131.006953 L110.308696,128.803095 L110.761043,127.968624 L111.157043,127.231261 L110.260174,121.827776 L109.862609,118.735132 L109.809391,116.585589 L109.209913,114.487068 L111.009913,109.192212 L112.005391,104.628134 L113.004,98.8065908 L114.199826,90.3121076 L114.962087,88.19219 L115.295478,89.054641 L116.791826,89.0019722 L121.481217,88.0029117 L125.021739,86.8524285 L129.809739,85.0172515 L131.406261,84.1778431 L129.607826,75.8907432 L129.607826,75.8907432 Z" id="Fill-3" fill="#265B80" sketch:type="MSShapeGroup" mask="url(#mask-2)"></path>
                        <path d="M171.724696,60.376502 C171.688696,60.4011905 171.696522,60.4110659 171.696522,60.4110659 C171.696522,60.4110659 171.724696,60.4390462 171.688696,60.4390462 C171.654261,60.4390462 171.619826,60.4308167 171.619826,60.4308167 L171.513391,60.4225872 L171.453913,60.4225872 L171.494609,60.376502 C171.494609,60.376502 171.504,60.3666266 171.54,60.3452299 C171.574435,60.3304169 171.637043,60.3090202 171.637043,60.3090202 L171.749739,60.3452299 C171.749739,60.3452299 171.757565,60.3452299 171.724696,60.376502 L171.724696,60.376502 Z M170.553913,59.0219274 C169.963826,59.0713043 169.542783,59.3017302 169.542783,59.3017302 L169.436348,59.3395858 L169.364348,59.2342483 L169.392522,59.1058682 L169.442609,58.9939471 C169.442609,58.9939471 169.506783,58.7915016 169.542783,58.6960394 C169.56,58.6351412 169.982609,57.9027163 170.115652,57.6706446 C170.419304,57.2641076 170.419304,57.0155769 170.419304,57.0155769 L170.466261,56.9777212 L170.517913,57.0057015 L170.57113,57.0715374 L170.633739,57.143957 C170.633739,57.143957 170.641565,57.1785208 170.641565,57.2460027 L170.702609,57.2706912 L170.746435,57.3282976 L170.685391,57.4402187 C170.685391,57.4402187 170.702609,57.4698449 170.737043,57.5044088 C170.737043,57.5044088 170.746435,57.5504939 170.754261,57.5867037 L170.754261,57.6541856 L170.799652,57.6541856 L170.868522,57.6443102 L170.904522,57.7364805 L171.081391,58.1907485 L171.090783,58.2631681 L171.090783,58.3668597 C171.090783,58.3668597 171.108,58.4211744 171.125217,58.475489 C171.144,58.5314496 171.159652,58.557784 171.195652,58.6038691 C171.230087,58.6516002 171.223826,58.6450166 171.223826,58.6450166 C171.223826,58.6450166 171.239478,58.68781 171.24887,58.7371869 C171.258261,58.7832721 171.303652,58.8359408 171.303652,58.8359408 L171.334957,58.882026 L171.36313,58.9495078 C171.36313,58.9495078 171.144,58.9758422 170.553913,59.0219274 L170.553913,59.0219274 Z M170.466261,61.9088337 C170.466261,61.9088337 170.403652,61.9828991 170.377043,62.0125253 C170.350435,62.0372138 170.419304,61.9927745 170.333217,62.0684859 C170.244,62.1409054 170.057739,62.3729771 170.057739,62.3729771 C170.057739,62.3729771 169.963826,62.5276916 169.909043,62.6330291 C169.857391,62.7350749 169.782261,62.8535796 169.752522,62.8897893 C169.725913,62.927645 169.735304,62.927645 169.691478,62.9720843 C169.646087,63.0198153 169.655478,63.0115858 169.602261,63.0675464 C169.549043,63.1235069 169.56,63.1333823 169.525565,63.1679462 C169.488,63.2058019 169.470783,63.2535329 169.442609,63.2979722 C169.41913,63.3440574 169.329913,63.4724375 169.303304,63.5020636 C169.276696,63.5316898 169.171826,63.6600699 169.120174,63.7061551 C169.065391,63.7522403 169.029391,63.7785746 169.029391,63.7785746 L168.91513,63.8625155 L168.854087,63.8937875 L168.791478,63.8230139 L168.750783,63.7785746 L168.680348,63.7522403 L168.616174,63.72426 C168.616174,63.72426 168.606783,63.7621156 168.566087,63.6765289 C168.51913,63.5958799 168.336,63.3078476 168.336,63.3078476 L168.237391,63.1432577 C168.237391,63.1432577 168.23113,63.1119857 168.212348,63.0757759 C168.193565,63.041212 168.176348,62.9918351 168.176348,62.9918351 L168.193565,62.9194155 L168.536348,62.5606096 L168.59113,62.4832524 C168.59113,62.4832524 168.642783,62.3729771 168.714783,62.3647476 C168.785217,62.3548723 168.854087,62.2824527 168.854087,62.2824527 L168.932348,62.2511806 L169.110783,62.1409054 L169.23287,62.0767154 L169.41913,61.8627485 L169.459826,61.854519 L169.56,61.854519 C169.602261,61.854519 169.481739,61.8627485 169.646087,61.854519 C169.813565,61.8479355 170.208,61.8380601 170.272174,61.8380601 L170.474087,61.8380601 L170.517913,61.8479355 L170.466261,61.9088337 L170.466261,61.9088337 Z M170.510087,56.541558 L170.553913,56.4987647 L170.605565,56.5053483 L170.641565,56.541558 C170.641565,56.541558 170.676,56.5876432 170.721391,56.6057481 C170.765217,56.6271448 170.78087,56.6271448 170.78087,56.6271448 L170.92487,56.6271448 C170.92487,56.6271448 170.948348,56.6419579 170.948348,56.6814594 L170.948348,56.8049018 L170.940522,56.8493411 L170.912348,56.8855509 C170.912348,56.8855509 170.885739,56.8855509 170.85287,56.9020099 C170.813739,56.9217606 170.837217,56.9217606 170.791826,56.9332819 C170.746435,56.9431573 170.702609,56.9661999 170.702609,56.9661999 L170.660348,56.9892425 L170.614957,56.997472 L170.605565,56.9497409 C170.605565,56.9497409 170.589913,56.9431573 170.580522,56.8937804 C170.57113,56.8493411 170.560174,56.8114854 170.560174,56.8114854 L170.517913,56.7472954 L170.481913,56.6271448 L170.510087,56.541558 L170.510087,56.541558 Z M164.800174,52.221074 L164.772,52.2836181 C164.772,52.2836181 164.753217,52.2951394 164.743826,52.3313492 C164.736,52.3675589 164.728174,52.3971851 164.728174,52.3971851 L164.7,52.4514998 L164.615478,52.3774343 L164.587304,52.3050148 L164.571652,52.2375329 L164.549739,52.155238 L164.640522,52.1453626 L164.693739,52.1453626 L164.736,52.155238 L164.800174,52.1749888 L164.800174,52.221074 L164.800174,52.221074 Z M163.892348,46.1493537 C163.892348,46.1493537 163.735826,46.062121 163.684174,46.0505997 C163.630957,46.0423702 163.602783,46.0324948 163.55113,46.0324948 C163.497913,46.0324948 163.29287,46.0176818 163.29287,46.0176818 L163.228696,45.9847638 L163.197391,45.8975312 L163.166087,45.834987 L163.094087,45.7477544 L163.062783,45.6802725 L163.051826,45.5173286 L163.023652,45.2260045 L162.950087,44.518268 L162.878087,44.2894881 L162.887478,44.1660457 L162.907826,44.0689377 L162.907826,43.9932264 L162.950087,43.7973644 C162.950087,43.7973644 163.01113,43.7134236 163.075304,43.6558171 C163.136348,43.6015025 163.145739,43.5784599 163.145739,43.5784599 L163.197391,43.6015025 L163.228696,43.7331744 C163.228696,43.7331744 163.300696,44.0277902 163.324174,44.080459 C163.342957,44.1364195 163.372696,44.3224061 163.418087,44.3981174 C163.458783,44.4738288 163.569913,44.9429099 163.569913,44.9429099 C163.569913,44.9429099 163.660696,45.2029619 163.735826,45.380719 C163.809391,45.5568301 163.86887,45.7131905 163.86887,45.7131905 C163.86887,45.7131905 163.965913,45.8925935 163.995652,45.9946392 C164.031652,46.1147898 164.003478,46.1625208 164.003478,46.1625208 L163.892348,46.1493537 L163.892348,46.1493537 Z M143.794957,51.2532855 C143.794957,51.2977248 143.762087,51.3191215 143.762087,51.3191215 C143.762087,51.3191215 143.721391,51.3635607 143.658783,51.4162295 L143.594609,51.47219 L143.533565,51.570944 L143.42087,51.5923407 L143.27687,51.4935867 L143.182957,51.4507934 C143.182957,51.4507934 143.142261,51.4063541 143.098435,51.375082 C143.057739,51.3421641 143.006087,51.3306428 143.006087,51.3306428 L142.902783,51.2680986 L142.902783,51.1693447 C142.902783,51.1693447 142.893391,51.1561775 142.92313,51.1018628 C142.954435,51.0475482 142.996696,50.9833581 142.996696,50.9833581 L143.06713,50.807247 L143.129739,50.6986177 L143.193913,50.5784671 L143.222087,50.5225065 L143.244,50.4632541 L143.251826,50.3941264 L143.265913,50.3398117 L143.265913,50.1867432 L143.27687,50.1324285 C143.27687,50.1324285 143.27687,50.0797597 143.286261,50.0221533 C143.295652,49.9711304 143.317565,49.9365666 143.317565,49.9365666 C143.317565,49.9365666 143.328522,49.8921273 143.337913,49.8509798 C143.34887,49.8065406 143.34887,49.717662 143.34887,49.717662 L143.449043,49.7407046 L143.524174,49.8509798 C143.524174,49.8509798 143.544522,49.9151699 143.56487,49.9596091 C143.585217,50.0024025 143.585217,50.0353205 143.585217,50.0353205 C143.585217,50.0353205 143.60713,50.0896351 143.616522,50.1324285 C143.627478,50.1768678 143.638435,50.351333 143.649391,50.4714836 C143.658783,50.5916342 143.658783,50.547195 143.669739,50.5916342 C143.677565,50.6344276 143.688522,50.6689915 143.688522,50.6689915 C143.688522,50.6689915 143.732348,50.7677454 143.740174,50.807247 C143.754261,50.8516862 143.754261,50.8632075 143.771478,50.9520861 C143.794957,51.0393187 143.782435,51.0245056 143.782435,51.0821121 C143.782435,51.131489 143.794957,51.1792201 143.794957,51.1792201 L143.794957,51.2532855 L143.794957,51.2532855 Z M179.865391,69.4059023 C179.935826,69.0915356 180.286435,68.1681865 179.107826,64.8335957 C179.001391,64.5225208 178.473913,63.1679462 178.473913,63.1679462 C178.473913,63.1679462 177.470609,60.0226338 176.958783,59.3543989 C176.783478,59.2095598 176.237217,58.7437705 176.237217,58.7437705 L175.974261,58.557784 L175.780174,58.4294039 L175.709739,58.3750892 L175.534435,58.3207745 L175.324696,58.281273 L175.130609,58.2072075 C175.130609,58.2072075 175.041391,58.2072075 174.970957,58.1709978 C174.900522,58.134788 174.864522,58.134788 174.864522,58.134788 L174.601565,58.0985782 L174.388696,58.0985782 C174.388696,58.0985782 174.247826,58.0426177 174.180522,58.0426177 L173.952,58.0426177 L173.792348,58.1709978 L173.651478,58.2467091 L173.581043,58.3207745 L173.509043,58.39484 L173.441739,58.4853644 L173.369739,58.5791806 L173.282087,58.671351 L173.141217,58.7437705 C173.141217,58.7437705 172.753043,58.7092066 172.208348,58.8589834 L172.065913,58.9297571 L171.696522,58.9297571 L171.626087,58.7289574 L171.519652,58.5051152 L171.223826,57.5422645 L171.275478,57.4336351 L171.294261,57.3184222 L171.203478,57.2278978 L171.170609,57.0435571 L171.115826,56.7670462 L171.064174,56.6748758 L171.029739,56.5596629 L171.029739,56.4658467 L171.098609,56.3029027 C171.098609,56.3029027 171.064174,55.9687853 170.746435,55.5606024 L170.676,55.470078 L170.799652,55.063541 C170.799652,55.063541 170.885739,54.8396988 170.885739,54.7475285 C170.885739,54.6553581 170.904522,54.673463 170.904522,54.5829386 C170.904522,54.4891224 170.904522,54.4693716 170.92487,54.396952 C170.940522,54.3212407 170.992174,54.1895688 170.992174,54.1895688 L171.046957,54.0447297 C171.064174,53.9328086 171.046957,53.893307 171.115826,53.7649269 C171.187826,53.6381927 171.275478,53.3221802 171.275478,53.3221802 L171.32713,53.1740493 L171.36313,53.0440233 L171.381913,52.8975383 C171.397565,52.821827 171.469565,52.6555912 171.469565,52.6555912 L171.54,52.5420242 L171.574435,52.4136441 L171.60887,52.3050148 L171.662087,52.1914478 C171.662087,52.1914478 171.768522,52.025212 171.768522,51.9346876 C171.768522,51.8392255 171.854609,51.7305961 171.854609,51.7305961 L171.854609,51.6005701 L171.892174,51.4310426 L171.892174,51.0261515 L171.874957,50.8434567 C171.854609,50.7298897 171.838957,50.6196145 171.838957,50.6196145 L171.804522,50.5076934 C171.768522,50.3974182 171.749739,50.3595625 171.749739,50.3595625 L171.643304,50.1916809 L171.593217,49.9908812 L171.504,49.8608552 L171.453913,49.7851439 L171.397565,49.7127243 C171.345913,49.6386589 171.309913,49.5629476 171.309913,49.5629476 C171.309913,49.5629476 171.275478,49.5464886 171.203478,49.4707772 C171.134609,49.3983577 171.081391,49.3621479 171.081391,49.3621479 L170.992174,49.2683317 L170.85287,49.1959121 L170.746435,49.0823451 L170.641565,48.9901748 L170.57113,48.8782537 C170.57113,48.8782537 170.904522,47.6948525 169.725913,46.6200807 C169.691478,46.4900547 169.691478,46.5130973 169.691478,46.5130973 C169.691478,46.5130973 169.832348,46.0489538 168.492522,41.0487136 C168.282783,39.9739417 167.770957,37.386589 167.68487,35.9217391 C167.542435,34.8864688 167.509565,34.1820242 166.906957,32.2744276 C166.82087,31.8892873 166.716,31.2967638 166.716,31.2967638 L166.593913,30.9066858 L166.453043,30.6087781 L166.10087,29.7973501 L165.748696,29.0929054 C165.748696,29.0929054 165.466957,28.5020278 165.41687,28.4082116 C165.358957,28.3143953 165.307304,28.2600807 165.307304,28.2600807 L165.221217,28.222225 L165.132,28.2041201 L164.937913,28.0740941 L164.833043,27.9638189 L164.693739,27.9259632 L164.549739,27.8502519 L164.465217,27.7416226 L164.358783,27.6510982 L164.214783,27.6115966 L164.059826,27.5934917 L163.936174,27.4651116 L163.848522,27.3910462 L163.670087,27.2774792 L163.548,27.2593743 L163.47913,27.1704957 L163.405565,27.1128893 L163.321043,27.0371779 L163.142609,26.9976764 L163.056522,26.9828633 L162.984522,26.9104437 L162.93287,26.8330865 L162.812348,26.777126 L162.704348,26.7409162 L162.561913,26.7409162 L162.422609,26.7047064 L162.333391,26.6454541 L162.211304,26.5911394 L162.123652,26.5911394 L162.03287,26.6125361 C161.965565,26.6684966 161.879478,26.7047064 161.879478,26.7047064 L161.821565,26.6322869 L161.716696,26.6125361 L161.383304,26.6125361 L161.223652,26.5022609 C161.223652,26.5022609 160.996696,26.2027073 160.273565,26.1302878 C160.115478,26.1878942 159.921391,26.1681434 159.746087,26.4825101 C159.622435,26.6322869 159.429913,26.777126 159.429913,26.777126 L159.323478,26.8692963 L159.094957,26.777126 C159.094957,26.777126 158.990087,26.7968767 158.918087,26.7228113 C158.849217,26.6454541 158.918087,26.6866015 158.827304,26.6322869 C158.744348,26.5746804 158.69113,26.5746804 158.69113,26.5746804 L158.550261,26.517074 L158.373391,26.5022609 L158.18087,26.4117364 L158.110435,26.3327333 C158.110435,26.3327333 157.985217,26.0381174 157.916348,25.9459471 C157.845913,25.8521309 157.705043,25.4834496 157.705043,25.4834496 L157.633043,25.3369646 L157.633043,25.2217517 L157.667478,25.0933716 L157.723826,24.8711753 C157.723826,24.8711753 157.809913,23.7239839 157.598609,22.7430282 C157.578261,22.2788848 157.598609,21.1514442 157.617391,21.0609198 C157.633043,20.9671035 157.633043,19.7442008 157.633043,19.5598602 C157.633043,19.3738736 157.633043,19.2422017 157.617391,19.0776118 C157.598609,18.913022 157.598609,18.8932712 157.578261,18.7632452 C157.562609,18.6332192 157.545391,18.0785513 157.545391,18.00284 C157.545391,17.9320663 157.510957,17.7279749 157.510957,17.7279749 L157.492174,17.5041327 L157.440522,17.0794908 L157.404522,16.8210847 C157.404522,16.8210847 157.351304,14.638623 155.083304,9.89678888 C154.959652,9.64002869 153.868696,6.95556791 150.929217,5.93840251 C150.59113,5.84294039 150.348522,5.8248355 150.348522,5.8248355 L149.536174,5.67835052 C149.536174,5.67835052 149.379652,5.64049485 149.309217,5.64049485 L149.010261,5.64049485 L148.852174,5.67835052 L148.728522,5.71456029 L148.551652,5.73266517 L148.446783,5.76887494 L148.305913,5.86269117 L148.237043,5.91535993 L148.163478,5.99271717 L148.058609,6.06678261 L147.970957,6.12274316 L147.883304,6.13920215 L147.726783,6.0832416 L147.618783,6.06678261 L147.496696,6.04374003 C147.496696,6.04374003 145.26,5.76887494 143.287826,9.48860601 C143.220522,9.73055312 142.30487,11.4505173 142.30487,15.8022734 C142.270435,16.2631251 142.109217,19.3574146 142.109217,19.5598602 C142.109217,19.8001614 141.985565,22.2245701 141.969913,22.9668705 C141.95113,23.7042331 141.899478,25.4834496 141.916696,25.7418557 C141.933913,26.0019077 141.933913,26.4117364 141.933913,26.4825101 C141.933913,26.5549296 141.916696,26.6684966 141.933913,26.890693 C141.95113,27.1128893 141.969913,27.1458073 141.969913,27.3153348 L141.969913,27.8881076 L141.933913,28.3143953 L141.933913,28.4625262 C141.933913,28.5563424 141.899478,28.7604339 141.899478,28.7604339 L141.880696,28.9809843 L141.47687,29.1455742 L141.160696,29.2969969 L141.019826,29.3694164 C141.019826,29.3694164 140.755304,29.4039803 140.390609,29.652511 C140.318609,29.6640323 140.168348,29.7035338 140.168348,29.7035338 L140.107304,29.7282223 C140.050957,29.749619 140.086957,29.7413895 140.04,29.766078 C139.991478,29.7891206 139.980522,29.8022878 139.980522,29.8022878 L139.93513,29.8516647 L139.861565,29.8993958 L139.803652,29.9372515 L139.700348,29.9718153 L139.557913,29.9718153 L139.487478,30.0244841 L139.39513,30.0722152 L139.32313,30.1841363 L139.288696,30.2466804 C139.288696,30.2466804 139.169739,30.2730148 139.113391,30.2730148 L139.032,30.2730148 L138.936522,30.3092246 L138.866087,30.3322671 L138.822261,30.3816441 C138.822261,30.3816441 138.795652,30.3816441 138.761217,30.4310211 C138.723652,30.480398 138.689217,30.5314209 138.689217,30.5314209 C138.676696,30.5791519 138.551478,30.5659848 138.551478,30.5659848 C138.468522,30.6038404 138.407478,30.6285289 138.407478,30.6285289 L138.327652,30.6548633 C138.327652,30.6548633 138.257217,30.6779059 138.208696,30.6993026 C138.161739,30.7272828 138.174261,30.7388041 138.103826,30.789827 C138.031826,30.8359121 138.009913,30.8622465 138.009913,30.8622465 C138.009913,30.8622465 137.986435,30.9132694 137.950435,30.9741676 C137.917565,31.0367118 137.892522,31.0729216 137.892522,31.0729216 C137.892522,31.0729216 137.845565,31.1222985 137.834609,31.1700296 C137.820522,31.2243442 137.800174,31.244095 137.764174,31.3198064 C137.728174,31.3938718 137.621739,31.6045468 137.621739,31.6045468 C137.621739,31.6045468 137.058261,32.5789189 136.882957,33.3064061 C136.859478,33.4314944 136.823478,33.3195733 136.684174,35.1465208 C136.65913,35.4164482 136.332,37.4293823 136.483826,41.0075661 C136.507304,41.9325612 136.530783,44.9675984 136.471304,46.4340941 C136.471304,47.5236791 136.518261,49.1251385 136.65913,50.7809126 C136.80313,52.4350408 137.092696,54.8643873 137.246087,55.2857373 C137.316522,55.7169628 137.706261,57.2196683 138.031826,57.9751358 C138.127304,58.1709978 138.557739,59.0219274 139.546957,58.8737965 C139.744174,58.8737965 140.251304,58.7750426 140.251304,58.7750426 L141.058957,58.6680592 C141.058957,58.6680592 141.810261,58.5660134 142.843304,58.5182824 C143.594609,58.4573841 144.522783,58.3569843 144.522783,58.3569843 L144.673043,58.3569843 L144.663652,58.4689054 C144.663652,58.4689054 144.693391,58.6598297 144.632348,58.8392326 C144.585391,58.9643209 144.486783,59.1157436 144.422609,59.2161434 C144.370957,59.2935007 144.352174,59.3280645 144.334957,59.3543989 C144.264522,59.46632 143.805913,59.7642277 143.945217,60.8521667 C143.993739,61.0727172 144.134609,61.2340152 144.214435,62.5655473 C144.214435,62.7959731 144.288,63.1202152 144.145565,63.8723909 C144.134609,64.0715446 144.031304,64.7990318 144.228522,66.4350551 C144.228522,66.649022 144.214435,66.8564052 144.214435,66.8564052 L144.203478,66.9600968 L144.203478,67.0572048 L144.190957,67.2415455 L144.18313,67.3649879 L144.169043,67.4258861 L144.169043,67.5015975 L144.18313,67.6085809 L144.228522,67.6859381 L144.322435,67.720502 C144.322435,67.720502 144.309913,68.2537732 143.921739,68.7228543 C143.782435,68.8693393 143.115652,69.3482958 143.287826,70.2370811 C143.383304,70.4115464 143.430261,70.4971331 143.430261,70.4971331 L143.489739,70.5991788 L143.549217,70.6831197 L143.64313,70.8822734 L143.710435,71.0040699 L143.760522,71.1044697 L143.710435,71.2032237 L143.57113,71.3266661 C143.57113,71.3266661 142.021565,72.5215885 141.51913,74.3452443 C141.470609,74.4703326 141.223304,74.967394 141.270261,76.2116934 C141.270261,76.445411 141.201391,76.8503021 141.176348,76.9029709 C141.154435,76.9507019 141.12,77.518537 141.109043,77.5695598 C141.094957,77.6172909 141.12,77.8658216 141.12,77.8658216 L141.140348,78.0369951 L141.140348,78.1373949 L141.002609,78.4912631 C141.002609,78.4912631 140.285739,80.3577122 139.700348,82.4776298 C139.618957,82.8380816 138.902087,85.787532 138.629739,87.5897911 C138.571826,87.8613644 137.858087,91.3687745 137.786087,91.4741121 C137.728174,91.73581 136.764,95.1642169 136.764,95.1642169 L136.601217,95.6727996 L136.554261,95.9180385 L136.507304,96.1797364 C136.507304,96.1797364 136.332,97.2018395 136.050261,97.8667826 C136.018957,97.9671824 135.9,98.2864868 135.787304,98.5942698 C135.612,99.0682887 135.438261,99.647645 135.602609,100.347152 C135.663652,100.691145 136.214609,103.0168 136.214609,103.0168 C136.214609,103.0168 136.368,103.556654 136.577739,105.615674 C136.718609,106.81718 137.410435,113.183516 137.800174,116.406186 C137.986435,117.979665 138.590609,123.31896 139.274609,127.619693 C139.432696,128.602295 139.554783,129.476267 139.723826,130.304154 C139.786435,130.613583 139.883478,130.857176 139.942957,131.135333 C140.033739,131.474388 140.155826,131.879279 140.155826,131.879279 L140.245043,132.192 L140.313913,132.455344 L140.349913,132.560681 L140.245043,132.616642 C140.245043,132.616642 139.822435,132.486616 139.644,133.398444 C139.578261,133.65685 139.434261,133.911964 139.434261,133.911964 C139.434261,133.911964 138.975652,135.190827 138.571826,137.042463 C138.535826,137.151093 138.535826,137.244909 138.535826,137.244909 L138.468522,137.32062 C138.468522,137.32062 137.972348,137.765013 137.604522,137.765013 C137.548174,137.771597 137.302435,137.791347 137.01287,137.909852 C136.516696,138.115589 135.887478,138.617589 135.845217,139.85695 C135.721565,139.986976 135.704348,139.967225 135.704348,139.967225 C135.704348,139.967225 135.262957,140.095606 135.422609,140.523539 C135.458609,140.74409 135.510261,141.298758 135.493043,141.741504 C135.546261,141.855071 135.649565,141.947242 135.649565,141.947242 L135.984522,142.146395 L136.460348,142.371883 L136.776522,142.500264 C136.776522,142.500264 137.721913,142.908446 138.997565,143.064807 C140.503304,143.249147 142.389391,143.186603 142.514609,143.165207 C142.74313,143.128997 144.115826,143.040118 144.468,142.146395 C144.663652,141.764547 145.385217,139.873409 145.385217,139.873409 L145.524522,139.652859 L145.632522,139.595252 L145.735826,139.652859 C145.735826,139.652859 145.981565,139.797698 146.282087,139.89316 C146.581043,139.986976 146.421391,140.001789 146.862783,140.05775 C147.304174,140.115356 147.496696,140.151566 147.496696,140.151566 L147.797217,140.35072 L147.986609,140.503788 L148.130609,140.614064 L148.271478,140.70788 L148.360696,140.74409 L148.517217,140.816509 L148.67687,140.87247 L148.797391,140.890575 L149.029043,140.852719 C149.029043,140.852719 150.400174,140.538352 151.578783,140.133461 C151.791652,139.986976 152.494435,139.633108 152.231478,138.820034 C152.142261,138.005314 152.071826,137.042463 152.071826,137.042463 C152.071826,137.042463 152.336348,136.784057 152.214261,136.32156 C152.142261,135.804748 151.984174,133.69306 151.757217,132.952405 C151.650783,132.302275 151.156174,129.413723 151.034087,128.915016 C150.998087,128.602295 150.753913,127.046921 150.753913,127.046921 L150.049565,121.101935 L149.941565,120.292152 L149.889913,119.851052 C149.889913,119.851052 149.853913,119.770403 149.83513,119.678232 C149.821043,119.586062 149.714609,119.32601 149.714609,119.32601 C149.714609,119.32601 149.202783,118.272635 148.941391,116.56913 C148.659652,115.214555 148.498435,114.773454 148.498435,114.773454 L148.182261,113.680577 L147.953739,112.646953 C147.953739,112.646953 147.443478,110.051371 147.230609,109.108271 C147.194609,108.835052 146.26487,106.129194 146.103652,105.406645 C145.964348,104.759806 145.892348,104.560653 145.892348,104.560653 L145.878261,104.424043 C145.878261,104.424043 147.249391,103.243934 147.690783,101.8729 C147.742435,101.74452 147.864522,101.968362 147.708,99.9126347 L147.708,99.6904384 L147.77687,99.4287405 C147.77687,99.4287405 148.340348,96.8397418 148.446783,96.4496638 C148.536,96.0431268 149.061913,93.4656495 149.451652,92.6756181 C149.662957,92.0057373 151.384696,87.0285397 151.384696,87.0285397 L151.613217,86.4524751 L151.738435,86.2483837 C151.738435,86.2483837 152.336348,85.252615 152.458435,84.9366024 C152.616522,84.7506159 152.757391,84.5267736 152.757391,84.5267736 C152.757391,84.5267736 154.466609,82.5862591 154.8,81.9739848 C154.887652,81.9558799 154.959652,82.0661551 154.959652,82.0661551 L155.030087,82.230745 L155.169391,82.6422196 L155.206957,83.0652156 L155.485565,85.5307719 L155.521565,85.8978073 L155.557565,86.2319247 C155.557565,86.2319247 155.751652,88.0226625 155.80487,88.7682546 C155.875304,89.5615778 156.261913,93.3734792 156.421565,94.0779238 C156.48887,94.5980278 156.56087,95.1724464 156.56087,95.1724464 L156.579652,95.4275607 C156.579652,95.4275607 156.806609,96.7985944 156.806609,97.6873797 C156.877043,98.299654 156.945913,98.9316791 156.945913,98.9316791 L157.036696,100.039369 L157.072696,100.189146 L157.072696,100.76521 L156.894261,104.242994 L156.945913,104.611675 L156.966261,104.740056 L156.966261,105.278264 L156.928696,105.554775 L156.877043,105.851037 L156.349565,109.681043 C156.349565,109.681043 155.962957,112.256875 155.629565,113.846813 C155.504348,114.312602 155.274261,115.367623 154.873565,116.49671 L154.818783,116.755116 C154.818783,116.755116 154.624696,117.790386 154.605913,117.900662 C154.573043,118.108045 154.573043,118.124504 154.573043,118.124504 L154.483826,118.473434 C154.483826,118.473434 154.429043,118.623211 154.394609,118.717027 C154.360174,118.810844 154.236522,119.195984 154.236522,119.195984 L154.202087,119.439577 L154.169217,119.661773 L154.130087,119.882324 L154.078435,120.214795 C154.078435,120.214795 153.937565,120.692106 153.762261,121.715855 C153.745043,121.860694 153.707478,122.012117 153.707478,122.012117 L153.657391,122.198103 L153.550957,122.584889 C153.550957,122.584889 153.463304,122.584889 153.164348,123.903254 C153.040696,124.360814 152.846609,124.885856 152.846609,125.52611 C152.829391,125.682471 152.790261,126.174594 152.730783,126.694698 C152.669739,127.223032 152.585217,127.789221 152.613391,128.65661 C152.644696,129.49931 152.82,130.500016 153.006261,131.601122 C153.164348,132.373049 153.270783,132.768065 153.270783,132.768065 L153.338087,133.06268 L153.391304,133.377047 C153.391304,133.377047 153.707478,134.860002 153.707478,135.338958 C153.745043,135.710931 153.851478,136.412084 153.851478,136.412084 L153.972,136.784057 L154.078435,137.279473 L154.130087,137.542817 L154.219304,137.723866 L154.289739,137.860475 L154.341391,137.946062 L154.696696,138.005314 L154.873565,137.967459 L155.011304,137.932895 L155.117739,137.860475 L155.258609,137.746908 C155.258609,137.746908 155.293043,137.723866 155.346261,137.804515 C155.401043,137.875288 155.418261,137.893393 155.418261,137.893393 C155.433913,137.967459 155.468348,138.115589 155.468348,138.115589 L155.485565,138.260429 L155.504348,138.390455 L155.540348,138.703175 L155.593565,138.890808 L155.574783,139.060335 C155.574783,139.060335 155.169391,139.226571 155.401043,140.187776 C155.418261,140.523539 155.401043,141.446888 155.401043,141.446888 C155.401043,141.446888 155.418261,141.576914 155.485565,141.649334 C155.557565,141.726691 155.664,141.869884 155.664,141.869884 C155.664,141.869884 155.942609,142.579267 157.089913,142.68625 C157.390435,142.707647 159.060522,142.745502 161.244,142.48545 C161.453739,142.462408 162.790435,142.409739 162.843652,141.690481 C162.9,141.096312 163.00487,140.243736 163.00487,140.243736 L163.036174,139.967225 L163.056522,139.779593 C163.056522,139.779593 163.142609,139.557397 162.773217,139.098191 C162.773217,138.927017 162.86087,138.856244 162.493043,137.674489 C162.561913,137.486856 162.599478,137.35683 162.599478,137.35683 L162.65113,137.170844 L162.737217,136.891041 C162.737217,136.891041 162.878087,136.598071 162.878087,135.896918 C162.965739,135.523299 163.584,132.781232 163.584,132.781232 C163.584,132.781232 164.269565,130.248194 164.410435,129.008832 C164.482435,128.585836 165.183652,124.397024 164.937913,122.772522 C164.91913,122.421945 164.867478,121.82613 164.903478,121.715855 C164.937913,121.381737 165.044348,118.824011 165.044348,118.824011 L165.221217,115.367623 C165.221217,115.367623 165.377739,109.108271 165.221217,107.332346 C165.238435,106.204905 165.238435,102.239935 165.238435,102.239935 L165.466957,97.77955 C165.466957,97.77955 165.78313,94.0433599 166.030435,92.5620511 C166.082087,92.2838942 166.276174,90.6165988 166.276174,90.6165988 L166.593913,87.3412604 L166.698783,86.5281865 L166.838087,86.4919767 L166.96487,86.4162654 L167.104174,86.3767638 L167.509565,86.4014523 L168.143478,86.4162654 C168.143478,86.4162654 168.739826,86.4343702 169.301739,86.4557669 C169.799478,86.4738718 170.272174,86.4919767 170.272174,86.4919767 L170.553913,86.4919767 L170.765217,86.5281865 L170.868522,86.5429996 L171.134609,86.5989601 L171.488348,86.5989601 C171.574435,86.5989601 171.804522,86.6236486 171.838957,86.6236486 L172.170783,86.6236486 C172.170783,86.6236486 172.278783,86.6384617 172.36487,86.6565666 C172.454087,86.6779632 172.629391,86.6944222 172.629391,86.6944222 L173.316522,86.6944222 L173.476174,86.714173 L173.598261,86.7520287 L173.704696,86.7833008 C173.826783,86.8079892 173.933217,86.8211564 173.933217,86.8211564 L174.074087,86.9347234 L174.161739,87.0417069 L174.268174,87.1223559 L174.424696,87.2852999 L174.53113,87.3955751 L174.620348,87.4515356 L174.795652,87.4515356 L175.008522,87.3955751 L175.165043,87.3248014 C175.165043,87.3248014 175.482783,87.2276934 175.587652,86.6384617 C175.709739,86.5643962 175.74887,86.5643962 175.74887,86.5643962 L175.869391,86.5281865 L176.061913,86.4919767 C176.061913,86.4919767 176.817913,86.3224491 177.135652,85.3052837 C177.204522,85.139048 177.312522,84.9168516 177.312522,84.9168516 L177.346957,84.7127602 L177.381391,84.2683675 L177.470609,84.049463 C177.470609,84.049463 177.647478,83.2133465 177.700696,83.0652156 C177.752348,82.9187306 177.98087,82.1385746 177.98087,82.1385746 C177.98087,82.1385746 178.824522,79.4952613 178.929391,78.1242277 C179.053043,77.2535473 179.089043,76.8453644 179.123478,76.7729449 C179.159478,76.6988794 179.248696,76.478329 179.248696,76.478329 L179.370783,76.2001721 C179.370783,76.2001721 179.406783,76.1228149 179.442783,76.0158315 C179.477217,75.9006186 179.511652,75.8660547 179.511652,75.7936351 C179.511652,75.7179238 179.530435,75.6060027 179.530435,75.6060027 C179.530435,75.6060027 179.633739,74.9032039 179.123478,72.3652281 C179.179826,72.2565988 179.265913,71.9965468 179.265913,71.9965468 C179.265913,71.9965468 179.776174,69.83219 179.865391,69.4059023 L179.865391,69.4059023 Z" id="Fill-5" fill="#265B80" sketch:type="MSShapeGroup" mask="url(#mask-2)"></path>
                    </g>
                </g>
            </g>
        </g>
    </g>
</svg>