<?xml version="1.0" encoding="UTF-8" standalone="no"?>
<svg width="26px" height="41px" viewBox="0 0 26 41" version="1.1" xmlns="http://www.w3.org/2000/svg" xmlns:xlink="http://www.w3.org/1999/xlink" xmlns:sketch="http://www.bohemiancoding.com/sketch/ns">
    <!-- Generator: Sketch 3.3.2 (12043) - http://www.bohemiancoding.com/sketch -->
    <title>hospital</title>
    <desc>Created with Sketch.</desc>
    <defs></defs>
    <g id="VDM-Landing-Page-2" stroke="none" stroke-width="1" fill="none" fill-rule="evenodd" sketch:type="MSPage">
        <g id="VDM1_max_tablet-Copy" sketch:type="MSArtboardGroup" transform="translate(-553.000000, -998.000000)" fill="#FFFFFF">
            <g id="You-Have-Options-Copy" sketch:type="MSLayerGroup" transform="translate(0.000000, 829.000000)">
                <g id="Group-Copy" transform="translate(84.000000, 99.000000)" sketch:type="MSShapeGroup">
                    <g id="Group" transform="translate(0.000000, 70.000000)">
                        <g id="Hospital-Indemnity-+-Rectangle-47-Copy" transform="translate(447.000000, 0.500000)">
                            <path d="M44.5565211,3.44808083 L44.5565211,0 L25.8373396,0 L25.8373396,3.44808083 L22.9805641,3.44808083 L22.9805641,40 L31.7483353,40 L31.7483353,32.4878525 L38.6198164,32.4878525 L38.6198164,40 L47.0194359,40 L47.0194359,3.44808083 L44.5565211,3.44808083 L44.5565211,3.44808083 Z M33.7937373,29.6351904 L27.4384914,29.6351904 L27.4384914,23.624444 L33.7937373,23.624444 L33.7937373,29.6351904 L33.7937373,29.6351904 Z M33.7937373,21.7518061 L27.4384914,21.7518061 L27.4384914,15.7420881 L33.7937373,15.7420881 L33.7937373,21.7518061 L33.7937373,21.7518061 Z M31.5992236,9.44648688 L31.5992236,7.04835849 L33.9983803,7.04835849 L33.9983803,4.65023009 L36.3954804,4.65023009 L36.3954804,7.04835849 L38.7946371,7.04835849 L38.7946371,9.44648688 L36.3954804,9.44648688 L36.3954804,11.8446153 L33.9983803,11.8446153 L33.9983803,9.44648688 L31.5992236,9.44648688 L31.5992236,9.44648688 Z M42.5615086,29.6351904 L36.2072911,29.6351904 L36.2072911,23.624444 L42.5615086,23.624444 L42.5615086,29.6351904 L42.5615086,29.6351904 Z M42.5615086,21.7518061 L36.2072911,21.7518061 L36.2072911,15.7420881 L42.5615086,15.7420881 L42.5615086,21.7518061 L42.5615086,21.7518061 Z" id="hospital"></path>
                        </g>
                    </g>
                </g>
            </g>
        </g>
    </g>
</svg>