<?xml version="1.0" encoding="UTF-8" standalone="no"?>
<svg width="103px" height="90px" viewBox="0 0 103 90" version="1.1" xmlns="http://www.w3.org/2000/svg" xmlns:xlink="http://www.w3.org/1999/xlink" xmlns:sketch="http://www.bohemiancoding.com/sketch/ns">
    <!-- Generator: Sketch 3.3.1 (12002) - http://www.bohemiancoding.com/sketch -->
    <title>profile-medium</title>
    <desc>Created with Sketch.</desc>
    <defs></defs>
    <g id="Page-1" stroke="none" stroke-width="1" fill="none" fill-rule="evenodd" sketch:type="MSPage">
        <g id="Tablet-Final" sketch:type="MSArtboardGroup" transform="translate(-92.000000, -959.000000)" fill="#265B80">
            <g id="Body" sketch:type="MSLayerGroup" transform="translate(0.000000, 413.000000)">
                <g id="Block-Section-Copy-2" transform="translate(37.000000, 416.000000)" sketch:type="MSShapeGroup">
                    <g id="Block-One" transform="translate(1.000000, 130.000000)">
                        <g id="IN-PERSON-+-profile-medium" transform="translate(44.000000, 0.000000)">
                            <path d="M10,90 L10,80.8683748 C10,80.8683748 10.6003349,75.2628527 17.4198122,73.5235919 C17.4198122,73.5235919 28.4027705,69.5540683 37.0048436,65.8477624 C41.4536627,63.9323483 42.4109259,62.7812776 46.8986083,60.8182818 C46.8986083,60.8182818 47.3670127,58.5374003 47.1982644,57.179805 L50.7082293,57.179805 C50.7082293,57.179805 51.5100394,57.6424605 50.7082293,52.2829456 C50.7082293,52.2829456 46.4302039,51.1592091 46.2307741,42.6228605 C46.2307741,42.6228605 43.0173971,43.6939536 42.8210354,38.5207158 C42.6870595,35.0138477 39.9461778,31.9696352 43.8907975,29.4559073 L41.8852493,24.0963924 C41.8852493,24.0963924 37.8751758,2.4599074 49.4052878,5.63572873 C44.5412455,-0.120637256 76.9777393,-5.87599086 79.0845364,12.3852349 C79.0845364,12.3852349 80.5869078,22.244758 79.0845364,28.9932518 C79.0845364,28.9932518 83.8217618,28.4506186 80.6544071,37.4637959 C80.6544071,37.4637959 78.9168108,43.9480598 76.2424058,42.4922641 C76.2424058,42.4922641 76.6791059,50.6965535 72.4675571,52.0875572 C72.4675571,52.0875572 72.7672132,56.4539319 72.7672132,56.7515702 L76.7793322,57.3468469 C76.7793322,57.3468469 76.1759291,60.9205317 76.8795585,61.3163705 C76.8795585,61.3163705 81.6362155,64.5417982 87.3061588,65.9824083 C98.2359358,68.7593537 111.169216,73.5246043 111.169216,77.6935658 C111.169216,77.6935658 112.272727,83.2515062 112.272727,90 L10,90 L10,90 Z" id="profile-medium"></path>
                        </g>
                    </g>
                </g>
            </g>
        </g>
    </g>
</svg>