<?xml version="1.0" encoding="UTF-8" standalone="no"?>
<svg width="162px" height="90px" viewBox="0 0 162 90" version="1.1" xmlns="http://www.w3.org/2000/svg" xmlns:xlink="http://www.w3.org/1999/xlink" xmlns:sketch="http://www.bohemiancoding.com/sketch/ns">
    <!-- Generator: Sketch 3.3.1 (12002) - http://www.bohemiancoding.com/sketch -->
    <title>Shape Copy</title>
    <desc>Created with Sketch.</desc>
    <defs></defs>
    <g id="Page-1" stroke="none" stroke-width="1" fill="none" fill-rule="evenodd" sketch:type="MSPage">
        <g id="Desktop-Final" sketch:type="MSArtboardGroup" transform="translate(-749.000000, -1134.000000)" fill="#265B80">
            <g id="Body" sketch:type="MSLayerGroup" transform="translate(0.000000, 548.000000)">
                <g id="Block-Section-Copy" transform="translate(55.500000, 425.000000)" sketch:type="MSShapeGroup">
                    <g id="Block-Three" transform="translate(640.000000, 161.000000)">
                        <g id="ONLINE-+-Shape-Copy" transform="translate(54.000000, 0.000000)">
                            <path d="M136.607143,0 L24.1071429,0 C21.4425,0 19.2857143,2.15839286 19.2857143,4.82142857 L19.2857143,6.42857143 L19.2857143,72.3214286 C19.2857143,74.9844643 21.4425,77.1428571 24.1071429,77.1428571 L25.7142857,77.1428571 L135,77.1428571 L136.607143,77.1428571 C139.268571,77.1428571 141.428571,74.9844643 141.428571,72.3214286 L141.428571,6.42857143 L141.428571,4.82142857 C141.428571,2.15839286 139.270179,0 136.607143,0 L136.607143,0 Z M135,70.7142857 L25.7142857,70.7142857 L25.7142857,6.42857143 L135,6.42857143 L135,70.7142857 Z M91.6071429,81.9642857 L91.6071429,83.5714286 C91.6071429,84.4601786 90.88875,85.1785714 90,85.1785714 L70.7142857,85.1785714 C69.8255357,85.1785714 69.1071429,84.4601786 69.1071429,83.5714286 L69.1071429,81.9642857 L0,81.9642857 L0,85.1785714 C0,85.1785714 0,90 4.82142857,90 L155.892857,90 C160.714286,90 160.714286,85.1785714 160.714286,85.1785714 L160.714286,81.9642857 L91.6071429,81.9642857 Z" id="Shape-Copy"></path>
                        </g>
                    </g>
                </g>
            </g>
        </g>
    </g>
</svg>