<?xml version="1.0" encoding="UTF-8" standalone="no"?>
<svg width="97px" height="90px" viewBox="0 0 97 90" version="1.1" xmlns="http://www.w3.org/2000/svg" xmlns:xlink="http://www.w3.org/1999/xlink" xmlns:sketch="http://www.bohemiancoding.com/sketch/ns">
    <!-- Generator: Sketch 3.3.2 (12043) - http://www.bohemiancoding.com/sketch -->
    <title>phone</title>
    <desc>Created with Sketch.</desc>
    <defs></defs>
    <g id="VDM-Landing-Page-2" stroke="none" stroke-width="1" fill="none" fill-rule="evenodd" sketch:type="MSPage">
        <g id="VDM1_max_tablet-Copy" sketch:type="MSArtboardGroup" transform="translate(-346.000000, -1469.000000)">
            <g id="Enrollment-Copy" sketch:type="MSLayerGroup" transform="translate(0.000000, 1336.000000)">
                <g id="Block-Two-Copy" transform="translate(296.000000, 133.000000)" sketch:type="MSShapeGroup">
                    <g id="OVER-THE-PHONE-+-Shape" transform="translate(2.000000, 0.000000)">
                        <g id="phone" transform="translate(48.000000, 0.000000)">
                            <path d="M0.5,89.48 L0.5,80.9084478 C0.5,80.9084478 1.06351436,75.6467311 7.46473035,74.0141449 C7.46473035,74.0141449 17.7740673,70.2880855 25.8485465,66.8090996 C30.0245048,65.0111642 30.9230558,63.9306925 35.1354936,62.0880939 C35.1354936,62.0880939 35.5751692,59.9471064 35.4167708,58.672777 L38.7114579,58.672777 C38.7114579,58.672777 39.4640904,59.1070563 38.7114579,54.0762583 C38.7114579,54.0762583 34.695818,53.0214442 34.5086199,45.0086584 C34.5086199,45.0086584 31.4923301,46.0140577 31.3080119,41.1581119 C31.1822532,37.8663317 28.6094789,35.0088309 32.3121619,32.6492783 L30.4296207,27.6184803 C30.4296207,27.6184803 26.6654983,7.30903308 37.4884301,10.2900707 C32.9227158,4.88676183 63.3697713,-0.515596757 65.3473515,16.6256071 C65.3473515,16.6256071 66.7575774,25.8804128 65.3473515,32.214999 C65.3473515,32.214999 69.7940271,31.7056473 66.8209368,40.1660165 C66.8209368,40.1660165 65.1899131,46.2525788 62.6795382,44.8860719 C62.6795382,44.8860719 63.0894541,52.5871649 59.1362136,53.8928537 C59.1362136,53.8928537 59.4174908,57.9914241 59.4174908,58.2708073 L63.1835332,58.8295736 C63.1835332,58.8295736 62.6171388,62.1840725 63.2776122,62.5556331 C63.2776122,62.5556331 67.7425276,65.5832346 73.0647144,66.9354872 C83.3241318,69.5421134 95.4641704,74.0150952 95.4641704,77.9283604 C95.4641704,77.9283604 96.5,83.1454138 96.5,89.48 L0.5,89.48 L0.5,89.48 Z" id="profile-medium" fill="#265B80"></path>
                            <path d="M72.2528604,31.9247717 C72.5105345,30.2564301 72.6753413,28.6842259 72.7413948,27.2696344 C72.6164817,27.0976337 72.6275996,26.9557168 72.6275996,26.8137998 C72.6275996,12.0289322 60.5986674,0 45.8137998,0 C31.0289322,0 19,12.0289322 19,26.8137998 C19,26.9563708 19.0111179,27.0982877 19.0137339,27.2402046 C19.005886,29.8195614 19.4329448,32.8711026 20.1784992,36.1044545 C20.9731033,39.5516627 22.0018376,42.6542156 23.0848535,45.0700735 L29.1369243,43.6744479 C29.0532129,41.0283837 28.6196142,37.7884919 27.8250101,34.3412836 C27.0801097,31.1079318 26.1278928,28.1773796 25.1187783,25.8321531 L22.2778235,26.4874563 C22.4544022,13.656072 32.9412139,3.26997559 45.8137998,3.26997559 C58.6863857,3.26997559 69.1731974,13.656072 69.3491221,26.4881103 L66.5081673,25.8328071 C65.4990529,28.1780336 64.54749,31.1079318 63.8019355,34.3419376 C63.0073315,37.7891459 62.5737327,41.0290377 62.4900213,43.6751019 L68.5427461,45.0707275 C69.0561323,43.9249281 69.5570926,42.6208618 70.0273151,41.2023464 L71.9552927,41.5528878 C71.0467735,46.671214 68.064089,48.3318629 65.0063967,49.7404592 C61.9487044,51.1490556 53.1367658,51.2426857 52.0805637,51.1020767 L52.4500709,49.7404589 C51.0851831,49.0707679 49.3239743,48.4174268 47.3606809,47.8922687 C45.5190307,47.3991564 43.7741717,47.0917786 42.3111846,46.9727515 L41.3485038,50.521329 C42.6741519,51.1472024 44.3379155,51.7528019 46.1795657,52.2452602 C48.1428591,52.7710722 50.236512,52.8986308 51.7563967,53 C55.0549737,52.8986299 61.9487044,53 65.7829,51.1490543 C69.6170957,49.2981086 73.7039629,46.5450289 74.2246557,39.1710376 C74.4241242,38.5190044 74.6137828,37.8381955 74.7798976,37.1161849 C75.1683707,35.4301855 75.391383,33.8390154 75.4535125,32.5094433 L72.2528604,31.9247717 Z" id="Shape" fill="#A2AFB9" transform="translate(47.226756, 26.500000) scale(-1, 1) translate(-47.226756, -26.500000) "></path>
                        </g>
                    </g>
                </g>
            </g>
        </g>
    </g>
</svg>