<?xml version="1.0" encoding="UTF-8" standalone="no"?>
<svg width="51px" height="90px" viewBox="0 0 51 90" version="1.1" xmlns="http://www.w3.org/2000/svg" xmlns:xlink="http://www.w3.org/1999/xlink" xmlns:sketch="http://www.bohemiancoding.com/sketch/ns">
    <!-- Generator: Sketch 3.3.1 (12002) - http://www.bohemiancoding.com/sketch -->
    <title>Shape</title>
    <desc>Created with Sketch.</desc>
    <defs></defs>
    <g id="Page-1" stroke="none" stroke-width="1" fill="none" fill-rule="evenodd" sketch:type="MSPage">
        <g id="Tablet-Final" sketch:type="MSArtboardGroup" transform="translate(-355.000000, -959.000000)" fill="#265B80">
            <g id="Body" sketch:type="MSLayerGroup" transform="translate(0.000000, 413.000000)">
                <g id="Block-Section-Copy-2" transform="translate(37.000000, 416.000000)" sketch:type="MSShapeGroup">
                    <g id="Block-Two" transform="translate(241.000000, 130.000000)">
                        <g id="OVER-THE-PHONE-+-Shape" transform="translate(15.000000, 0.000000)">
                            <path d="M105.251942,0 L68.6925638,0 C64.9966704,0 62,2.99667037 62,6.69256382 L62,83.3074362 C62,87.0033296 64.9966704,90 68.6925638,90 L105.351831,90 C109.047725,90 112.044395,87.0033296 112.044395,83.3074362 L112.044395,6.69256382 C111.944506,2.99667037 108.947836,0 105.251942,0 L105.251942,0 Z M80.2796892,5.79356271 L93.5649279,5.79356271 C94.0643729,5.79356271 94.36404,6.19311876 94.36404,6.59267481 C94.36404,7.09211987 93.9644839,7.3917869 93.5649279,7.3917869 L80.2796892,7.3917869 C79.7802442,7.3917869 79.4805771,6.99223085 79.4805771,6.59267481 C79.4805771,6.19311876 79.8801332,5.79356271 80.2796892,5.79356271 L80.2796892,5.79356271 Z M86.9722531,86.6037736 C85.1742508,86.6037736 83.6759156,85.1054384 83.6759156,83.3074362 C83.6759156,81.509434 85.1742508,80.0110988 86.9722531,80.0110988 C88.7702553,80.0110988 90.2685905,81.509434 90.2685905,83.3074362 C90.2685905,85.1054384 88.7702553,86.6037736 86.9722531,86.6037736 L86.9722531,86.6037736 Z M108.648169,76.6148724 L65.2963374,76.6148724 L65.2963374,13.2852386 L108.54828,13.2852386 L108.54828,76.6148724 L108.648169,76.6148724 Z" id="Shape"></path>
                        </g>
                    </g>
                </g>
            </g>
        </g>
    </g>
</svg>