<?xml version="1.0" encoding="UTF-8" standalone="no"?>
<svg width="86px" height="114px" viewBox="0 0 86 114" version="1.1" xmlns="http://www.w3.org/2000/svg" xmlns:xlink="http://www.w3.org/1999/xlink" xmlns:sketch="http://www.bohemiancoding.com/sketch/ns">
    <!-- Generator: Sketch 3.3.2 (12043) - http://www.bohemiancoding.com/sketch -->
    <title>online_youville</title>
    <desc>Created with Sketch.</desc>
    <defs></defs>
    <g id="VDM-Landing-Page-2" stroke="none" stroke-width="1" fill="none" fill-rule="evenodd" sketch:type="MSPage">
        <g id="VDM1_max_desktopHD_youville" sketch:type="MSArtboardGroup" transform="translate(-1014.000000, -516.000000)">
            <g id="Body" sketch:type="MSLayerGroup" transform="translate(0.000000, 400.000000)">
                <g id="Block-Section-Copy" sketch:type="MSShapeGroup">
                    <g id="Block-Three" transform="translate(913.000000, 116.000000)">
                        <g id="ONLINE-+-Shape-Copy" transform="translate(46.000000, 0.000000)">
                            <g id="online_youville" transform="translate(55.000000, 0.000000)">
                                <path d="M78.4127183,110.936705 L7.45580305,110.936705 C6.76536028,110.936705 6.20576754,111.505073 6.20576754,112.209509 C6.20576754,112.913946 6.7667523,113.480897 7.45580305,113.480897 L78.4127183,113.480897 C79.103161,113.480897 79.6627538,112.913946 79.6627538,112.209509 C79.6627538,111.505073 79.103161,110.936705 78.4127183,110.936705 L78.4127183,110.936705 Z" id="Shape" fill="#A4CC44"></path>
                                <path d="M78.8778612,104.483428 C78.8778612,107.112577 76.7718018,109.258415 74.1896866,109.258415 L11.6746602,109.258415 C9.08836913,109.258415 6.98509365,107.112577 6.98091772,104.428153 L0.73512218,67.5633841 C0.73512218,64.9314012 2.83700568,62.7898147 5.42329677,62.7898147 L80.4410501,62.7898147 C83.0259492,62.7898147 85.1278327,64.9314012 85.1334006,67.5109429 L78.8778612,104.483428 L78.8778612,104.483428 Z" id="Path" fill="#A4CC44"></path>
                                <path d="M42.9328686,83.0994142 C41.6925773,83.0994142 40.6847536,84.1255954 40.6847536,85.3856438 C40.6847536,86.6541965 41.6925773,87.6747081 42.9328686,87.6747081 C44.174552,87.6747081 45.1795917,86.6527791 45.1795917,85.3856438 C45.1809837,84.1255954 44.174552,83.0994142 42.9328686,83.0994142 L42.9328686,83.0994142 Z" id="Shape" fill="#FFFFFF"></path>
                                <path d="M76.4666719,62.1548297 C76.4666719,62.1548297 76.4666719,62.1548297 76.4666719,62.151995 C76.1757393,59.4915777 74.998089,56.6341451 70.8108876,50.3239813 C70.8108876,50.3239813 69.3436967,48.282958 65.8692105,46.9236932 C65.8692105,46.9236932 58.4608709,44.6332114 54.9474081,42.1315405 C54.9474081,42.2024093 54.9446241,42.2775303 54.9446241,42.351234 C54.9279198,43.3334764 54.8193421,44.5368298 54.6703958,45.7855392 C54.2249488,49.4948156 53.403656,53.6151314 53.403656,53.6151314 C52.3164871,51.7909668 51.3378958,50.5876135 50.4748423,49.8165602 C49.2860558,48.7506925 48.3199927,48.5026515 47.5933574,48.5806072 C46.7303039,48.669902 46.2096878,49.2170096 46.0579574,49.3955992 C50.8033594,43.4993096 52.4988419,38.4591159 52.6463962,37.9970509 C52.6157717,37.625698 52.6060276,37.2359193 52.6282999,36.8192103 C52.6282999,36.8192103 52.5990675,36.3004502 52.5475627,36.3557279 C53.9075679,34.5769194 55.0128331,33.0957601 55.7464286,31.0263893 C56.9950721,29.7493323 57.6367941,26.6523629 57.6367941,26.6523629 C58.6780263,23.6787053 58.0335203,22.5235428 57.5407446,22.0969122 C58.2980044,19.6065803 59.936414,12.5863105 56.0359691,8.11731984 C56.0359691,8.11731984 53.6291635,4.75104874 47.6184137,3.52785212 C47.6184137,3.52785212 45.3062657,2.57395719 44.3819632,0.092129525 C44.3819632,0.092129525 42.3106349,0.365683345 42.3106349,2.20260434 L41.3097713,1.79439967 L40.3840769,2.46198438 L39.30526,1.79439967 C39.30526,1.79439967 38.9113179,1.67108785 38.0023277,1.99708463 C38.0023277,1.99708463 31.0895478,5.05578486 29.0850365,11.3801224 C29.0850365,11.3801224 27.9742032,14.0674698 29.3300324,21.8800535 C29.0029073,22.0147043 27.5524206,22.8311137 28.8943296,26.6537803 C28.8943296,26.6537803 29.4748026,29.4559352 30.6065163,30.8279564 C31.2440622,32.8377975 32.2198695,34.7810218 33.4128321,36.4946309 C33.407264,36.4903788 33.4003039,36.4832919 33.3947358,36.4790398 C33.3947358,36.4790398 33.5450741,37.2316671 33.407264,38.2819437 C33.6870604,39.0544143 35.9296074,45.0187381 39.877381,49.5259979 C39.6699697,49.3091392 39.237051,48.9505427 38.596721,48.8399873 C37.9048862,48.7209276 36.9694476,48.8881781 35.8112855,49.8364035 C34.8897671,50.5947004 33.8262625,51.8490793 32.6332999,53.8532508 C32.6332999,53.8532508 31.6519246,48.9321168 31.2524144,45.0031469 C31.1577569,44.0620084 31.0965079,43.1775649 31.0881558,42.4320245 C31.0881558,42.2831998 31.0881558,42.1428795 31.0909398,42.0068113 C27.6512542,44.5566731 19.9993108,46.9208584 19.9993108,46.9208584 C16.5262166,48.2801232 15.0576337,50.3211466 15.0576337,50.3211466 C10.8690403,56.6341451 9.69417398,59.4915777 9.40045739,62.151995 L9.40045739,62.1548297 L76.4666719,62.1548297 L76.4666719,62.1548297 Z" id="Shape" fill="#3498B3"></path>
                            </g>
                        </g>
                    </g>
                </g>
            </g>
        </g>
    </g>
</svg>