<?xml version="1.0" encoding="UTF-8" standalone="no"?>
<svg width="135px" height="90px" viewBox="0 0 135 90" version="1.1" xmlns="http://www.w3.org/2000/svg" xmlns:xlink="http://www.w3.org/1999/xlink" xmlns:sketch="http://www.bohemiancoding.com/sketch/ns">
    <!-- Generator: Sketch 3.3.2 (12043) - http://www.bohemiancoding.com/sketch -->
    <title>onetoone_youville</title>
    <desc>Created with Sketch.</desc>
    <defs></defs>
    <g id="VDM-Landing-Page-2" stroke="none" stroke-width="1" fill="none" fill-rule="evenodd" sketch:type="MSPage">
        <g id="VDM1_max_desktopHD_youville" sketch:type="MSArtboardGroup" transform="translate(-317.000000, -540.000000)">
            <g id="Body" sketch:type="MSLayerGroup" transform="translate(0.000000, 400.000000)">
                <g id="Block-Section-Copy" sketch:type="MSShapeGroup">
                    <g id="Block-One-Copy" transform="translate(240.000000, 140.000000)">
                        <g id="IN-PERSON-+-profile-medium" transform="translate(48.000000, 0.000000)">
                            <g id="onetoone_youville" transform="translate(29.000000, 0.000000)">
                                <g id="Group" transform="translate(6.750000, 30.375000)" fill="#3498B3">
                                    <path d="M10.166625,51.01875 C10.166625,52.578 8.8785,53.848125 7.288875,53.848125 C5.700375,53.848125 4.41675,52.578 4.41675,51.01875 C4.41675,49.453875 5.700375,48.187125 7.288875,48.187125 C8.8785,48.187125 10.166625,49.453875 10.166625,51.01875" id="Fill-6"></path>
                                    <path d="M47.012625,44.735625 C47.012625,46.085625 45.932625,47.18025 44.60625,47.18025 C43.277625,47.18025 42.19875,46.085625 42.19875,44.735625 C42.19875,43.38225 43.277625,42.289875 44.60625,42.289875 C45.932625,42.289875 47.012625,43.38225 47.012625,44.735625" id="Fill-7"></path>
                                    <path d="M35.84025,53.31825 C35.84025,54.907875 34.57575,56.196 33.010875,56.196 C31.44825,56.196 30.1815,54.907875 30.1815,53.31825 C30.1815,51.72975 31.44825,50.441625 33.010875,50.441625 C34.57575,50.441625 35.84025,51.72975 35.84025,53.31825" id="Fill-8"></path>
                                    <path d="M10.616625,40.4505 C10.616625,41.82075 9.486,42.93 8.09325,42.93 C6.703875,42.93 5.572125,41.82075 5.572125,40.4505 C5.572125,39.0825 6.703875,37.97325 8.09325,37.97325 C9.486,37.97325 10.616625,39.0825 10.616625,40.4505" id="Fill-9"></path>
                                    <path d="M32.31675,37.53225 C32.31675,38.90025 31.190625,40.010625 29.795625,40.010625 C28.4085,40.010625 27.277875,38.90025 27.277875,37.53225 C27.277875,36.162 28.4085,35.05275 29.795625,35.05275 C31.190625,35.05275 32.31675,36.162 32.31675,37.53225" id="Fill-10"></path>
                                    <path d="M8.926875,28.57275 L15.154875,23.776875 L16.21125,24.38325 L9.87075,29.628 L8.926875,28.57275" id="Fill-19"></path>
                                    <path d="M6.87375,37.5885 C7.22025,37.125 8.917875,36.054 8.917875,36.054 C8.917875,36.054 20.2365,36.036 21.486375,37.1475 C22.73175,38.262375 28.294875,34.135875 28.679625,34.135875 C29.06325,34.135875 30.789,34.327125 30.789,35.191125 C30.789,36.054 29.635875,36.822375 29.06325,37.5885 C28.488375,38.356875 44.121375,39.027375 46.51875,41.04225 C48.91725,43.057125 46.51875,42.863625 46.51875,42.863625 C46.51875,42.863625 44.505,44.782875 44.217,45.06975 C43.927875,45.35775 43.614,43.536375 43.614,43.536375 L29.7315,41.999625 L34.146,49.962375 L34.525125,52.9335 L31.748625,52.9335 L31.1715,50.824125 L24.36075,42.766875 C24.36075,42.766875 8.82225,47.18025 7.576875,50.059125 C6.328125,52.9335 5.1795,49.192875 5.1795,49.192875 L5.1795,47.18025 L19.276875,40.082625 L8.442,39.123 L8.249625,39.8925 L6.87375,39.8925 C6.87375,39.8925 6.476625,38.127375 6.87375,37.5885" id="Fill-14"></path>
                                    <path d="M22.057875,26.078625 L21.101625,36.4365 C21.101625,36.4365 23.0535,38.01825 26.793,36.579375 L25.911,26.463375 L22.057875,26.078625" id="Fill-15"></path>
                                    <path d="M9.495,27.846 C9.495,27.846 10.071,28.287 10.166625,29.149875 C10.263375,30.011625 4.507875,32.73525 3.835125,31.807125 C3.166875,30.877875 1.918125,29.437875 3.835125,29.246625 C5.7555,29.052 6.161625,29.31975 7.194375,29.149875 C9.495,28.764 9.495,27.846 9.495,27.846" id="Fill-20"></path>
                                    <path d="M2.368125,2.3445 L2.368125,11.745 L10.616625,8.580375 L10.616625,0.138375 C10.616625,0.138375 2.847375,3.400875 2.368125,2.3445" id="Fill-4"></path>
                                    <path d="M1.918125,19.74825 C4.568625,21.227625 21.67425,27.615375 23.787,27.806625 C25.896375,27.997875 32.416875,27.518625 36.352125,25.7895 C40.282875,24.066 50.4315,20.565 50.8275,16.473375 C51.22125,12.380625 29.67525,26.463375 1.245375,15.624 C-0.986625,14.772375 0.865125,19.16325 1.918125,19.74825" id="Fill-21"></path>
                                    <path d="M21.101625,36.4365 L20.33325,38.356875 C20.33325,38.356875 23.499,40.94775 27.62325,38.356875 L26.793,36.579375 C26.793,36.579375 23.4045,37.97325 21.101625,36.4365" id="Fill-23"></path>
                                </g>
                                <g id="Group" fill="#A4CC44">
                                    <path d="M0.322875,24.804 C0.322875,24.804 0.102375,9.873 0.322875,8.307 C0.5085,6.982875 2.43675,2.6055 5.886,1.20825 C9.340875,-0.18675 15.6825,0.095625 17.782875,0.73125 C19.836,1.35 25.930125,3.22425 29.095875,10.513125 C32.263875,17.800875 31.08375,22.9815 29.707875,26.91225 C28.3275,30.846375 20.847375,32.956875 20.847375,32.956875 C20.847375,32.956875 11.3985,34.875 7.943625,34.311375 C5.754375,33.955875 5.53725,34.07175 2.24325,32.1885 C0.230625,31.037625 0.322875,24.804 0.322875,24.804" id="Fill-17"></path>
                                    <path d="M8.379,41.396625 C8.379,41.396625 19.5075,37.944 25.738875,36.6975 C31.975875,35.451 49.52475,37.657125 49.813875,37.848375 C50.104125,38.04075 57.10275,39.670875 58.6395,44.082 C60.17175,48.492 42.717375,54.63225 40.70475,54.055125 C38.687625,53.4825 38.9745,55.85625 30.537,54.093375 C22.096125,52.329375 8.379,47.63025 8.379,47.63025 C8.379,47.63025 6.924375,46.693125 6.6375,45.151875 C6.4485,44.132625 6.777,42.849 8.379,41.396625" id="Fill-22"></path>
                                </g>
                                <g id="Group" transform="translate(76.725000, 32.850000)" fill="#3498B3">
                                    <path d="M40.85325,51.069375 C40.85325,52.63425 42.141375,53.902125 43.729875,53.902125 C45.32175,53.902125 46.607625,52.63425 46.607625,51.069375 C46.607625,49.509 45.32175,48.241125 43.729875,48.241125 C42.141375,48.241125 40.85325,49.509 40.85325,51.069375" id="Fill-26"></path>
                                    <path d="M4.01175,44.7885 C4.01175,46.14075 5.08725,47.23425 6.41475,47.23425 C7.74675,47.23425 8.82,46.14075 8.82,44.7885 C8.82,43.43625 7.74675,42.343875 6.41475,42.343875 C5.08725,42.343875 4.01175,43.43625 4.01175,44.7885" id="Fill-27"></path>
                                    <path d="M15.184125,53.373375 C15.184125,54.96075 16.44975,56.25 18.0135,56.25 C19.571625,56.25 20.838375,54.96075 20.838375,53.373375 C20.838375,51.7815 19.571625,50.493375 18.0135,50.493375 C16.44975,50.493375 15.184125,51.7815 15.184125,53.373375" id="Fill-28"></path>
                                    <path d="M40.40775,40.5045 C40.40775,41.873625 41.533875,42.982875 42.926625,42.982875 C44.3205,42.982875 45.44775,41.873625 45.44775,40.5045 C45.44775,39.135375 44.3205,38.02725 42.926625,38.02725 C41.533875,38.02725 40.40775,39.135375 40.40775,40.5045" id="Fill-29"></path>
                                    <path d="M18.703125,37.585125 C18.703125,38.95425 19.830375,40.062375 21.223125,40.062375 C22.615875,40.062375 23.74425,38.95425 23.74425,37.585125 C23.74425,36.216 22.615875,35.10675 21.223125,35.10675 C19.830375,35.10675 18.703125,36.216 18.703125,37.585125" id="Fill-30"></path>
                                    <path d="M42.102,36.109125 C42.102,36.109125 30.787875,36.088875 29.538,37.2015 C28.288125,38.314125 22.7295,34.189875 22.34475,34.189875 C21.961125,34.189875 20.235375,34.381125 20.235375,35.245125 C20.235375,36.109125 21.385125,36.876375 21.961125,37.6425 C22.53825,38.40975 6.903,39.081375 4.505625,41.09625 C2.107125,43.111125 4.505625,42.917625 4.505625,42.917625 C4.505625,42.917625 6.519375,44.83575 6.807375,45.124875 C7.0965,45.41175 7.410375,43.590375 7.410375,43.590375 L21.288375,42.053625 L16.878375,50.016375 L16.4925,52.990875 L19.27575,52.990875 L19.852875,50.878125 L26.66025,42.820875 C26.66025,42.820875 42.197625,47.23425 43.4475,50.112 C44.692875,52.990875 45.844875,49.246875 45.844875,49.246875 L45.844875,47.23425 L31.741875,40.138875 L42.5835,39.177 L42.77475,39.9465 L44.145,39.9465 C44.145,39.9465 44.54775,38.181375 44.145,37.6425 C43.804125,37.179 42.102,36.109125 42.102,36.109125 Z" id="Fill-34"></path>
                                    <path d="M42.0975,28.62675 L35.870625,23.830875 L34.813125,24.436125 L41.153625,29.680875 L42.0975,28.62675" id="Fill-39"></path>
                                    <path d="M41.524875,27.898875 C41.524875,27.898875 40.953375,28.33875 40.85775,29.20275 C40.762125,30.065625 46.513125,32.78925 47.18475,31.861125 C47.8575,30.9285 49.10175,29.49075 47.18475,29.29725 C45.26775,29.106 44.857125,29.374875 43.826625,29.20275 C41.524875,28.818 41.524875,27.898875 41.524875,27.898875" id="Fill-40"></path>
                                    <path d="M49.10175,19.80225 C46.45575,21.281625 29.34675,27.66825 27.237375,27.860625 C25.126875,28.051875 18.603,27.5715 14.67225,25.846875 C10.737,24.12 0.588375,20.619 0.194625,16.527375 C-0.196875,12.432375 21.349125,26.51625 49.773375,15.68025 C52.009875,14.826375 50.155875,19.21725 49.10175,19.80225" id="Fill-41"></path>
                                    <path d="M29.92275,36.4905 L30.691125,38.40975 C30.691125,38.40975 27.525375,40.9995 23.39775,38.40975 L24.226875,36.633375 C24.226875,36.633375 27.619875,38.02725 29.92275,36.4905" id="Fill-43"></path>
                                    <path d="M28.960875,26.132625 L29.92275,36.4905 C29.92275,36.4905 27.970875,38.07225 24.226875,36.633375 L25.108875,26.51625 L28.960875,26.132625" id="Fill-35"></path>
                                    <path d="M48.65625,2.399625 L48.65625,11.799 L40.40775,8.634375 L40.40775,0.192375 C40.40775,0.192375 48.177,3.454875 48.65625,2.399625" id="Fill-25"></path>
                                </g>
                                <g id="Group-38" transform="translate(75.600000, 2.475000)" fill="#A4CC44">
                                    <path d="M58.570875,24.858 C58.570875,24.858 59.110875,11.464875 58.570875,8.361 C58.233375,6.408 56.464875,2.6595 53.00775,1.26225 C49.5585,-0.13275 43.378875,-0.14175 41.11875,0.784125 C37.108125,2.424375 32.963625,3.27825 29.799,10.566 C26.6355,17.857125 27.815625,23.034375 29.1915,26.967375 C30.56625,30.900375 38.0475,33.00975 38.0475,33.00975 C38.0475,33.00975 47.444625,34.639875 50.898375,34.065 C54.354375,33.487875 53.362125,34.12575 56.656125,32.2425 C58.665375,31.091625 58.570875,24.858 58.570875,24.858" id="Fill-37"></path>
                                    <path d="M50.515875,41.4495 C50.515875,41.4495 39.391875,37.998 33.156,36.750375 C26.919,35.505 9.369,37.708875 9.081,37.90125 C8.7975,38.093625 1.791,39.726 0.259875,44.134875 C-1.278,48.54825 16.182,54.68625 18.19575,54.109125 C20.208375,53.5365 19.91925,55.91025 28.362375,54.147375 C36.80325,52.385625 50.515875,47.68425 50.515875,47.68425 C50.515875,47.68425 51.975,46.747125 52.257375,45.20475 C52.4475,44.186625 52.122375,42.901875 50.515875,41.4495" id="Fill-42"></path>
                                </g>
                            </g>
                        </g>
                    </g>
                </g>
            </g>
        </g>
    </g>
</svg>