<?xml version="1.0" encoding="UTF-8" standalone="no"?>
<svg width="51px" height="92px" viewBox="0 0 51 92" version="1.1" xmlns="http://www.w3.org/2000/svg" xmlns:xlink="http://www.w3.org/1999/xlink" xmlns:sketch="http://www.bohemiancoding.com/sketch/ns">
    <!-- Generator: Sketch 3.3.1 (12002) - http://www.bohemiancoding.com/sketch -->
    <title>Phone</title>
    <desc>Created with Sketch.</desc>
    <defs></defs>
    <g id="Welcome" stroke="none" stroke-width="1" fill="none" fill-rule="evenodd" sketch:type="MSPage">
        <g id="Desktop" sketch:type="MSArtboardGroup" transform="translate(-483.000000, -667.000000)">
            <g id="Block-Section" sketch:type="MSLayerGroup" transform="translate(24.000000, 548.000000)">
                <g id="Block-Two" transform="translate(333.000000, 102.000000)" sketch:type="MSShapeGroup">
                    <g id="Phone" transform="translate(126.000000, 17.000000)">
                        <path d="M6.00111326,0 C2.68678992,0 0,2.67880984 0,6.00088831 L0,85.9991117 C0,89.3133108 2.6848566,92 6.00111326,92 L44.266928,92 C47.5812513,92 50.2680412,89.3211902 50.2680412,85.9991117 L50.2680412,6.00088831 C50.2680412,2.68668921 47.5831846,0 44.266928,0 L6.00111326,0 Z M4.03385516,79.5699611 L46.541217,79.5699611 L46.541217,11.1891892 L4.03385516,79.5699611 Z M21.721874,5.59459459 C21.3785139,5.59459459 21.1001655,5.87051057 21.1001655,6.21621622 C21.1001655,6.55952836 21.3762559,6.83783784 21.721874,6.83783784 L28.2358707,6.83783784 C28.5792308,6.83783784 28.8575792,6.56192187 28.8575792,6.21621622 C28.8575792,5.87290407 28.5814888,5.59459459 28.2358707,5.59459459 L21.721874,5.59459459 Z M25.1340206,3.72972973 C25.3053927,3.72972973 25.4443172,3.59057499 25.4443172,3.41891892 C25.4443172,3.24726285 25.3053927,3.10810811 25.1340206,3.10810811 C24.9626486,3.10810811 24.8237241,3.24726285 24.8237241,3.41891892 C24.8237241,3.59057499 24.9626486,3.72972973 25.1340206,3.72972973 Z M25.1340206,89.5135135 C27.1904853,89.5135135 28.8575792,87.8436566 28.8575792,85.7837838 C28.8575792,83.7239109 27.1904853,82.0540541 25.1340206,82.0540541 C23.077556,82.0540541 21.410462,83.7239109 21.410462,85.7837838 C21.410462,87.8436566 23.077556,89.5135135 25.1340206,89.5135135 Z" id="Body" fill="#FFFFFF"></path>
                        <path d="M4.03385516,79.5675676 L4.03385516,11.1891892 L46.5444826,11.1891892 L46.5444826,79.5675676 L46.541217,11.1891892 L4.03534306,79.5675676 Z" id="Screen" fill-opacity="0.604279891" fill="#265B80"></path>
                    </g>
                </g>
            </g>
        </g>
    </g>
</svg>