<?xml version="1.0" encoding="UTF-8" standalone="no"?>
<svg width="146px" height="91px" viewBox="0 0 146 91" version="1.1" xmlns="http://www.w3.org/2000/svg" xmlns:xlink="http://www.w3.org/1999/xlink" xmlns:sketch="http://www.bohemiancoding.com/sketch/ns">
    <!-- Generator: Sketch 3.3.2 (12043) - http://www.bohemiancoding.com/sketch -->
    <title>1-to-1 corp</title>
    <desc>Created with Sketch.</desc>
    <defs>
        <path id="path-1" d="M0,0.997748031 L145.435087,0.997748031 L145.435087,91.3714961 L0,91.3714961"></path>
        <path id="path-3" d="M0,0.997748031 L145.435087,0.997748031 L145.435087,91.3714961 L0,91.3714961"></path>
    </defs>
    <g id="VDM-Landing-Page-2" stroke="none" stroke-width="1" fill="none" fill-rule="evenodd" sketch:type="MSPage">
        <g id="VDM1_max_tablet-Copy" sketch:type="MSArtboardGroup" transform="translate(-83.000000, -1469.000000)">
            <g id="Enrollment-Copy" sketch:type="MSLayerGroup" transform="translate(0.000000, 1336.000000)">
                <g id="Block-One" transform="translate(47.000000, 132.000000)">
                    <g id="IN-PERSON-+-profile-medium" transform="translate(13.000000, 0.000000)">
                        <g id="1-to-1-corp" transform="translate(23.000000, 0.000000)">
                            <g id="Chair" transform="translate(0.000000, 34.566929)" fill="#A2AFB9" sketch:type="MSShapeGroup">
                                <path d="M0.379716535,2.92617323 C-0.497653543,3.73293701 1.44807087,12.0598504 2.27798425,16.0913543 C3.10905512,20.1251732 2.99099213,25.2215591 3.22711811,27.8316772 C3.46324409,30.4406378 4.17509449,33.7602913 4.17509449,33.7602913 L33.0322362,41.1542756 L60.506189,40.4042283 C60.506189,40.4042283 62.5236772,17.9861496 57.8972283,17.2789291 C53.271937,16.5647638 44.8524252,17.0393307 44.8524252,17.0393307 L16.5670787,5.94951181 C16.5670787,5.94951181 9.39185827,4.94250394 7.37668504,3.99452756 C5.36151181,3.04423622 1.80341732,1.62285039 0.379716535,2.92617323" id="Fill-3"></path>
                                <path d="M32.5194724,13.0078268 C32.2150551,12.3110236 31.4522756,10.7530551 24.6925906,11.5864409 C24.6925906,11.5864409 22.7352913,12.1906457 22.2607244,12.1906457 C22.2607244,12.1906457 21.6877717,12.1304567 21.081252,11.6281102 C21.081252,11.6281102 17.3969921,11.6871417 15.7718898,11.7589055 C15.7718898,11.7589055 8.95780315,12.0598504 7.41603937,12.6918346 C5.87427559,13.3238189 4.72837008,22.7318189 4.01651969,26.2123622 C3.30466929,29.6905906 2.82894488,32.573874 2.55462205,33.7602913 C2.27682677,34.9490236 1.25014173,39.2560079 1.44807087,39.4134252 C1.64484252,39.572 30.4637874,41.3522047 33.0322362,41.1542756 C33.0322362,41.1542756 33.3505433,14.9060945 32.5194724,13.0078268" id="Fill-17"></path>
                                <path d="M90.730315,23.4807087 C90.730315,23.4807087 91.8414961,39.3914331 92.1841102,39.9053543 C92.5255669,40.4181181 119.044598,39.7317323 119.044598,39.7317323 C119.044598,39.7317323 143.594756,38.0232913 143.936213,37.5973386 C144.278827,37.1690709 142.483575,29.2113937 142.483575,29.2113937 C142.483575,29.2113937 142.996339,17.7488661 143.681567,13.9858976 C144.36448,10.2229291 145.818276,1.4110315 145.56363,0.898267717 C145.306669,0.384346457 143.680409,-0.383062992 141.540228,0.641307087 C139.40352,1.66799213 129.650591,3.7213622 126.230236,3.97832283 C122.807567,4.23528346 122.637417,4.91935433 122.637417,4.91935433 L121.354929,9.53885827 C121.354929,9.53885827 110.575315,18.0069843 109.035866,18.519748 C107.49526,19.0336693 90.730315,23.4807087 90.730315,23.4807087" id="Fill-19"></path>
                                <path d="M115.00152,9.3663937 C113.885709,9.73794488 113.720189,11.6755669 113.591709,12.9603701 C113.463228,14.2428583 113.463228,23.6728504 113.52689,25.9843386 C113.591709,28.2946693 113.911173,38.6865276 113.911173,38.6865276 C113.911173,38.6865276 142.076142,38.4295669 143.936213,37.5950236 C143.936213,37.5950236 139.062063,11.3549449 138.932425,11.1628031 C138.803945,10.9718189 138.612961,10.2657559 137.651094,10.1361181 C136.688071,10.0087953 116.734268,8.7899685 115.00152,9.3663937" id="Fill-29"></path>
                            </g>
                            <g id="Group" transform="translate(0.157480, 0.000000)">
                                <mask id="mask-2" sketch:name="Clip 2" fill="white">
                                    <use xlink:href="#path-1"></use>
                                </mask>
                                <g id="Clip-2"></g>
                                <path d="M24.1195748,74.9688425 C23.8001102,74.9815748 24.1786063,75.0869055 24.2966693,75.442252 C24.4158898,75.7999134 23.8834488,75.8589449 24.0003543,76.1552598 L24.1195748,76.4515748 L22.8729685,76.4515748 L21.1541102,76.5696378 L28.2112677,77.2224567 L27.9739843,86.2971024 L27.4994173,87.1235433 L5.44247244,87.9557717 C5.44247244,87.9557717 4.61140157,88.2520866 4.43314961,88.6664646 C4.25605512,89.0808425 4.25605512,89.554252 4.25605512,89.554252 L4.61140157,89.7348189 C4.61140157,89.7348189 2.18069291,90.0913228 4.73062205,90.3274488 C4.73062205,90.3274488 7.21920472,90.1503543 5.08481102,89.7348189 L5.32209449,89.554252 C5.32209449,89.554252 5.26306299,88.7845276 5.49918898,88.903748 C5.73762992,89.021811 28.0341732,89.3806299 28.0341732,89.3806299 L28.0341732,90.1503543 C28.0341732,90.1503543 25.8997795,90.4466693 27.9739843,90.5647323 C27.9739843,90.5647323 30.4949764,90.4293071 28.2066378,90.1445669 L28.2899764,89.3887323 L30.6014646,89.3655827 L30.5956772,90.231378 C30.5956772,90.231378 30.3294567,90.5138031 30.284315,90.5138031 C30.2426457,90.5138031 29.5030157,90.5311654 29.486811,90.6295512 C29.4706063,90.7290945 29.4671339,90.9802677 30.7392047,90.9397559 C32.0135906,90.9004016 32.1536457,90.8135906 32.1420709,90.6214488 C32.1316535,90.4235197 31.2276614,90.4350945 31.2114567,90.4293071 C31.1940945,90.4235197 31.0679291,90.1920236 31.0679291,90.1920236 L31.0679291,89.3597953 L47.7796299,89.2787717 C47.7796299,89.2787717 43.391622,87.9360945 38.2906063,87.5413937 C33.193063,87.1455354 31.3341496,87.2242441 31.3341496,87.2242441 L30.8202283,86.5934173 L31.3341496,77.2224567 L38.3311181,77.143748 L38.3311181,76.9458189 L35.9976378,76.8265984 C35.9976378,76.8265984 35.6828031,76.4318976 35.484874,76.2744803 C35.2869449,76.117063 35.2869449,75.9978425 35.4455197,75.9191339 C35.6040945,75.8404252 35.9976378,75.4850787 35.9976378,75.4850787 C35.9976378,75.4850787 33.8238898,74.615811 24.1195748,74.9688425" id="Fill-1" fill="#265B80" sketch:type="MSShapeGroup" mask="url(#mask-2)"></path>
                                <path d="M40.306937,7.33148031 C40.1529921,6.67518898 40.6240866,6.71685827 40.7803465,6.5386063 C41.4158031,5.82791339 41.1773622,5.59410236 41.1773622,5.27579528 C41.1773622,4.95980315 41.4158031,4.72251969 41.0187874,4.48523622 C40.6240866,4.24911024 40.8023386,4.13567717 40.306937,3.85325197 C39.2015433,3.22126772 39.280252,2.50825984 38.8045276,2.50825984 C38.3299606,2.50825984 38.1725433,2.34968504 37.9364173,2.42955118 C37.6991339,2.50825984 37.3831417,2.50825984 37.1458583,2.34968504 C36.9097323,2.19226772 37.2234094,1.71770079 36.4340079,1.79756693 C35.6446063,1.87627559 35.8818898,1.40286614 35.2475906,1.56144094 C34.6156063,1.71770079 35.721,2.19226772 34.6156063,1.71770079 C33.5090551,1.24429134 34.1410394,1.00700787 33.5090551,1.24429134 C32.8770709,1.4815748 32.8770709,1.56144094 32.4013465,1.4815748 C31.927937,1.40286614 32.2427717,0.767409449 31.6906535,1.08687402 C31.1362205,1.40286614 30.9776457,1.08687402 30.7392047,1.24429134 C30.5042362,1.40286614 29.9509606,1.4815748 29.5551024,1.71770079 C29.1604016,1.95614173 29.0006693,1.87627559 28.5284173,2.11355906 C28.0526929,2.34968504 28.1325591,1.79756693 27.7367008,2.42955118 C27.342,3.06153543 27.4994173,2.42955118 27.342,3.06153543 C27.1822677,3.69583465 25.9970079,4.64381102 26.076874,4.95980315 C26.1544252,5.27579528 26.2342913,6.14737795 25.8384331,6.46337008 C25.4437323,6.7793622 25.047874,6.62194488 25.1277402,7.01664567 C25.2064488,7.41018898 25.1277402,7.33148031 25.1277402,7.72733858 C25.1277402,8.12551181 24.8916142,8.4380315 25.047874,8.83273228 C25.2064488,9.23090551 24.4945984,9.30961417 24.9680079,9.78302362 C25.4437323,10.2564331 25.4437323,9.23090551 25.4437323,10.2564331 C25.4437323,11.2842756 24.811748,10.2564331 25.3650236,11.6002677 C25.9171417,12.9464173 25.5212835,12.8665512 25.7620394,13.261252 C25.9970079,13.6571102 26.076874,13.5772441 26.2342913,13.9719449 C26.3940236,14.3666457 26.5942677,14.4002126 26.3940236,15.0021024 C26.1960945,15.5866299 26.751685,15.3516614 27.1139764,15.8505354 C27.2621339,16.054252 26.9820236,16.0739291 26.9114173,16.2174567 C26.8674331,16.3054252 26.8975276,16.437378 27.1429134,16.6804488 C27.2320394,16.7707323 27.252874,17.0867244 27.6475748,17.2452992 C28.0411181,17.4027165 32.1652205,20.5360157 34.7730236,23.5408346 C34.7730236,23.5408346 35.4061654,22.1159764 35.4061654,21.7212756 C35.4061654,21.3265748 34.9327559,21.0892913 35.4061654,21.0094252 C35.8818898,20.9284016 37.3021181,20.8531654 38.0139685,20.6158819 C38.7258189,20.3762835 38.7258189,20.6911181 39.041811,20.4573071 C39.041811,20.4573071 39.4758661,20.2998898 39.3578031,19.8531024 C39.2385827,19.4086299 39.1216772,18.7882205 39.3890551,18.5474646 C39.6541181,18.3101811 39.6853701,18.1631811 39.6541181,17.9837717 C39.6251811,17.8089921 38.9133307,17.4536457 39.2686772,17.3031732 C39.6251811,17.1538583 39.8624646,16.7117008 40.5164409,16.6202598 C40.5164409,16.6202598 40.7224724,16.5901654 40.7224724,16.4130709 C40.7224724,16.2348189 40.603252,15.8505354 40.7803465,15.6734409 C40.9609134,15.4963465 41.6403543,15.7637244 41.9378268,15.4674094 C42.2352992,15.1687795 42.0871417,14.8412126 41.9378268,14.5171181 C41.7885118,14.1895512 41.2248189,12.6501024 41.0789764,12.4128189 C40.9308189,12.1755354 41.0627717,11.5180866 41.2560709,11.3236299 C41.9181496,10.6638661 40.6634409,8.83273228 40.306937,7.33148031" id="Fill-5" fill="#265B80" sketch:type="MSShapeGroup" mask="url(#mask-2)"></path>
                                <path d="M28.0341732,17.7499606 C29.0006693,18.5613543 30.8503228,21.0696142 31.6200472,22.669252 C32.3909291,24.2712047 32.7775276,25.3661811 33.043748,26.3755039 C33.3099685,27.3825118 34.1410394,30.7936063 34.5276378,32.513622 C34.9119213,34.2347953 35.4744567,36.280063 35.5936772,37.1099764 C35.7117402,37.9375748 36.0080551,38.9168031 36.2164016,39.687685 C36.424748,40.4574094 36.778937,41.4077008 36.8981575,42.0593622 C37.0162205,42.7110236 37.3715669,43.480748 37.2257244,44.9056063 L39.4179921,45.6764882 C39.4179921,45.6764882 39.5372126,46.2401811 38.8832362,47.3965039 C38.2304173,48.5528268 37.046315,50.835378 36.6620315,51.0448819 L36.3634016,51.0124724 C36.3634016,51.0124724 36.1863071,51.6652913 36.0670866,51.9025748 C35.9478661,52.1387008 35.8899921,52.4060787 35.7707717,52.6445197 C35.6527087,52.8841181 35.2857874,53.0866772 35.3864882,53.2359921 C35.5635827,53.5045276 39.2119606,53.5045276 39.2119606,53.5045276 C39.2119606,53.5045276 39.4770236,50.8666299 39.5372126,50.0656535 C39.5962441,49.2646772 39.5059606,48.2264173 39.5059606,47.7252283 C39.5059606,47.2194094 39.6564331,46.2124016 39.1807087,44.6405433 C38.7061417,43.0663701 38.5880787,41.3776063 38.5880787,40.4296299 C38.5880787,39.4816535 38.3808898,38.1470787 38.2616693,37.4641654 C38.1436063,36.781252 38.0243858,35.6573386 37.8472913,35.0913307 C37.6701969,34.5311102 37.6088504,33.8169449 37.5498189,33.5808189 C37.4896299,33.3435354 37.2257244,32.3955591 37.1944724,32.0679921 C37.1655354,31.7415827 36.5127165,27.6510472 36.5127165,27.2644488 C36.5127165,26.8778504 36.571748,26.6995984 36.542811,26.3477244 C36.5127165,25.9889055 36.3043701,25.0096772 36.3043701,25.0096772 C36.3043701,25.0096772 37.6088504,26.2285039 37.6979764,26.3755039 C37.7871024,26.5248189 37.6088504,25.0096772 37.4317559,24.7457717 C37.2535039,24.4795512 36.5127165,23.0558504 36.2441811,22.522252 L36.0393071,22.1669055 C36.0393071,22.1669055 38.2304173,23.4389764 39.0614882,24.2121732 C39.8925591,24.9818976 40.3682835,26.1984094 40.4863465,26.7910394 C40.6044094,27.3825118 40.632189,29.1627165 40.632189,29.667378 C40.632189,30.1697244 40.692378,30.4382598 40.692378,30.7021654 C40.692378,30.7021654 40.514126,31.3272047 40.632189,31.7138031 C40.7514094,32.0969291 40.9308189,32.2450866 41.0187874,32.513622 C41.1079134,32.7821575 40.9308189,33.2845039 40.9898504,33.6988819 C41.0488819,34.1132598 41.5824803,34.2035433 41.6716063,34.5588898 C41.7595748,34.9142362 41.3752913,35.8031811 41.5234488,36.130748 C41.6716063,36.4571575 42.8881181,37.1678504 43.1531811,37.6424173 C43.4205591,38.1169843 44.073378,39.4816535 44.3407559,39.9562205 C44.6058189,40.4296299 44.9333858,41.0211024 45.1104803,41.1993543 C45.2875748,41.3776063 46.6233071,41.7630472 47.126811,41.9100472 C47.630315,42.0593622 48.0759449,43.275874 48.6685748,44.1960709 C49.2612047,45.1127953 49.5285827,45.2621102 48.6685748,46.3304646 C47.8085669,47.3965039 45.8223307,48.3456378 44.7238819,48.2854488 C43.6289055,48.2264173 43.3603701,47.4844724 43.3013386,47.9301024 C43.2423071,48.3757323 43.774748,49.9753701 44.013189,50.4487795 C44.2504724,50.9233465 44.8431024,51.8736378 45.2308583,52.6746142 C45.6139843,53.4732756 46.8004016,54.2777244 47.0388425,54.3332835 C47.2749685,54.392315 47.9856614,54.5416299 48.2831339,54.8379449 C48.5794488,55.1342598 48.9660472,55.6088268 49.1431417,55.6088268 C49.3213937,55.6088268 51.3955984,55.6991102 51.6629764,55.8449528 C51.9291969,55.9954252 54.508063,56.1725197 55.0439764,56.1725197 C55.5775748,56.1725197 56.5243937,56.3218346 56.8519606,56.3507717 C57.1772126,56.3808661 58.9261654,56.5880551 59.2826693,56.7061181 C59.6380157,56.8241811 60.5292756,56.9144646 60.7931811,57.1204961 C61.0617165,57.3288425 61.9495039,57.3577795 62.2180394,58.0707874 C62.4842598,58.7814803 62.8697008,59.4643937 62.9287323,60.5315906 C62.9900787,61.5976299 63.1081417,69.2763543 62.2458189,71.6792835 C61.3869685,74.0798976 61.002685,76.0661339 60.8533701,76.7201102 C60.7063701,77.3717717 60.3498661,79.3580079 60.0234567,80.0397638 C59.6982047,80.7192047 59.3417008,81.6394016 59.2224803,82.262126 C59.1032598,82.8860079 59.0754803,83.3605748 58.8069449,84.0423307 C58.5407244,84.7252441 58.6298504,84.9312756 58.3045984,85.1407795 C57.9770315,85.3456535 57.857811,85.3745906 57.857811,85.3745906 C57.857811,85.3745906 60.3788031,85.7912835 60.8834646,85.9105039 C61.3869685,86.0285669 61.742315,86.6813858 61.742315,87.4511102 C61.742315,88.2243071 59.9945197,90.0311339 58.0950945,90.4744488 C56.1991417,90.9200787 51.8111339,91.9583386 48.6685748,91.1295827 C45.5248583,90.2973543 46.3570866,90.0600709 44.1324094,89.9130709 L43.5687165,90.0600709 C43.5687165,90.0600709 39.7444016,90.1191024 38.6459528,88.1340236 C37.5498189,86.1477874 38.2304173,84.9914646 38.8554567,84.5168976 C39.4770236,84.0423307 41.0488819,83.6846693 41.1079134,83.5978583 C41.1669449,83.5075748 41.4632598,82.9450394 41.4632598,82.469315 C41.4632598,81.994748 41.7005433,82.351252 41.5824803,81.907937 C41.4632598,81.4623071 41.2861654,81.1659921 41.3151024,80.6914252 C41.3451969,80.2180157 41.4042283,79.5061654 41.2560709,79.0015039 C41.1079134,78.4968425 41.0789764,77.9632441 40.8706299,77.3092677 C40.6645984,76.6610787 40.4261575,76.2154488 40.278,75.4735039 C40.1298425,74.733874 39.5372126,71.7973465 39.3288661,70.6699606 C39.1216772,69.5437323 38.7964252,69.6930472 38.9422677,68.5367244 C39.0927402,67.3804016 39.0927402,66.8167087 39.0614882,66.1638898 C39.0325512,65.5133858 39.2408976,65.4231024 39.4179921,64.9207559 C39.5962441,64.414937 39.7143071,64.561937 39.4770236,64.2667795 C39.2408976,63.9704646 39.3601181,63.5838661 39.1216772,63.4368661 C38.8832362,63.2875512 38.7964252,63.0213307 38.1436063,62.9310472 C37.4896299,62.8442362 37.2257244,62.6671417 36.542811,62.3384173 C35.8598976,62.0120079 36.0393071,61.8650079 35.4142677,61.9529764 C34.7927008,62.0432598 33.8736614,62.1613228 33.5785039,62.1613228 C33.2810315,62.1613228 20.2663228,62.0710394 18.3680551,61.4784094 C16.4697874,60.886937 15.8771575,60.3533386 15.7880315,60.3533386 C15.6989055,60.3533386 15.2555906,60.5026535 14.8689921,60.3220866 C14.4847087,60.1449921 15.2254961,50.0934331 15.5229685,49.0563307 C15.8192835,48.0203858 16.0565669,47.0099055 15.996378,46.6267795 C15.9373465,46.2401811 15.6989055,45.8570551 15.760252,45.2621102 C15.8192835,44.6694803 15.550748,44.3731654 15.9373465,43.690252 C16.3204724,43.0073386 16.4697874,41.1993543 16.4119134,40.5164409 C16.3528819,39.837 16.4119134,39.4816535 16.4697874,38.9168031 C16.5299764,38.3531102 16.5010394,36.130748 16.3806614,35.1515197 C16.2625984,34.1734488 16.0565669,32.988189 16.2047244,32.691874 C16.3528819,32.3955591 16.4697874,32.4244961 16.5010394,32.0679921 C16.5299764,31.7138031 16.0843465,31.6536142 16.3204724,31.2079843 C16.5589134,30.7646693 16.7973543,28.7761181 16.7973543,27.9473622 C16.7973543,27.1174488 16.8262913,26.2574409 17.1237638,25.6057795 C17.4189213,24.9518031 17.4189213,24.5987717 17.7731102,24.1218898 C18.1307717,23.6484803 19.2269055,21.4249606 20.3253543,20.9202992 C21.4226457,20.4156378 22.6079055,19.6169764 23.021126,19.4387244 C23.4366614,19.2616299 24.2376378,18.4294016 24.5050157,18.3425906 C24.7723937,18.2523071 25.4240551,18.4294016 25.5131811,18.3425906 C25.6023071,18.2523071 26.3430945,16.7707323 26.5815354,16.5033543 C26.8176614,16.2371339 26.8778504,16.1792598 27.0248504,16.1792598 C27.1706929,16.1792598 27.0838819,16.9489843 28.0341732,17.7499606" id="Fill-6" fill="#265B80" sketch:type="MSShapeGroup" mask="url(#mask-2)"></path>
                                <path d="M45.6440787,42.1195512 C45.5422205,42.1496457 43.9541575,43.2168425 43.8360945,45.0838583 C43.716874,46.9520315 43.3603701,47.3386299 43.806,47.6928189 C44.2504724,48.0493228 45.2297008,48.1083543 45.9102992,47.8699134 C46.1649449,47.7831024 47.9740866,47.5006772 48.4312913,46.3594016 C48.9648898,45.0248268 48.2565118,41.2988976 45.6440787,42.1195512" id="Fill-15" fill="#265B80" sketch:type="MSShapeGroup" mask="url(#mask-2)"></path>
                                <path d="M41.9389843,46.0318346 C41.6345669,46.3385669 40.278,45.9728031 39.8034331,45.8848346 C39.8034331,45.8848346 39.9214961,47.100189 38.6772047,50.2126535 C38.6772047,50.2126535 41.2560709,50.1524646 41.8209213,50.4487795 C41.8209213,50.4487795 43.1821181,50.4800315 43.8939685,50.3619685 C44.6058189,50.242748 45.0213543,50.302937 45.4959213,50.3307165 C45.9704882,50.3619685 46.3570866,50.1524646 46.7714646,50.2126535 C47.184685,50.271685 47.483315,49.9163386 47.9266299,49.7091496 C48.3734173,49.5019606 48.7577008,49.2924567 49.0551732,49.1767087 C49.3514882,49.0563307 49.3190787,48.9093307 49.6177087,48.6720472 C49.9140236,48.4347638 50.3596535,48.3456378 50.596937,48.0493228 C50.8319055,47.7530079 50.0633386,46.2089291 49.8538346,45.5572677 C49.8538346,45.5572677 50.654811,44.5201654 50.9499685,43.9587874 C51.2462835,43.393937 51.0992835,42.3244252 50.922189,42.1195512 C50.7450945,41.9100472 50.4777165,41.6461417 50.3596535,41.5269213 C50.2404331,41.4077008 49.9730551,41.0211024 49.7658661,40.8440079 C49.5563622,40.6669134 49.2912992,40.6356614 49.1130472,40.4574094 C48.9359528,40.280315 48.6384803,39.837 48.3734173,39.837 C48.1048819,39.837 47.365252,40.1610945 47.0967165,40.0742835 C46.8304961,39.984 46.5932126,39.7467165 46.2668031,39.8647795 C45.9403937,39.984 45.4368898,40.6946929 45.3778583,41.1125433 C45.3176693,41.5269213 45.1405748,41.9100472 45.0815433,42.0593622 C45.0213543,42.2063622 44.6347559,42.4459606 44.5178504,42.7700551 C44.3997874,43.097622 44.3407559,43.3661575 44.4576614,43.8673465 C44.5768819,44.3731654 44.8720394,44.5826693 44.9044488,44.6694803 C44.9322283,44.7597638 44.4287244,44.5826693 43.687937,44.9056063 C42.9459921,45.2331732 42.0582047,45.9126142 41.9389843,46.0318346" id="Fill-16" fill="#265B80" sketch:type="MSShapeGroup" mask="url(#mask-2)"></path>
                                <mask id="mask-4" sketch:name="Clip 18" fill="white">
                                    <use xlink:href="#path-3"></use>
                                </mask>
                                <g id="Clip-18"></g>
                                <path d="M104.455654,9.33507874 C101.979803,9.7610315 100.840843,11.4984094 99.8743465,13.1767559 C99.3905197,14.1131575 99.6173858,14.8828819 99.6173858,14.8828819 C99.6173858,14.8828819 98.5374567,15.5657953 98.2237795,15.6502913 C97.9124173,15.7359449 97.9957559,16.1642126 98.1948425,16.3332047 C98.3950866,16.5056693 98.7643228,16.7904094 98.8789134,17.0184331 C98.9923465,17.2452992 99.0212835,17.3888268 98.8499764,17.5578189 C98.6786693,17.726811 98.6786693,17.9837717 98.8221969,18.0428031 C98.9634094,18.0995197 99.2481496,18.1562362 99.3048661,18.553252 C99.3627402,18.9514252 99.0502205,19.0382362 98.9066929,19.1794488 C98.7654803,19.3229764 98.6786693,19.3796929 98.9066929,19.7466142 C99.1347165,20.1193228 99.3048661,20.5730551 99.0212835,21.0024803 C98.7353858,21.4284331 98.7076063,21.7976693 99.106937,22.1113465 C99.5051102,22.4203937 101.495976,22.8787559 102.15111,23.6484803 C102.805087,24.4158898 103.544717,25.4946614 103.714866,26.0942362 C103.887331,26.6926535 104.05748,26.8037717 103.971827,27.1174488 C103.887331,27.4299685 103.912795,27.5711811 103.714866,28.0561654 C103.51578,28.5388346 103.402346,29.1094724 103.315535,29.1650315 C103.231039,29.221748 103.288913,29.3942126 103.288913,29.3942126 C103.288913,29.3942126 104.172071,29.2541575 105.107315,28.8235748 C106.047189,28.397622 107.753315,27.1452283 108.323953,26.6035276 C108.893433,26.0664567 110.145827,24.814063 110.712992,24.785126 C111.282472,24.7573465 111.027827,24.6716929 111.027827,24.6716929 C111.027827,24.6716929 110.458346,24.3279213 110.598402,24.1867087 C110.741929,24.0431811 111.340346,23.929748 111.766299,23.8464094 C112.192252,23.7607559 112.221189,23.3348031 112.706173,22.9933465 C113.19,22.6484173 113.957409,21.6564567 114.24215,21.2559685 C114.52689,20.8589528 114.583606,20.1760394 114.753756,19.6077165 C114.923906,19.0382362 115.151929,19.0104567 115.12415,18.4409764 C115.095213,17.8714961 115.066276,17.1318661 115.12415,16.5623858 C115.180866,15.994063 115.351016,15.5090787 115.12415,15.083126 C114.896126,14.6548583 114.782693,14.1444094 114.810472,13.6872047 C114.839409,13.2334724 114.952843,13.0042913 114.611386,12.6072756 C114.271087,12.2091024 114.383362,11.9521417 113.957409,11.7275906 C113.530299,11.4984094 113.245559,11.0412047 112.818449,11.0412047 C112.391339,11.0412047 112.107756,10.9844882 111.937606,10.7321575 C111.766299,10.4751969 111.795236,10.759937 111.538276,10.4462598 C111.282472,10.1337402 111.112323,9.76450394 110.598402,9.96127559 C110.086795,10.1603622 110.060173,9.78881102 109.688622,9.73556693 C109.319386,9.67885039 109.177016,9.39411024 108.751063,9.4195748 C108.323953,9.45082677 108.295016,9.67885039 107.726693,9.36285827 C107.156055,9.0491811 107.271803,8.96468504 106.786819,8.96468504 C106.305307,8.96468504 104.455654,9.33507874 104.455654,9.33507874" id="Fill-21" fill="#265B80" sketch:type="MSShapeGroup" mask="url(#mask-4)"></path>
                                <path d="M102.081661,28.1128819 C101.806181,27.2412992 98.6335276,29.3062441 97.8649606,30.5250709 C97.0940787,31.7438976 96.2606929,34.0542283 96.0037323,34.7591339 C95.7456142,35.4651969 92.0266299,41.6229921 91.7685118,42.1380709 C91.5115512,42.6496772 90.1654016,41.8822677 89.202378,40.981748 C88.2405118,40.0858583 82.6579843,35.2082362 81.8894173,33.2845039 C81.1185354,31.3607717 80.734252,30.9093543 79.8997087,30.3989055 C79.0651654,29.8815118 78.4482283,29.9972598 76.1656772,28.9092283 C76.1656772,28.9092283 75.5117008,28.7726457 75.3519685,28.8582992 C75.0637559,29.0110866 75.2547402,29.4648189 75.7929685,29.7553465 C76.6286693,30.2044488 77.1287008,30.2322283 77.1923622,30.5516929 C77.2560236,30.872315 77.0117953,30.7172126 77.0117953,30.7172126 C77.0117953,30.7172126 74.5741417,29.8815118 74.061378,29.6893701 C73.5474567,29.4983858 72.2013071,28.7390787 71.8795276,28.544622 C71.5612205,28.3559528 70.8551575,27.9577795 70.4685591,28.4068819 C70.4685591,28.4068819 70.7532992,28.8270472 71.0461417,29.0180315 C71.6121496,29.3861102 72.6098976,29.9498031 72.9073701,30.3329291 C73.355315,30.9093543 71.174622,29.371063 70.7255197,29.5632047 C70.2764173,29.7553465 70.9824803,30.0123071 71.6248819,30.7172126 C72.263811,31.4232756 73.355315,31.9360394 73.9340551,32.4488031 C74.5116378,32.9627244 75.408685,33.7336063 75.9214488,33.8597717 C76.4353701,33.9894094 77.7190157,34.5669921 78.2954409,34.7591339 C78.8741811,34.9512756 79.3209685,35.0809134 79.8360472,35.2730551 C80.3476535,35.4651969 84.4555512,41.3683465 85.3537559,42.4575354 C86.2519606,43.5490394 89.5878189,47.5272992 91.7048504,47.4624803 C93.8218819,47.3965039 94.5916063,45.7957087 95.4909685,44.7678661 C96.3891732,43.7411811 99.3384331,40.1495197 99.6590551,39.6332835 C99.9819921,39.1239921 102.47752,29.371063 102.081661,28.1128819" id="Fill-22" fill="#265B80" sketch:type="MSShapeGroup" mask="url(#mask-4)"></path>
                                <path d="M103.971827,27.1174488 C103.971827,27.1174488 103.705606,26.8662756 103.343315,27.3524173 C102.978709,27.8339291 102.859488,27.9554646 102.373346,28.0179685 C101.888362,28.077 102.070087,27.6545197 101.404535,28.3200709 C100.738984,28.985622 100.133622,29.3490709 99.8315197,31.2253465 C99.5282598,33.103937 100.013244,35.0392441 100.315346,35.5230709 C100.617449,36.0092126 99.5282598,36.7337953 99.3465354,37.7014488 C99.164811,38.6714173 98.7365433,39.6726378 99.0999921,40.7027953 C99.4634409,41.7294803 99.6497953,42.1808976 100.374378,42.8476063 C101.102433,43.5131575 101.706638,43.9981417 101.888362,44.6636929 C102.070087,45.3292441 101.526071,45.8732598 101.58626,46.3594016 C101.646449,46.8443858 101.283,47.2043622 101.343189,47.630315 C101.404535,48.0551102 104.069055,49.565622 104.734606,49.507748 C105.400157,49.4452441 108.244087,49.0806378 109.576346,49.625811 C110.907449,50.1732992 112.847386,49.9904173 113.753693,50.7161575 C114.662315,51.4442126 115.449402,51.4418976 116.053606,52.0484173 C116.660126,52.654937 117.628937,53.2001102 117.868535,53.0785748 C118.112764,52.9570394 119.684622,52.7764724 118.898693,47.509937 C118.111606,42.2434016 117.505087,41.3347795 117.02126,40.364811 C116.537433,39.3971575 117.748157,39.275622 117.446055,36.1272756 C117.143953,32.9824016 116.720315,30.7426772 116.537433,30.1361575 C116.355709,29.5296378 115.629969,27.1093465 115.025764,26.3847638 C114.419244,25.6567087 112.180677,24.2040709 110.181709,24.7480866 C108.185055,25.2932598 107.518346,27.1718504 106.672228,27.7147087 C105.823795,28.2598819 103.888488,29.1650315 103.888488,28.9254331 C103.888488,28.6823622 103.750748,27.2447717 103.971827,27.1174488" id="Fill-23" fill="#265B80" sketch:type="MSShapeGroup" mask="url(#mask-4)"></path>
                                <path d="M114.287291,50.6073543 C115.332496,51.3411969 116.436732,51.7914567 116.854583,52.1780551 C117.271276,52.5646535 117.944929,52.5646535 118.20189,55.0335591 C118.45885,57.5047795 119.324646,58.9145906 118.008591,59.298874 C116.693693,59.6854724 107.263701,60.9031417 105.113102,61.7388425 C102.964819,62.5710709 99.0502205,65.5238031 95.8428425,63.7887402 C92.6354646,62.0571496 90.1654016,51.3770787 93.9191102,50.4464646 C97.6716614,49.5146929 97.4147008,49.4510315 100.237795,49.4510315 C103.062047,49.4510315 112.33115,49.2276378 114.287291,50.6073543" id="Fill-24" fill="#265B80" sketch:type="MSShapeGroup" mask="url(#mask-4)"></path>
                                <path d="M111.465354,34.1190472 C111.064866,33.4025669 110.246528,32.6432598 109.796268,32.0008583 C109.347165,31.3607717 108.321638,28.0851024 108.705921,26.932252 C109.091362,25.7782441 109.515,24.9460157 110.712992,24.785126 C111.914457,24.6242362 113.132126,24.8777244 114.415772,26.932252 C115.699417,28.985622 116.918244,32.3874567 117.240024,33.0275433 C117.559488,33.6676299 118.587331,36.8136614 119.098937,38.0961496 C119.614016,39.3809528 120.639543,43.0362756 120.511063,43.806 C120.382583,44.5757244 116.918244,46.6267795 115.892717,47.2043622 C114.866031,47.7831024 104.984622,51.3122598 103.18937,51.5669055 C101.392961,51.8250236 99.2111102,50.4765591 97.4158583,49.1940709 C95.6182913,47.9138976 94.6564252,46.5654331 94.2698268,46.5654331 C93.8855433,46.5654331 96.0037323,46.0515118 96.5801575,46.2424961 C97.1577402,46.4346378 98.5038898,46.4346378 99.017811,46.5654331 C99.5328898,46.6915984 100.172976,47.4624803 100.877882,47.5909606 C101.583945,47.7194409 103.381512,48.423189 103.830614,48.423189 C104.279717,48.423189 106.204606,47.2043622 107.293795,46.8212362 C108.385299,46.4346378 114.22363,42.6496772 114.607913,42.1380709 C114.993354,41.6229921 112.362402,35.721 111.465354,34.1190472" id="Fill-25" fill="#265B80" sketch:type="MSShapeGroup" mask="url(#mask-4)"></path>
                                <path d="M79.0871575,45.6035669 C79.0871575,45.6035669 91.7476772,44.6602205 92.2176142,44.7030472 C92.6875512,44.748189 98.0767795,49.4927008 98.0767795,49.4927008 L88.7104488,49.4927008 L81.9530787,48.8526142 L79.4297717,47.3120079 L78.8741811,46.7135906 L78.8301969,46.4126457 L78.5755512,46.3269921 L79.0871575,45.6035669" id="Fill-26" fill="#265B80" sketch:type="MSShapeGroup" mask="url(#mask-4)"></path>
                                <path d="M98.7631654,50.1790866 C99.7782756,51.0842362 96.6426614,62.8673858 94.4179843,62.1393307 C92.1944646,61.4112756 88.8898583,61.180937 88.8898583,61.180937 C88.8898583,61.180937 88.1560157,65.5319055 87.7694173,68.3144882 C87.3851339,71.0947559 89.0102362,76.8659528 90.1642441,77.8092992 C91.3194094,78.7480157 91.8333307,80.290937 91.7905039,81.9160394 C91.7465197,83.5411417 90.7638189,85.6361811 90.5913543,89.6561102 L90.2938819,89.7406063 C90.2938819,89.7406063 90.3795354,84.3536929 89.6514803,84.0539055 C89.6514803,84.0539055 88.113189,85.6361811 86.7867165,88.1583307 C86.1454724,89.4882756 85.9301811,89.698937 82.3373622,89.5716142 C82.3373622,89.5716142 74.5232126,90.0542835 73.1423386,88.2879685 C72.3714567,87.3041102 73.4409685,86.6188819 74.0405433,86.3619213 C74.0405433,86.3619213 76.2200787,86.0632913 76.6923307,85.9324961 C77.1634252,85.8063307 79.3881024,81.7864016 79.642748,80.9738504 C79.8997087,80.1612992 80.7967559,76.7814567 81.0560315,74.9005512 C81.3118346,73.0184882 81.4391575,70.3250315 81.2690079,69.8967638 C81.0965433,69.4684961 78.3174331,64.3778976 77.0337874,59.0754803 C75.7501417,53.7719055 77.0777717,51.9743386 77.9331496,51.4199055 C78.7873701,50.8631575 80.1138425,49.9637953 80.584937,49.922126 C81.0560315,49.8792992 81.1833543,47.9138976 85.4614016,47.6534646 C89.7371339,47.3965039 95.2131732,47.0156929 98.7631654,50.1790866" id="Fill-27" fill="#265B80" sketch:type="MSShapeGroup" mask="url(#mask-4)"></path>
                                <path d="M117.155528,73.2534567 C115.362591,73.3715197 112.727008,73.5752362 111.957283,74.1539764 C111.957283,74.1539764 112.664504,74.2153228 112.664504,74.4063071 C112.664504,74.6007638 112.600843,74.7929055 112.343882,74.9850472 C112.085764,75.1760315 112.085764,75.4341496 112.085764,75.4341496 L109.455969,75.5626299 L109.392307,75.8855669 L116.384646,76.0777087 L116.384646,85.6361811 L116.126528,86.0852835 L95.9192362,87.433748 C95.9192362,87.433748 94.7629134,87.816874 94.7629134,89.4222992 C94.7629134,89.4222992 92.8391811,90.0635433 95.1483543,90.0635433 C95.1483543,90.0635433 98.2284094,89.8065827 95.725937,89.4222992 L95.725937,88.522937 L114.97252,88.522937 L114.97252,89.1630236 C114.97252,89.1630236 114.203953,89.2278425 114.332433,89.4222992 C114.459756,89.6144409 114.524575,89.7406063 115.165819,89.7406063 C115.805906,89.7406063 116.192504,89.4222992 116.192504,89.4222992 L115.55126,89.0357008 L115.613764,88.6525748 L116.705268,88.6525748 C116.705268,88.6525748 116.896252,88.8447165 117.346512,88.8447165 C117.794457,88.8447165 118.438016,88.5865984 118.438016,88.5865984 L120.555047,88.5865984 L120.681213,89.8065827 C120.681213,89.8065827 119.592024,89.8065827 119.592024,90.0635433 C119.592024,90.3193465 119.977465,90.3841654 120.873354,90.3841654 C121.773874,90.3841654 121.645394,90.1248898 121.645394,90.1248898 L121.067811,89.8065827 L121.133787,88.6525748 C121.133787,88.6525748 137.749417,88.3956142 139.35137,88.522937 C139.35137,88.522937 139.736811,88.7150787 139.736811,89.1630236 L139.866449,89.6144409 C139.866449,89.6144409 138.904583,89.6769449 138.968244,89.8714016 C139.031906,90.0635433 139.610646,90.1248898 140.699835,90.0635433 C140.699835,90.0635433 141.407055,89.8714016 140.506535,89.6769449 L140.379213,89.3574803 L140.636173,89.3574803 C140.636173,89.3574803 140.699835,88.0738346 140.059748,87.7532126 C139.416189,87.433748 119.656843,86.3422441 119.656843,86.3422441 L119.335063,85.6361811 L119.399882,76.0117323 L126.072756,75.6251339 L126.072756,75.3068268 L123.506622,75.3716457 C123.506622,75.3716457 123.184843,74.9850472 122.992701,74.7292441 C122.799402,74.4722835 122.351457,74.088 122.544756,74.088 C122.73574,74.088 123.506622,74.1539764 123.506622,73.8970157 C123.506622,73.8970157 120.105945,73.061315 117.155528,73.2534567" id="Fill-30" fill="#265B80" sketch:type="MSShapeGroup" mask="url(#mask-4)"></path>
                                <path d="M26.8674331,16.5033543 C26.8674331,16.5033543 28.1719134,18.3217559 29.1997559,19.5857244 C30.2275984,20.8531654 32.5992756,25.7527795 33.1513937,27.6116929 C33.7058268,29.4706063 35.9189291,40.3821732 36.1955669,41.3266772 C36.4722047,42.2769685 37.8577087,46.071189 35.8008661,52.0032756 C35.8008661,52.0032756 35.0091496,53.1885354 35.1283701,53.4640157 C35.2475906,53.741811 35.9582835,53.7811654 36.2754331,53.7024567 C36.5902677,53.6225906 39.2385827,53.977937 39.4376693,53.741811 C39.6355984,53.5045276 39.516378,52.5935906 39.5568898,52.358622 C39.5950866,52.1213386 39.6749528,47.6534646 39.6749528,46.8605906 C39.6749528,46.071189 38.9631024,42.632315 39.0036142,41.6854961 C39.041811,40.7340472 38.2917638,35.1630945 38.0139685,34.132937 C37.7384882,33.1074094 36.9872835,29.074748 36.9467717,28.2830315 C36.9085748,27.4924724 36.7094882,25.6347165 36.7094882,25.6347165 C36.7094882,25.6347165 37.4213386,26.6637165 37.5394016,26.8188189 C37.658622,26.9797087 37.894748,27.019063 37.9746142,26.8188189 C38.0544803,26.6243622 38.0544803,25.4367874 37.776685,24.9228661 C37.5012047,24.4101024 36.5902677,22.669252 36.1562126,22.312748 C35.721,21.9585591 35.6828031,21.3265748 35.1283701,20.9712283 C34.5750945,20.6158819 29.990315,14.9210787 26.8674331,16.5033543" id="Fill-4" fill="#265B80" sketch:type="MSShapeGroup" mask="url(#mask-4)"></path>
                            </g>
                            <g id="No-fill" transform="translate(16.362205, 20.834646)" sketch:type="MSShapeGroup">
                                <path d="M8.76328346,1.12391339 C10.3455591,2.18995276 11.8479685,4.95633071 12.0065433,6.50040945 C12.1651181,8.04333071 12.3618898,9.14872441 12.2438268,9.93928346 C12.1246063,10.728685 11.9683465,10.6522913 12.3618898,11.7553701 C12.7565906,12.8642362 12.8364567,13.8909213 12.7971024,14.526378 C12.7565906,15.1572047 12.3618898,15.3944882 12.8364567,15.3551339 C13.3110236,15.3157795 13.9441654,14.4870236 14.0610709,13.8909213 C14.1802913,13.2982913 14.2196457,10.846748 14.4974409,11.0863465 C14.7729213,11.3236299 14.9720079,13.8122126 14.5773071,15.1190079 C14.1802913,16.4211732 14.1004252,16.3031102 13.6270157,17.0959843 C13.1524488,17.8853858 12.4799528,17.8460315 12.7565906,18.201378 C13.0355433,18.5567244 13.4707559,18.5173701 13.7855906,18.5173701 C14.1004252,18.5173701 15.524126,18.4386614 14.8921417,18.9120709 C14.2601575,19.3854803 13.3110236,19.3854803 13.6270157,19.5834094 C13.9441654,19.7836535 15.6827008,21.0071102 16.1572677,21.047622 C16.6318346,21.0869764 16.7498976,21.4029685 16.8679606,21.758315 C16.9871811,22.1136614 16.9466693,22.0349528 17.343685,22.2710787 C17.7383858,22.5083622 18.2141102,22.7062913 18.4490787,22.7884724 C18.6863622,22.8671811 18.9641575,22.7086063 19.4398819,22.8671811 C19.9132913,23.0257559 20.1505748,22.669252 20.4260551,23.1797008 C20.7038504,23.6970945 21.018685,24.0709606 21.018685,24.0709606 C21.018685,24.0709606 20.3867008,23.6172283 19.8334252,23.3405906 C19.2801496,23.0651102 18.8460945,22.9065354 18.4895906,22.9458898 C18.1330866,22.9852441 17.3830394,22.7479606 17.0658898,22.5083622 C16.7498976,22.2710787 16.6700315,22.3139055 16.196622,21.9955984 C15.7220551,21.6796063 15.7220551,21.7976693 15.2868425,21.5997402 C14.8527874,21.4029685 14.9720079,21.4029685 14.6942126,21.165685 C14.4164173,20.9284016 14.379378,20.9284016 14.1420945,20.9284016 C13.904811,20.9284016 13.8261024,20.8902047 13.4695984,20.5730551 C13.114252,20.257063 13.0355433,20.257063 12.5598189,19.9387559 C12.085252,19.6227638 12.4012441,19.5834094 11.8086142,19.3854803 C11.2148268,19.1887087 10.8606378,18.8333622 11.1372756,18.8727165 C11.4150709,18.9120709 11.7692598,19.0301339 11.7299055,18.8727165 C11.6893937,18.7141417 11.6118425,18.6747874 11.4521102,18.4386614 C11.2946929,18.201378 10.8606378,17.608748 11.2148268,17.6481024 C11.5701732,17.6874567 11.7692598,17.8460315 11.7299055,17.4501732 C11.6893937,17.0531575 11.7299055,16.2637559 11.4937795,15.8678976 C11.2553386,15.4731969 11.1766299,15.0784961 10.7807717,14.8018583 C10.3837559,14.526378 9.23785039,12.9441024 10.0307244,13.6536378 C10.820126,14.3678031 11.5701732,14.9604331 11.8086142,15.2359134 C12.0458976,15.5125512 12.0458976,14.8018583 11.967189,14.1305197 C11.8873228,13.4568661 11.7692598,12.7461732 11.5319764,12.3109606 C11.2946929,11.8769055 9.71241732,10.6522913 10.1094331,10.6522913 C10.5041339,10.6522913 10.5434882,10.9659685 10.8988346,10.8861024 C11.2553386,10.8073937 11.5701732,10.610622 11.3745591,10.0179921 C11.1766299,9.42651969 11.3745591,8.47738583 11.4937795,8.00050394 C11.6118425,7.52709449 11.8086142,6.81640157 11.2946929,6.5386063 C10.7807717,6.26312598 10.5828425,5.94713386 10.8606378,5.78971654 C11.1372756,5.62766929 11.2553386,6.30248031 11.1372756,5.62766929 C11.0192126,4.95633071 10.9775433,4.52227559 10.6221969,4.36485827 C10.2656929,4.20744094 10.1094331,4.00951181 10.5041339,4.04886614 C10.8988346,4.08822047 8.76328346,1.12391339 8.76328346,1.12391339" id="Fill-8"></path>
                                <path d="M22.4817402,4.72020472 C22.3821969,3.61712598 22.6391575,6.18441732 22.9574646,7.09303937 C23.2722992,8.00050394 23.3510079,9.26794488 23.5095827,10.4925591 C23.6681575,11.7183307 23.7862205,13.2195827 23.8255748,13.5749291 C23.8649291,13.9302756 24.3394961,15.8285433 24.4992283,16.9374094 C24.6543307,18.0428031 24.577937,18.201378 24.696,19.228063 C24.814063,20.257063 24.9332835,21.758315 25.0119921,22.7479606 C25.0918583,23.7364488 25.2874724,25.197189 25.3673386,25.0420866 C25.4460472,24.8811969 25.4460472,24.0906378 25.3279843,23.4192992 C25.2099213,22.7479606 25.604622,22.1958425 25.9993228,21.7976693 C26.3963386,21.4029685 27.0665197,20.9284016 27.0665197,20.6135669 C27.0665197,20.2964173 26.5907953,20.6529213 26.1984094,21.1263307 C25.8025512,21.5997402 25.3279843,22.2317244 25.3279843,22.3104331 C25.3279843,22.3937717 25.0513465,21.6390945 25.2874724,21.3636142 C25.5270709,21.0869764 25.7238425,20.5730551 25.843063,20.1795118 C25.9622835,19.7813386 25.843063,18.8727165 25.7631969,19.228063 C25.6833307,19.5834094 25.2492756,20.2964173 25.2099213,20.8114961 C25.1705669,21.3242598 25.2874724,18.8333622 25.1312126,18.2800866 C24.9726378,17.726811 24.8522598,17.2140472 24.7341969,16.7788346 C24.6161339,16.3424646 24.2214331,14.0494961 24.1427244,13.4962205 C24.0628583,12.9441024 24.1427244,13.1802283 23.8255748,11.8352362 C23.5095827,10.4925591 23.7468661,9.30729921 23.5095827,8.55725197 C23.2722992,7.80373228 22.5210945,5.15425984 22.4817402,4.72020472" id="Fill-9"></path>
                                <path d="M18.8460945,2.98282677 C18.8460945,2.98282677 18.8067402,4.4042126 17.936315,5.71100787 C17.936315,5.71100787 18.0948898,5.78624409 18.1747559,6.50040945 C18.2511496,7.21110236 18.1712835,10.612937 18.3310157,11.439378 C18.4895906,12.2727638 19.5162756,17.7673228 19.9514882,19.0706457 C20.3855433,20.3762835 21.0360472,22.2606614 20.9955354,24.0987402 L23.2641969,24.8649921 C23.2641969,24.8649921 23.2329449,24.8024882 22.6785118,22.3532598 C22.6785118,22.3532598 22.5210945,19.6621181 22.4412283,19.1516693 C22.3625197,18.6365906 20.900622,12.1928976 20.5059213,10.9694409 C20.1112205,9.74135433 19.8334252,6.81640157 19.8334252,6.50040945 C19.8334252,6.18441732 19.9121339,5.11490551 19.9514882,4.64149606 C19.9908425,4.16808661 20.2292835,3.33817323 18.8460945,2.98282677" id="Fill-10"></path>
                                <path d="M20.1586772,30.1778268 C20.1586772,30.1778268 21.1772598,32.5113071 21.375189,32.4325984 C21.5731181,32.3538898 22.9574646,29.9810551 23.1530787,29.2703622 C23.3510079,28.5596693 23.430874,25.4367874 23.2722992,25.197189 C23.1125669,24.961063 21.5916378,29.3097165 20.1586772,30.1778268" id="Fill-11"></path>
                                <path d="M0.858850394,12.6269528 C1.15516535,13.2786142 1.27207087,14.0494961 1.39244882,14.8226929 C1.51051181,15.5924173 1.21419685,15.4141654 1.74895276,16.2429213 C2.2813937,17.0728346 2.2813937,16.8957402 2.46080315,17.965252 C2.63674016,19.0301339 2.2813937,18.7928504 2.69808661,19.5660472 C3.11246457,20.3357717 3.11246457,20.0961732 3.29071654,20.7513071 C3.46665354,21.4029685 3.29071654,21.1066535 3.46665354,22.1726929 C3.64606299,23.2422047 3.29071654,23.2422047 3.58471654,23.7156142 C3.8810315,24.1901811 4.17850394,25.0779685 4.65191339,25.315252 C4.65191339,25.315252 3.05343307,25.2562205 2.2223622,25.4344724 C1.39244882,25.6115669 0.798661417,25.4923465 0.798661417,25.4923465 C0.798661417,25.4923465 2.16333071,24.961063 2.63674016,24.7816535 C3.11246457,24.6045591 3.23052756,24.4274646 2.8751811,24.1901811 C2.51983465,23.9528976 1.68876378,24.1901811 1.92604724,23.5975512 C2.16333071,23.0049213 2.39945669,22.1136614 2.2223622,21.4029685 C2.04411024,20.6922756 1.62973228,20.9885906 1.21419685,21.6390945 C0.798661417,22.2919134 0.502346457,21.876378 0.798661417,21.343937 C1.09497638,20.8114961 1.51051181,19.8010157 1.4526378,18.8530394 C1.39244882,17.905063 1.21419685,16.6584567 0.91788189,16.6584567 C0.621566929,16.6584567 0.502346457,16.0067953 0.621566929,14.9997874 C0.739629921,13.9893071 0.858850394,12.6269528 0.858850394,12.6269528" id="Fill-12"></path>
                                <path d="M33.9847795,37.453748 C33.9847795,37.453748 34.6190787,39.1517717 34.4211496,41.0500394 C34.222063,42.9459921 34.0241339,43.8569291 34.2625748,44.8859291 C34.4998583,45.9137717 34.4211496,45.7135276 34.222063,46.6638189 C34.0241339,47.6117953 33.9060709,48.2831339 33.9060709,49.4707087 C33.9060709,50.6559685 33.7092992,52.158378 33.5507244,53.1457087 C33.3921496,54.1341969 33.4326614,56.9422441 33.3527953,57.6934488 C33.2764016,58.4434961 32.956937,58.2062126 32.7196535,58.5627165 C32.4823701,58.9169055 32.6421024,59.1553465 33.1166693,58.8381969 C33.5900787,58.5233622 33.7880079,59.036126 34.9339134,58.7606457 C36.0809764,58.4828504 38.7698031,56.9422441 37.2673937,57.3346299 C35.7638268,57.7328031 34.3030866,58.0487953 34.2625748,57.7721575 C34.222063,57.4966772 35.5670551,54.4918583 35.9235591,54.096 C36.2789055,53.7001417 37.0694646,51.7648346 37.0694646,51.7648346 C37.0694646,51.7648346 37.0289528,50.5761024 35.6862756,52.2775984 C34.3412835,53.9790945 34.4211496,53.8170472 34.4211496,53.3077559 C34.4211496,52.7903622 34.3412835,52.1190236 34.4998583,51.6849685 C34.6595906,51.2474409 34.8945591,50.9314488 35.6862756,49.7068346 C36.4756772,48.481063 37.5417165,45.1232126 37.5417165,45.1232126 C36.2789055,46.5064016 34.3806378,49.7068346 34.3412835,49.9441181 C34.3030866,50.1825591 35.2117087,44.6463307 35.4084803,43.8187323 C35.6064094,42.9888189 36.0022677,42.4748976 36.8310236,41.8000866 C37.660937,41.128748 38.4526535,40.2212835 37.5046772,40.6159843 C36.5555433,41.010685 35.2892598,41.485252 35.1318425,41.5246063 C34.9744252,41.5639606 34.8146929,41.010685 34.8552047,40.4967638 C34.8945591,39.984 34.2625748,37.8090945 33.9847795,37.453748" id="Fill-13"></path>
                                <path d="M23.5095827,24.8418425 C23.9065984,26.5826929 22.165748,29.9810551 22.165748,29.9810551 L20.7825591,29.7842835 C22.8775984,27.7274409 22.9169528,24.6832677 22.9169528,24.6832677 L23.5095827,24.8418425" id="Fill-14"></path>
                                <path d="M64.4647087,29.3861102 C64.4647087,29.3861102 62.797937,32.3816693 64.4647087,41.5778504 C64.4647087,41.5778504 65.1487795,47.1800551 65.1082677,48.8896535 C65.1082677,48.8896535 63.7806378,37.4282835 63.4391811,35.7163701 C63.0965669,34.0067717 63.7806378,29.8155354 64.4647087,29.3861102" id="Fill-28"></path>
                            </g>
                        </g>
                    </g>
                </g>
            </g>
        </g>
    </g>
</svg>