<?xml version="1.0" encoding="UTF-8" standalone="no"?>
<svg width="44px" height="41px" viewBox="0 0 44 41" version="1.1" xmlns="http://www.w3.org/2000/svg" xmlns:xlink="http://www.w3.org/1999/xlink" xmlns:sketch="http://www.bohemiancoding.com/sketch/ns">
    <!-- Generator: Sketch 3.3.2 (12043) - http://www.bohemiancoding.com/sketch -->
    <title>life</title>
    <desc>Created with Sketch.</desc>
    <defs></defs>
    <g id="VDM-Landing-Page-2" stroke="none" stroke-width="1" fill="none" fill-rule="evenodd" sketch:type="MSPage">
        <g id="VDM2_max_tablet_youville" sketch:type="MSArtboardGroup" transform="translate(-621.000000, -1235.000000)" fill="#3498B3">
            <g id="You-Have-Options-Copy-5" sketch:type="MSLayerGroup" transform="translate(-336.000000, 930.000000)">
                <g id="Rectangle-76-+-You-are-already-elig-+-You-are-already-elig" transform="translate(420.000000, 49.500000)" sketch:type="MSShapeGroup">
                    <g id="Group" transform="translate(19.000000, 255.500000)">
                        <g id="Life-+-Group" transform="translate(518.000000, 0.500000)">
                            <g id="life">
                                <path d="M15.1356098,18.0487805 L19.1536585,9.10634146 L24.5497561,26.7653659 L28.8126829,18.0487805 L42.4356098,18.0487805 C43.2619512,16.2214634 43.902439,14.2419512 43.902439,12.2385366 C43.902439,5.71560976 38.6141463,0.427317073 32.0907317,0.427317073 C27.8209756,0.427317073 24.1136585,2.71463415 21.9512195,6.09219512 C19.7882927,2.71463415 16.0814634,0.427317073 11.8117073,0.427317073 C5.28829268,0.427317073 0,5.71560976 0,12.2385366 C0,14.2419512 0.640487805,16.2214634 1.46682927,18.0487805 L15.1356098,18.0487805 L15.1356098,18.0487805 Z" id="Shape"></path>
                                <path d="M29.7239024,19.5121951 L24.2312195,30.7317073 L18.895122,13.2687805 L16.0839024,19.5121951 L2.16390244,19.5121951 C4.68731707,24.2302439 8.83121951,28.2443902 12.6882927,31.8209756 C15.6385366,34.5570732 18.7307317,37.1595122 21.9512195,39.5726829 C25.1717073,37.1590244 28.2639024,34.5565854 31.2141463,31.8209756 C35.0712195,28.2443902 39.2156098,24.2302439 41.7385366,19.5121951 L29.7239024,19.5121951 L29.7239024,19.5121951 Z" id="Shape"></path>
                            </g>
                        </g>
                    </g>
                </g>
            </g>
        </g>
    </g>
</svg>