<?xml version="1.0" encoding="UTF-8" standalone="no"?>
<svg width="50px" height="33px" viewBox="0 0 50 33" version="1.1" xmlns="http://www.w3.org/2000/svg" xmlns:xlink="http://www.w3.org/1999/xlink" xmlns:sketch="http://www.bohemiancoding.com/sketch/ns">
    <!-- Generator: Sketch 3.3.2 (12043) - http://www.bohemiancoding.com/sketch -->
    <title>social security card</title>
    <desc>Created with Sketch.</desc>
    <defs></defs>
    <g id="Page-1" stroke="none" stroke-width="1" fill="none" fill-rule="evenodd" sketch:type="MSPage">
        <g id="Desktop-v13" sketch:type="MSArtboardGroup" transform="translate(-545.000000, -1215.000000)" fill="#FFFFFF">
            <g id="Body" sketch:type="MSLayerGroup" transform="translate(0.000000, 398.000000)">
                <g id="Dependents" transform="translate(0.000000, 625.000000)" sketch:type="MSShapeGroup">
                    <g id="social-security-card-+-Social-Security--Num" transform="translate(518.000000, 192.000000)">
                        <g id="social-security-card" transform="translate(27.000000, 0.000000)">
                            <path d="M6.88434343,15.3419192 L7.46414141,16.2479798 L8.06161616,15.3419192 L9.16969697,15.3419192 L8.00606061,16.9969697 L9.21414141,18.7292929 L8.08838384,18.7292929 L7.42626263,17.7964646 L6.78434343,18.7292929 L5.69545455,18.7292929 L6.87828283,17.0030303 L5.75858586,15.3419192 L6.88434343,15.3419192" id="Fill-1"></path>
                            <path d="M10.5671717,15.3419192 L11.1469697,16.2479798 L11.7444444,15.3419192 L12.8525253,15.3419192 L11.6888889,16.9969697 L12.8969697,18.7292929 L11.7707071,18.7292929 L11.1090909,17.7964646 L10.4671717,18.7292929 L9.37828283,18.7292929 L10.5611111,17.0030303 L9.44141414,15.3419192 L10.5671717,15.3419192" id="Fill-2"></path>
                            <path d="M14.2484848,15.3419192 L14.8282828,16.2479798 L15.4262626,15.3419192 L16.5338384,15.3419192 L15.370202,16.9969697 L16.5782828,18.7292929 L15.4525253,18.7292929 L14.7909091,17.7964646 L14.1489899,18.7292929 L13.0606061,18.7292929 L14.2424242,17.0030303 L13.1227273,15.3419192 L14.2484848,15.3419192" id="Fill-3"></path>
                            <path d="M16.9434343,16.4181818 L19.1848485,16.4181818 L19.1848485,17.2545455 L16.9434343,17.2545455 L16.9434343,16.4181818 Z" id="Fill-4"></path>
                            <path d="M20.7459596,15.3419192 L21.3257576,16.2479798 L21.9232323,15.3419192 L23.0313131,15.3419192 L21.8676768,16.9969697 L23.0757576,18.7292929 L21.9494949,18.7292929 L21.2878788,17.7964646 L20.6459596,18.7292929 L19.5580808,18.7292929 L20.739899,17.0030303 L19.620202,15.3419192 L20.7459596,15.3419192" id="Fill-5"></path>
                            <path d="M24.4277778,15.3419192 L25.0075758,16.2479798 L25.6045455,15.3419192 L26.7131313,15.3419192 L25.5494949,16.9969697 L26.7565657,18.7292929 L25.6313131,18.7292929 L24.969697,17.7964646 L24.3277778,18.7292929 L23.239899,18.7292929 L24.4212121,17.0030303 L23.3020202,15.3419192 L24.4277778,15.3419192" id="Fill-6"></path>
                            <path d="M27.1222222,16.4181818 L29.3636364,16.4181818 L29.3636364,17.2545455 L27.1222222,17.2545455 L27.1222222,16.4181818 Z" id="Fill-7"></path>
                            <path d="M30.9232323,15.3419192 L31.5035354,16.2479798 L32.1010101,15.3419192 L33.2090909,15.3419192 L32.0454545,16.9969697 L33.2535354,18.7292929 L32.1272727,18.7292929 L31.4661616,17.7964646 L30.8237374,18.7292929 L29.7348485,18.7292929 L30.9176768,17.0030303 L29.7979798,15.3419192 L30.9232323,15.3419192" id="Fill-8"></path>
                            <path d="M34.6070707,15.3419192 L35.1863636,16.2479798 L35.7838384,15.3419192 L36.8919192,15.3419192 L35.7282828,16.9969697 L36.9358586,18.7292929 L35.810101,18.7292929 L35.1484848,17.7964646 L34.5060606,18.7292929 L33.4171717,18.7292929 L34.6,17.0030303 L33.480303,15.3419192 L34.6070707,15.3419192" id="Fill-9"></path>
                            <path d="M38.2888889,15.3419192 L38.8691919,16.2479798 L39.4666667,15.3419192 L40.5747475,15.3419192 L39.4106061,16.9969697 L40.6186869,18.7292929 L39.4924242,18.7292929 L38.8308081,17.7964646 L38.1893939,18.7292929 L37.1005051,18.7292929 L38.2828283,17.0030303 L37.1636364,15.3419192 L38.2888889,15.3419192" id="Fill-10"></path>
                            <path d="M41.9707071,15.3419192 L42.5505051,16.2479798 L43.1484848,15.3419192 L44.2560606,15.3419192 L43.0919192,16.9969697 L44.3005051,18.7292929 L43.1742424,18.7292929 L42.5126263,17.7964646 L41.8707071,18.7292929 L40.7828283,18.7292929 L41.9646465,17.0030303 L40.8449495,15.3419192 L41.9707071,15.3419192" id="Fill-11"></path>
                            <path d="M5.58737374,24.3954545 L44.4131313,24.3954545 L44.4131313,26.4353535 L5.58737374,26.4353535 L5.58737374,24.3954545 Z" id="Fill-12"></path>
                            <path d="M46.8136364,0.0146464646 L3.18585859,0.0146464646 C1.68030303,0.0146464646 0.454545455,1.24040404 0.454545455,2.74646465 L0.454545455,30.1222222 C0.454545455,31.6277778 1.68030303,32.8535354 3.18585859,32.8535354 L46.8146465,32.8535354 C48.3207071,32.8535354 49.5464646,31.6277778 49.5464646,30.1222222 L49.5464646,2.74545455 C49.5454545,1.24040404 48.319697,0.0146464646 46.8136364,0.0146464646 L46.8136364,0.0146464646 Z M46.8136364,30.8111111 L3.18585859,30.8111111 C2.80505051,30.8111111 2.4959596,30.5020202 2.4959596,30.1212121 L2.4959596,10.3712121 C8.60656566,7.77171717 16.4045455,6.33232323 24.5727273,6.33232323 C33.1737374,6.33232323 41.2752525,7.90505051 47.5050505,10.7489899 L47.5050505,30.120202 C47.5050505,30.5020202 47.1954545,30.8111111 46.8136364,30.8111111 L46.8136364,30.8111111 Z" id="Fill-13"></path>
                        </g>
                    </g>
                </g>
            </g>
        </g>
    </g>
</svg>